<svg width="100" height="100" viewBox="0 0 100 100" fill="none" xmlns="http://www.w3.org/2000/svg">
<g clip-path="url(#clip0_12_1263)">
<path d="M72.1411 56.4759H26.2158L30.5585 49.1883C30.7645 48.8427 31.1368 48.6313 31.5389 48.6313H66.8356C67.2384 48.6313 67.6107 48.8434 67.8167 49.1898L72.1411 56.4759Z" fill="#FFBA41"/>
<path d="M70.6693 98.4383H27.6875C26.875 98.4383 26.2158 97.7792 26.2158 96.9666V56.4758H72.1411V96.9666C72.1411 97.7792 71.4819 98.4383 70.6693 98.4383Z" fill="#FFD886"/>
<path d="M54.8875 56.4759H44.1277L45.3629 48.6313H53.5173L54.8875 56.4759Z" fill="#D16A15"/>
<path d="M44.1277 56.4758H54.8875V72.0055L49.5072 67.997L44.1277 72.0055V56.4758Z" fill="#E57917"/>
<path d="M15.1242 19.802H9.46772C8.66586 19.802 8.0166 19.1528 8.0166 18.3517V14.1448C8.0166 13.3437 8.66586 12.6945 9.46772 12.6945H15.1242C15.9252 12.6945 16.5753 13.3437 16.5753 14.1448V18.3517C16.5753 19.1528 15.9252 19.802 15.1242 19.802Z" fill="#41739F"/>
<path d="M14.9792 6.43833H9.61035V4.34482C9.61035 2.86243 10.8127 1.66003 12.2951 1.66003C13.7775 1.66003 14.9792 2.86243 14.9792 4.34482V6.43833Z" fill="#FF6969"/>
<path d="M26.2162 61.5562V71.0823H25.0145C23.04 71.0823 21.4386 69.4816 21.4386 67.5071V65.1313C21.4386 63.1568 23.0393 61.5554 25.0145 61.5554H26.2162V61.5562Z" fill="#41739F"/>
<path d="M72.1414 61.5562V71.0823H73.3431C75.3175 71.0823 76.919 69.4816 76.919 67.5071V65.1313C76.919 63.1568 75.3183 61.5554 73.3431 61.5554H72.1414V61.5562Z" fill="#41739F"/>
<path d="M89.9988 6.43833H84.63V4.34482C84.63 2.86243 85.8316 1.66003 87.314 1.66003C88.7964 1.66003 89.9988 2.86243 89.9988 4.34482V6.43833Z" fill="#FF6969"/>
<path d="M44.843 4.56995H54.0403C55.6753 4.56995 57.0005 5.89517 57.0005 7.53016V12.2329H41.8828V7.53016C41.8828 5.89517 43.208 4.56995 44.843 4.56995Z" fill="#FF6969"/>
<path d="M54.0399 4.56995H49.8048C51.4398 4.56995 52.765 5.89517 52.765 7.53016V12.2329H57.0001V7.53016C57.0001 5.89517 55.6748 4.56995 54.0399 4.56995Z" fill="#FF4848"/>
<path d="M90.142 19.802H84.4855C83.6844 19.802 83.0352 19.1528 83.0352 18.3517V14.1448C83.0352 13.3437 83.6844 12.6945 84.4855 12.6945H90.1427C90.9438 12.6945 91.5931 13.3437 91.5931 14.1448V18.3517C91.5931 19.1528 90.9438 19.802 90.142 19.802Z" fill="#41739F"/>
<path d="M57.7058 28.8185H41.1774C38.2394 28.8185 35.8575 26.4374 35.8575 23.4985V16.2483H63.0258V23.4985C63.0258 26.4366 60.6439 28.8185 57.7058 28.8185Z" fill="#A3C0D9"/>
<path d="M63.8052 17.3255H35.0774C33.3211 17.3255 31.8975 15.9018 31.8975 14.1455V14.1448C31.8975 12.3885 33.3211 10.9648 35.0774 10.9648H63.8052C65.5615 10.9648 66.9851 12.3885 66.9851 14.1448V14.1455C66.9851 15.9018 65.5615 17.3255 63.8052 17.3255Z" fill="#628DB2"/>
<path d="M63.8055 10.9648H55.2293C56.9856 10.9648 58.4092 12.3885 58.4092 14.1455C58.4092 15.9018 56.9856 17.3255 55.2293 17.3255H63.8055C65.5618 17.3255 66.9855 15.9018 66.9855 14.1455C66.9855 12.3885 65.5618 10.9648 63.8055 10.9648Z" fill="#41739F"/>
<path d="M57.0001 17.3256V23.4985C57.0001 26.4366 54.6189 28.8185 51.6808 28.8185H57.7058C60.6439 28.8185 63.0258 26.4366 63.0258 23.4985V17.3256H57.0001Z" fill="#83A7C5"/>
<path d="M98.34 4.97349H91.4637V4.34406C91.4637 2.05677 89.6021 0.19519 87.3148 0.19519C85.0267 0.19519 83.1651 2.05677 83.1651 4.34406V4.97349H76.2888C75.48 4.97349 74.8239 5.62962 74.8239 6.43834C74.8239 7.24782 75.48 7.90318 76.2888 7.90318H85.8492V11.2288H84.4858C83.4123 11.2288 82.4754 11.814 81.9688 12.68H68.2123C67.5973 10.8344 65.8555 9.50002 63.8055 9.50002H58.4657V7.53011C58.4657 5.08946 56.4805 3.10428 54.0399 3.10428H44.8434C42.4027 3.10428 40.4176 5.08946 40.4176 7.53011V9.50002H35.077C33.0277 9.50002 31.2859 10.8344 30.6702 12.68H17.6407C17.1349 11.814 16.1972 11.2288 15.1238 11.2288H13.7604V7.90318H23.3208C24.1303 7.90318 24.7857 7.24782 24.7857 6.43834C24.7857 5.62962 24.1303 4.97349 23.3208 4.97349H16.4444V4.34406C16.4444 2.05677 14.5836 0.19519 12.2956 0.19519C10.0075 0.19519 8.14592 2.05677 8.14592 4.34406V4.97349H1.26953C0.460817 4.97349 -0.195312 5.62962 -0.195312 6.43834C-0.195312 7.24782 0.460817 7.90318 1.26953 7.90318H10.8299V11.2288H9.46657C7.85906 11.2288 6.55061 12.5373 6.55061 14.1448V18.3517C6.55061 19.9592 7.85906 21.2676 9.46657 21.2676H15.1238C16.7313 21.2676 18.0397 19.9592 18.0397 18.3517V15.6104H30.6702C31.215 17.2462 32.6462 18.4806 34.3919 18.74V23.4985C34.3919 26.2916 36.0886 28.6956 38.5056 29.7347L21.5043 49.5857C19.5443 51.8745 19.5229 55.2154 21.4531 57.5287L23.7305 60.257C21.5706 60.8269 19.9738 62.796 19.9738 65.1314V67.5072C19.9738 70.1981 22.0932 72.4037 24.7513 72.5411V96.9666C24.7513 98.5863 26.0682 99.9032 27.6879 99.9032H70.6697C72.2887 99.9032 73.6063 98.5863 73.6063 96.9666V72.5411C76.2636 72.4037 78.3838 70.1981 78.3838 67.5072V65.1314C78.3838 62.796 76.7862 60.8269 74.6271 60.257L76.9037 57.5287C78.8347 55.2154 78.8126 51.8745 76.8526 49.5857L59.9839 29.8889C62.6077 28.9504 64.4906 26.4404 64.4906 23.4985V18.74C66.237 18.4806 67.6675 17.2462 68.213 15.6104H81.5698V18.3517C81.5698 19.9592 82.8783 21.2676 84.4858 21.2676H90.1422C91.7505 21.2676 93.059 19.9592 93.059 18.3517V14.1448C93.059 12.5373 91.7505 11.2288 90.1422 11.2288H88.7796V7.90318H98.3393C99.1488 7.90318 99.8049 7.24782 99.8049 6.43834C99.8049 5.62962 99.1488 4.97349 98.34 4.97349ZM11.0764 4.34406C11.0764 3.67191 11.6234 3.12488 12.2948 3.12488C12.9669 3.12488 13.514 3.67191 13.514 4.34406V4.97349H11.0764V4.34406ZM43.3473 7.53011C43.3473 6.70537 44.0186 6.03474 44.8426 6.03474H54.0399C54.8646 6.03474 55.5352 6.70537 55.5352 7.53011V9.50002H43.3473V7.53011ZM15.1093 18.3372H9.48107V14.1593H15.1093V18.3372ZM22.9035 67.5072V65.1314C22.9035 64.0572 23.7114 63.1668 24.7513 63.0371V69.6015C23.7114 69.471 22.9035 68.5814 22.9035 67.5072ZM27.6818 96.9666V57.9407H30.671C31.4805 57.9407 32.1358 57.2845 32.1358 56.4758C32.1358 55.6663 31.4805 55.011 30.671 55.011H28.7949L31.7231 50.0961H43.6494L42.875 55.011H37.1491C36.3404 55.011 35.6843 55.6663 35.6843 56.4758C35.6843 57.2845 36.3404 57.9407 37.1491 57.9407H42.6629V72.0055C42.6629 72.5594 42.9757 73.066 43.4709 73.3147C43.9652 73.5634 44.5588 73.5115 45.0036 73.1804L49.508 69.8242L54.0124 73.1804C54.2703 73.3727 54.5777 73.4703 54.8875 73.4703C55.1118 73.4703 55.3369 73.4192 55.5444 73.3147C56.0395 73.066 56.3523 72.5594 56.3523 72.0055V57.9407H70.6766L70.6697 96.9735L27.6818 96.9666ZM45.5926 57.9407H53.4219V69.0872L50.3823 66.8221C50.1229 66.6283 49.8155 66.5321 49.5072 66.5321C49.1998 66.5321 48.8915 66.6283 48.6321 66.8221L45.5926 69.0872V57.9407ZM56.1181 55.011L55.2598 50.0961H66.6513L69.568 55.011H56.1181ZM53.1442 55.011H45.8413L46.6157 50.0961H52.2859L53.1442 55.011ZM75.4541 65.1314V67.5072C75.4541 68.5814 74.6461 69.471 73.6063 69.6015V63.0371C74.6461 63.1676 75.4541 64.0572 75.4541 65.1314ZM74.6538 55.6518L73.6063 56.9069V56.4758C73.6063 56.2172 73.5338 55.9494 73.401 55.7281L69.0767 48.4421C68.6098 47.6555 67.7507 47.1664 66.8359 47.1664H31.5392C30.626 47.1664 29.7684 47.6539 29.3007 48.4382L24.9581 55.7258C24.8253 55.9502 24.7513 56.2157 24.7513 56.4758V56.9076L23.7038 55.6518C22.6922 54.4403 22.7036 52.6909 23.7305 51.4915L41.8931 30.2841H56.4645L74.6278 51.4915C75.654 52.6901 75.6654 54.4395 74.6538 55.6518ZM63.8055 15.8607H59.7398C58.9311 15.8607 58.275 16.5168 58.275 17.3255C58.275 18.135 58.9311 18.7903 59.7398 18.7903H61.5602V23.4985C61.5602 25.624 59.8314 27.3536 57.7058 27.3536H41.1767C39.0519 27.3536 37.3223 25.624 37.3223 23.4985V18.7903H52.8466C53.6561 18.7903 54.3122 18.135 54.3122 17.3255C54.3122 16.5168 53.6561 15.8607 52.8466 15.8607H35.077C34.1332 15.8607 33.3649 15.0931 33.3626 14.1486C33.3626 14.1479 33.3626 14.1463 33.3626 14.1448C33.3626 14.144 33.3626 14.1425 33.3626 14.141C33.3649 13.1972 34.1332 12.4297 35.077 12.4297H63.8055C64.7485 12.4297 65.5153 13.1942 65.5198 14.1356V14.1448V14.1547C65.5153 15.0962 64.7485 15.8607 63.8055 15.8607ZM90.1285 18.3372H84.5003V14.1593H90.1285V18.3372ZM86.0948 4.34406C86.0948 3.67191 86.6419 3.12488 87.314 3.12488C87.9862 3.12488 88.5332 3.67191 88.5332 4.34406V4.97349H86.0948V4.34406Z" fill="#2C0400"/>
</g>
<defs>
<clipPath id="clip0_12_1263">
<rect width="100" height="100" fill="white"/>
</clipPath>
</defs>
</svg>
