<svg width="100" height="100" viewBox="0 0 100 100" fill="none" xmlns="http://www.w3.org/2000/svg">
<g clip-path="url(#clip0_3090_44545)">
<path d="M91.0274 49.1979C92.3615 49.0616 93.3329 47.8715 93.1966 46.5396C91.1197 26.0231 75.2604 10.1759 55.3318 7.6649L55.8604 5.60446C56.1626 4.41325 55.8988 3.13083 55.1527 2.17369C54.4417 1.25831 53.3845 0.736328 52.2483 0.736328H47.3593C46.1911 0.736328 45.112 1.28578 44.401 2.24402C43.6571 3.24732 43.4318 4.566 43.7955 5.77149L44.3615 7.65061C24.2988 10.1275 8.38455 26.0803 6.38784 46.7341C6.25927 48.0682 7.23509 49.2539 8.56916 49.3858C8.64828 49.3924 8.7274 49.3946 8.80652 49.3946C10.0428 49.3946 11.0977 48.4572 11.2197 47.2012C13.1516 27.2078 29.7395 12.1286 49.801 12.1286C69.7714 12.1286 86.3494 27.1308 88.367 47.0253C88.5032 48.3605 89.6966 49.3286 91.0274 49.1979ZM48.8109 5.58798H50.8516L50.4131 7.30446C50.2076 7.30226 50.0076 7.27589 49.801 7.27589C49.6395 7.27589 49.4845 7.29567 49.3241 7.29787L48.8109 5.58798Z" fill="#EB1400"/>
<path d="M97.2725 52.011H92.8934H6.70988H2.95714C1.61867 52.011 0.530762 53.0989 0.530762 54.4385C0.530762 55.778 1.61867 56.8659 2.95714 56.8659H4.64065C5.71758 60.8758 9.35054 63.8516 13.6989 63.8516H22.9439C25.9648 67.5319 34.9571 78.4286 34.9571 78.4286C35.0187 78.5 35.0835 78.5703 35.1538 78.6385L49.4132 92.2429L50.8494 93.4901L48.9044 94.8407C47.8055 95.6066 47.5319 97.122 48.2978 98.2187C48.7703 98.8989 49.5264 99.2637 50.2912 99.2637C50.7725 99.2637 51.2549 99.1209 51.6769 98.8275L70.4308 85.7088L77.1121 91.9835C77.5813 92.4253 78.1791 92.6428 78.7758 92.6428C79.4209 92.6428 80.067 92.3868 80.5439 91.8791C81.4615 90.9 81.4132 89.3637 80.4385 88.4483L72.1044 80.6176C71.3428 79.9044 70.2516 79.8033 69.3637 80.2483C69.0077 79.089 68.9637 77.8582 69.278 76.6615C69.7846 74.7407 70.7527 72.9429 72.0747 71.4681L77.6165 65.2989C77.9802 64.8956 78.189 64.3835 78.2275 63.8527H85.9088C90.2549 63.8527 93.8857 60.8769 94.9626 56.867H97.2725C98.6143 56.867 99.7 55.7791 99.7 54.4396C99.7 53.1 98.6132 52.011 97.2725 52.011ZM68.4637 68.2264C66.6286 70.2714 65.2846 72.7582 64.5835 75.4253C63.878 78.1121 64.1659 80.9088 65.3857 83.3802L54.9604 90.633L52.6824 88.6571L38.6099 75.2253C37.867 74.3286 32.7912 68.1736 29.233 63.8516H32.8593C32.8593 63.8516 41.0703 70.8615 41.1319 70.9055C43.8736 72.8396 50.1659 74.5604 53.1978 74.5604C57.4923 74.5604 61.6418 72.7494 64.5824 69.5923C65.567 68.5363 66.4747 67.6011 67.1802 66.8813C68.3703 65.667 69.6747 64.7824 71.0538 64.2483C71.5791 64.0483 72.011 63.9363 72.3582 63.8835L68.4637 68.2264ZM61.0363 66.2802C59.0077 68.4582 56.1505 69.7066 53.1978 69.7066C50.8857 69.7066 45.8121 68.2011 44.0088 66.9934L40.3319 63.8516H63.3527C62.6868 64.5396 61.9044 65.3494 61.0363 66.2802ZM85.9088 58.9989H72.833C72.7978 58.9989 72.7615 58.9989 72.7231 58.9989H13.6989C12.0769 58.9989 10.6483 58.1462 9.84065 56.8659H89.7626C88.9549 58.1462 87.5308 58.9989 85.9088 58.9989Z" fill="#EB1400"/>
<path d="M78.5969 40.711C79.8771 40.3143 80.5914 38.9527 80.1925 37.6736C75.6672 23.1428 62.8441 18.9527 62.3002 18.7791C61.0288 18.3846 59.6672 19.0846 59.2617 20.3593C58.8562 21.6318 59.5595 22.9978 60.8332 23.4077C61.2793 23.5527 71.8079 27.0758 75.5562 39.1143C75.8815 40.1549 76.8386 40.8219 77.8738 40.8219C78.1145 40.823 78.3584 40.7857 78.5969 40.711Z" fill="#EB1400"/>
</g>
<defs>
<clipPath id="clip0_3090_44545">
<rect width="100" height="100" fill="white"/>
</clipPath>
</defs>
</svg>
