<svg width="100" height="100" viewBox="0 0 100 100" fill="none" xmlns="http://www.w3.org/2000/svg">
<path d="M13.5682 75.405L16.1303 47.2185H13.4529C12.7146 47.2185 11.9834 47.0731 11.3012 46.7905C10.6191 46.5079 9.99924 46.0938 9.47713 45.5717C8.95502 45.0496 8.54086 44.4297 8.25829 43.7475C7.97572 43.0654 7.83029 42.3342 7.83029 41.5958C7.83029 40.8575 7.97572 40.1263 8.25829 39.4442C8.54086 38.762 8.95502 38.1421 9.47713 37.62C9.99924 37.0979 10.6191 36.6838 11.3012 36.4012C11.9834 36.1186 12.7146 35.9732 13.4529 35.9732H17.6699C17.676 35.9732 17.6811 35.9767 17.6871 35.9767C17.6932 35.9767 17.6985 35.9738 17.7049 35.974C19.1055 35.9778 20.4531 36.51 21.4783 37.4642C22.1776 36.6025 23.2485 35.9976 24.6981 35.9732H36.4498C35.7313 34.1111 35.3672 31.7818 36.1994 29.6349C36.1133 29.6367 36.0297 29.6478 35.9434 29.6478C35.5704 29.6478 35.2127 29.4996 34.949 29.2359C34.6853 28.9722 34.5371 28.6145 34.5371 28.2416V28.1453C29.7668 27.5492 26.6201 23.8998 26.1651 18.4021H23.2918C23.1038 18.4075 22.9166 18.3752 22.7413 18.307C22.566 18.2388 22.4062 18.1361 22.2713 18.0051C22.1364 17.874 22.0292 17.7172 21.9559 17.5439C21.8827 17.3707 21.845 17.1845 21.845 16.9964C21.845 16.8083 21.8827 16.6222 21.9559 16.4489C22.0292 16.2757 22.1364 16.1189 22.2713 15.9878C22.4062 15.8568 22.566 15.7541 22.7413 15.6859C22.9166 15.6177 23.1038 15.5853 23.2918 15.5908H24.2223C25.4699 8.67671 31.2192 5.67007 36.3133 5.83022C41.7205 6.00034 47.6498 9.77397 47.8908 17.6992C47.891 20.3816 46.9833 22.985 45.3155 25.0859C50.792 29.2611 59.7356 37.5351 59.8301 47.0671C59.8301 47.0685 59.8301 47.0695 59.8313 47.071C59.8324 47.0726 59.8313 47.0751 59.8313 47.0775C59.8313 47.1246 59.8395 47.1707 59.8395 47.2179V50.0292C59.8397 51.3395 59.5773 52.6365 59.0677 53.8437C58.5582 55.0508 57.8119 56.1436 56.8729 57.0574H62.6506V43.0015C62.6506 42.6286 62.7988 42.2709 63.0625 42.0071C63.3262 41.7434 63.6839 41.5953 64.0569 41.5953H80.9242C81.2972 41.5953 81.6549 41.7434 81.9186 42.0071C82.1823 42.2709 82.3305 42.6286 82.3305 43.0015V57.058H85.141C85.5068 57.0685 85.8541 57.2212 86.1091 57.4837C86.3641 57.7462 86.5067 58.0977 86.5067 58.4636C86.5067 58.8296 86.3641 59.1811 86.1091 59.4435C85.8541 59.706 85.5068 59.8587 85.141 59.8693H73.5104C73.8254 60.8591 73.739 61.933 73.2699 62.8597C72.8346 63.7244 72.2739 64.5201 71.6061 65.221L73.8824 71.2929L73.9254 71.2759C74.5002 71.0412 75.1168 70.9259 75.7376 70.9371C76.3584 70.9482 76.9704 71.0856 77.5364 71.3409C78.1024 71.5961 78.6106 71.9638 79.0299 72.4217C79.4493 72.8795 79.7711 73.418 79.9758 74.0042C80.1804 74.5903 80.2636 75.2121 80.2204 75.8314C80.1771 76.4508 80.0082 77.0549 79.7241 77.607C79.4399 78.159 79.0464 78.6474 78.5674 79.0426C78.0885 79.4377 77.5341 79.7312 76.9381 79.9052C77.1533 81.2729 76.9552 82.6737 76.3692 83.9281C75.7832 85.1825 74.8359 86.2333 73.6489 86.9458C73.3656 92.9353 68.7774 96.2037 64.1606 96.3421C64.0571 96.3456 63.9541 96.347 63.8504 96.347C59.442 96.347 54.9733 93.5169 54.1516 87.9824H24.5764C23.7723 93.7124 19.1272 96.3429 14.8592 96.3429H14.8578C10.5895 96.3429 5.94318 93.7105 5.14045 87.9824H5.01896C4.646 87.9824 4.28831 87.8342 4.0246 87.5705C3.76087 87.3068 3.61272 86.9491 3.61272 86.5761C3.61642 83.8181 4.63205 81.1573 6.46703 79.0982C8.30201 77.0392 10.8288 75.7251 13.5682 75.405ZM76.1084 77.2298C76.3396 77.1646 76.5552 77.053 76.7418 76.9018C76.9285 76.7506 77.0824 76.5629 77.1942 76.3502C77.3059 76.1376 77.3732 75.9044 77.3918 75.6648C77.4105 75.4253 77.3802 75.1845 77.3027 74.9571C77.2252 74.7297 77.1022 74.5205 76.9412 74.3421C76.7802 74.1638 76.5846 74.0202 76.3663 73.92C76.1479 73.8197 75.9115 73.7651 75.6713 73.7592C75.4311 73.7534 75.1923 73.7966 74.9694 73.8861L74.8697 73.9251L76.1084 77.2298ZM17.6393 38.7845H13.457C13.0879 38.7843 12.7222 38.8568 12.3811 38.9979C12.0399 39.139 11.7299 39.3459 11.4687 39.6068C11.2074 39.8677 11.0002 40.1775 10.8587 40.5185C10.7172 40.8595 10.6443 41.225 10.6441 41.5942C10.6438 41.9634 10.7163 42.329 10.8574 42.6702C10.9985 43.0113 11.2054 43.3214 11.4663 43.5826C11.7272 43.8438 12.037 44.0511 12.378 44.1925C12.719 44.334 13.0845 44.407 13.4537 44.4072H17.6563C19.7049 44.3429 20.4346 42.8564 20.4346 41.5966C20.4352 40.333 19.7024 38.8396 17.6393 38.7845ZM34.5377 25.3101V18.4027H28.9885C29.2449 20.9689 30.3617 24.6339 34.5377 25.3101ZM36.2254 8.64058C32.3533 8.50073 28.2371 10.6451 27.099 15.5914H35.9434C36.3163 15.5914 36.674 15.7395 36.9377 16.0032C37.2015 16.267 37.3496 16.6246 37.3496 16.9976V26.7294C39.4962 26.3951 41.4535 25.3069 42.8704 23.66C44.2873 22.0132 45.0711 19.9154 45.0813 17.7429C44.8947 11.6421 40.4992 8.77515 36.2254 8.64058ZM43.4473 27.1953C43.4074 27.1556 43.3701 27.1134 43.3356 27.0689C42.3141 27.8752 41.1675 28.5091 39.9414 28.9453C39.8898 29.0505 39.8246 29.1486 39.7477 29.2371C37.7787 31.2048 38.6037 34.2113 39.5328 35.9736H42.9703C43.3361 35.9841 43.6834 36.1369 43.9384 36.3993C44.1933 36.6618 44.336 37.0133 44.336 37.3792C44.336 37.7452 44.1933 38.0967 43.9384 38.3592C43.6834 38.6216 43.3361 38.7743 42.9703 38.7849H24.7209C23.3983 38.807 23.3311 39.9601 23.3311 40.1912C23.3311 40.4222 23.3983 41.5742 24.6969 41.596H45.7828C46.1486 41.6066 46.4959 41.7593 46.7509 42.0218C47.0059 42.2843 47.1485 42.6358 47.1485 43.0017C47.1485 43.3676 47.0059 43.7192 46.7509 43.9816C46.4959 44.2441 46.1486 44.3968 45.7828 44.4074H42.9297C43.4962 45.4116 44.1619 46.3565 44.917 47.2279L56.9453 45.9619C56.1117 37.6585 47.3348 30.138 43.4473 27.1949V27.1953ZM36.9385 48.0679L41.6211 47.5746C40.914 46.5725 40.292 45.513 39.7617 44.4072H27.6524L25.6131 65.8021C25.506 67.0153 25.6547 68.2374 26.0497 69.3894C26.4447 70.5415 27.0771 71.5978 27.9061 72.49C28.1445 72.7466 28.3977 72.9892 28.6643 73.2164C29.9172 72.5781 31.6643 71.2632 31.4963 68.8929L30.659 55.4958C30.542 53.686 31.1307 51.9011 32.3016 50.516C33.4724 49.131 35.1344 48.2534 36.9385 48.0675V48.0679ZM57.0281 50.0298V48.7798L37.233 50.8634C36.1507 50.975 35.1536 51.5015 34.4512 52.3325C33.7487 53.1635 33.3955 54.2342 33.4656 55.3201L34.3022 68.7052C34.4742 71.1335 33.4195 73.2902 31.4115 74.8126C32.3651 75.1551 33.3705 75.3306 34.3836 75.3314H34.3953C35.5981 75.3298 36.7878 75.0813 37.8906 74.6013C38.9935 74.1213 39.986 73.4199 40.8068 72.5407C41.6276 71.6615 42.2591 70.6231 42.6623 69.4899C43.0654 68.3567 43.2316 67.1527 43.1506 65.9527C41.6979 64.7857 40.7134 63.1351 40.3772 61.3023C40.3638 61.2236 40.3573 61.1439 40.3576 61.064C40.3677 60.069 40.7435 59.1124 41.4135 58.3766C42.0834 57.6409 43.0007 57.1773 43.9904 57.0744C44.2285 57.0593 44.4983 57.0578 44.7846 57.0578H50C51.8633 57.0556 53.6496 56.3145 54.9672 54.9969C56.2847 53.6794 57.0259 51.8931 57.0281 50.0298ZM44.7852 59.8693C44.5627 59.8693 44.3569 59.8693 44.2278 59.8755C43.9541 59.908 43.7 60.0335 43.508 60.2311C43.3159 60.4286 43.1977 60.6863 43.1731 60.9607C43.4332 62.2349 44.2473 63.273 45.294 64.0419C45.3305 64.0673 45.3633 64.0931 45.3973 64.1218C46.6271 64.9876 48.0882 65.4648 49.592 65.4919H64.4641C65.7701 65.4864 67.0492 65.1198 68.1598 64.4326C69.2705 63.7454 70.1694 62.7645 70.7572 61.5982C70.848 61.4163 70.8909 61.2143 70.8819 61.0113C70.8729 60.8082 70.8122 60.6108 70.7056 60.4377C70.599 60.2647 70.4501 60.1216 70.2728 60.0222C70.0956 59.9227 69.8959 59.8701 69.6926 59.8693H44.7852ZM79.5186 57.058V44.4072H65.4619V57.058H79.5186ZM64.0762 93.5322C67.084 93.4416 70.0739 91.6662 70.7285 87.9378C70.4864 87.9653 70.2431 87.9802 69.9994 87.9824H57.0071C57.791 91.9042 61.0547 93.6386 64.0762 93.5322ZM14.8586 93.5322C17.886 93.5322 20.9719 91.7923 21.7102 87.983H8.00587C8.74279 91.7912 11.8305 93.531 14.8586 93.5316V93.5322ZM70 85.171C70.6814 85.171 71.3525 85.0059 71.9561 84.6898C72.5597 84.3737 73.0777 83.916 73.4657 83.356C73.8538 82.796 74.1004 82.1502 74.1843 81.4741C74.2683 80.7979 74.1872 80.1115 73.9479 79.4736L69.2768 67.0162C67.8111 67.8543 66.1531 68.2978 64.4647 68.3033H49.5899C48.3395 68.2915 47.1021 68.0487 45.9401 67.5871C45.6779 70.4687 44.3489 73.1485 42.2136 75.1012C40.0782 77.0538 37.2906 78.1386 34.3971 78.1427H34.3821C31.9986 78.1387 29.6739 77.4032 27.7219 76.0355C27.7024 76.0232 27.6828 76.0121 27.6633 75.9988C26.0138 74.8319 24.6982 73.2538 23.8473 71.4213C22.9964 69.5887 22.6396 67.5654 22.8125 65.5523L24.8293 44.4072H24.674C24.0017 44.4015 23.3397 44.2411 22.7393 43.9384C22.4089 44.7249 21.8934 45.42 21.2368 45.9645C20.5801 46.509 19.8016 46.8869 18.9676 47.066L16.2586 76.8644C16.2267 77.2137 16.0655 77.5385 15.8065 77.7751C15.5474 78.0116 15.2094 78.1428 14.8586 78.1429C12.8674 78.1463 10.9415 78.8536 9.42133 80.1398C7.90119 81.4259 6.88472 83.2081 6.55158 85.1712L70 85.171ZM85.141 54.2468C85.141 54.6198 85.2892 54.9775 85.5529 55.2412C85.8166 55.5049 86.1743 55.6531 86.5473 55.6531H90.1612C90.5269 55.6425 90.8742 55.4898 91.1292 55.2273C91.3842 54.9649 91.5268 54.6133 91.5268 54.2474C91.5268 53.8815 91.3842 53.53 91.1292 53.2675C90.8742 53.005 90.5269 52.8523 90.1612 52.8417H86.5467C86.174 52.8419 85.8167 52.99 85.5531 53.2534C85.2896 53.5169 85.1413 53.8742 85.141 54.2468ZM85.141 48.6242C85.141 48.9971 85.2892 49.3548 85.5529 49.6185C85.8166 49.8823 86.1743 50.0304 86.5473 50.0304H92.5709C92.7589 50.0358 92.9461 50.0035 93.1214 49.9353C93.2967 49.8671 93.4565 49.7644 93.5914 49.6334C93.7263 49.5023 93.8336 49.3455 93.9068 49.1723C93.98 48.999 94.0178 48.8128 94.0178 48.6248C94.0178 48.4367 93.98 48.2505 93.9068 48.0772C93.8336 47.904 93.7263 47.7472 93.5914 47.6161C93.4565 47.4851 93.2967 47.3824 93.1214 47.3142C92.9461 47.246 92.7589 47.2137 92.5709 47.2191H86.5467C86.174 47.2192 85.8167 47.3673 85.5531 47.6308C85.2896 47.8942 85.1413 48.2515 85.141 48.6242ZM96.3867 43.0015C96.3867 42.6286 96.2386 42.2709 95.9749 42.0071C95.7111 41.7434 95.3535 41.5953 94.9805 41.5953H86.5467C86.1809 41.6058 85.8337 41.7585 85.5787 42.021C85.3237 42.2835 85.181 42.635 85.181 43.0009C85.181 43.3669 85.3237 43.7184 85.5787 43.9808C85.8337 44.2433 86.1809 44.396 86.5467 44.4066H94.9805C95.3533 44.4066 95.7108 44.2586 95.9744 43.9951C96.2381 43.7317 96.3864 43.3743 96.3867 43.0015ZM54.2168 71.1146H59.8395C60.9575 71.1158 62.0294 71.5605 62.8199 72.3511C63.6104 73.1417 64.0551 74.2136 64.0563 75.3316V79.5484C64.0563 79.9213 63.9081 80.279 63.6444 80.5428C63.3807 80.8065 63.023 80.9546 62.65 80.9546H51.4063C51.0333 80.9546 50.6756 80.8065 50.4119 80.5428C50.1482 80.279 50 79.9213 50 79.5484V75.332C50.0012 74.2139 50.4458 73.142 51.2363 72.3513C52.0269 71.5607 53.0988 71.1159 54.2168 71.1146ZM52.8106 78.1427H61.2449V75.332C61.2446 74.9591 61.0964 74.6016 60.8327 74.338C60.5691 74.0743 60.2116 73.926 59.8387 73.9257H54.2168C53.844 73.926 53.4865 74.0743 53.2228 74.338C52.9591 74.6016 52.8109 74.9591 52.8106 75.332V78.1427ZM78.6207 35.9437L73.3338 39.9085C73.1249 40.065 72.8767 40.1602 72.6167 40.1836C72.3568 40.2069 72.0955 40.1575 71.8621 40.0408C71.6287 39.9242 71.4323 39.7448 71.295 39.5229C71.1577 39.301 71.0848 39.0453 71.0846 38.7843V33.7097C65.9334 30.7673 62.6506 25.3994 62.6506 19.8083C62.6506 11.0462 70.3748 3.64331 79.5186 3.64331C88.6623 3.64331 96.3867 11.0462 96.3867 19.7966C96.4217 24.0671 94.4766 28.3142 91.0502 31.4488C87.6037 34.6013 83.091 36.2292 78.6207 35.9437ZM79.5192 6.45464C71.8998 6.45464 65.4625 12.5701 65.4625 19.8083C65.4625 24.6238 68.4703 29.2587 73.1256 31.6169C73.3574 31.7343 73.5522 31.9137 73.6883 32.1351C73.8243 32.3564 73.8964 32.6112 73.8965 32.871V35.9732L77.3592 33.3755C77.6025 33.193 77.8984 33.0942 78.2026 33.0941C78.2482 33.094 78.2939 33.0963 78.3393 33.1009C82.2131 33.472 86.1518 32.1189 89.1528 29.3734C91.9922 26.7773 93.6039 23.2943 93.5742 19.8083C93.5742 12.5701 87.1377 6.45464 79.5186 6.45464H79.5192ZM86.543 27.539H72.4932C71.7474 27.5386 71.0322 27.2424 70.5046 26.7153C69.9769 26.1883 69.6798 25.4735 69.6785 24.7277V23.3214C69.3128 23.3109 68.9655 23.1581 68.7105 22.8957C68.4555 22.6332 68.3129 22.2817 68.3129 21.9158C68.3129 21.5498 68.4555 21.1983 68.7105 20.9359C68.9655 20.6734 69.3128 20.5207 69.6785 20.5101C69.6785 14.8085 73.8166 10.6707 79.5182 10.6707C85.2198 10.6707 89.358 14.8095 89.358 20.5111C89.546 20.5057 89.7332 20.538 89.9085 20.6062C90.0838 20.6744 90.2436 20.7771 90.3785 20.9081C90.5134 21.0392 90.6207 21.196 90.6939 21.3692C90.7671 21.5425 90.8049 21.7287 90.8049 21.9167C90.8049 22.1048 90.7671 22.291 90.6939 22.4643C90.6207 22.6375 90.5134 22.7943 90.3785 22.9254C90.2436 23.0564 90.0838 23.1591 89.9085 23.2273C89.7332 23.2955 89.546 23.3278 89.358 23.3224V24.7287C89.3565 25.4743 89.0592 26.189 88.5315 26.7158C88.0038 27.2427 87.2887 27.5387 86.543 27.539ZM79.5182 13.4826C75.7514 13.4826 73.0449 15.8904 72.5846 19.4414C73.4348 19.1473 74.3394 19.0442 75.234 19.1395C76.1286 19.2348 76.9911 19.526 77.7604 19.9925C78.3073 20.305 78.6678 20.5107 79.5258 20.5107C80.3838 20.5107 80.7412 20.3048 81.2862 19.9933C82.2278 19.3923 83.3262 19.0834 84.443 19.1054C85.1272 19.0946 85.8077 19.2076 86.4516 19.439C85.9907 15.8896 83.2844 13.483 79.5186 13.483L79.5182 13.4826ZM86.5467 22.622C86.4305 22.5587 86.3092 22.4951 86.203 22.4343C85.6586 22.1218 85.2983 21.9167 84.443 21.9167C83.5877 21.9167 83.2276 22.1226 82.6832 22.4343C81.7417 23.0351 80.6435 23.3441 79.5268 23.3224C78.4091 23.3446 77.3098 23.0358 76.3672 22.4349C75.8203 22.1224 75.4598 21.9167 74.6018 21.9167C73.7438 21.9167 73.3828 22.1226 72.8365 22.4349C72.7297 22.496 72.6078 22.5599 72.491 22.6234L72.4926 24.7281H86.5467V22.622Z" fill="#3F9065"/>
</svg>
