<svg width="100" height="100" viewBox="0 0 100 100" fill="none" xmlns="http://www.w3.org/2000/svg">
<path d="M17.1875 10.9375C18.9134 10.9375 20.3125 9.53839 20.3125 7.8125C20.3125 6.08661 18.9134 4.6875 17.1875 4.6875C15.4616 4.6875 14.0625 6.08661 14.0625 7.8125C14.0625 9.53839 15.4616 10.9375 17.1875 10.9375Z" fill="#7A838B"/>
<path d="M17.1875 35.9375H82.8125C84.4701 35.9375 86.0598 36.596 87.2319 37.7681C88.404 38.9402 89.0625 40.5299 89.0625 42.1875V85.9375H10.9375V42.1875C10.9375 40.5299 11.596 38.9402 12.7681 37.7681C13.9402 36.596 15.5299 35.9375 17.1875 35.9375Z" fill="#D6E4E8"/>
<path d="M81.25 95.3125C89.0165 95.3125 95.3125 89.0165 95.3125 81.25C95.3125 73.4835 89.0165 67.1875 81.25 67.1875C73.4835 67.1875 67.1875 73.4835 67.1875 81.25C67.1875 89.0165 73.4835 95.3125 81.25 95.3125Z" fill="#7A838B"/>
<path d="M81.25 89.0625C85.5647 89.0625 89.0625 85.5647 89.0625 81.25C89.0625 76.9353 85.5647 73.4375 81.25 73.4375C76.9353 73.4375 73.4375 76.9353 73.4375 81.25C73.4375 85.5647 76.9353 89.0625 81.25 89.0625Z" fill="#D6E4E8"/>
<path d="M18.75 95.3125C26.5165 95.3125 32.8125 89.0165 32.8125 81.25C32.8125 73.4835 26.5165 67.1875 18.75 67.1875C10.9835 67.1875 4.6875 73.4835 4.6875 81.25C4.6875 89.0165 10.9835 95.3125 18.75 95.3125Z" fill="#7A838B"/>
<path d="M18.75 89.0625C23.0647 89.0625 26.5625 85.5647 26.5625 81.25C26.5625 76.9353 23.0647 73.4375 18.75 73.4375C14.4353 73.4375 10.9375 76.9353 10.9375 81.25C10.9375 85.5647 14.4353 89.0625 18.75 89.0625Z" fill="#D6E4E8"/>
<path d="M82.8125 35.9375H17.1875C15.5299 35.9375 13.9402 36.596 12.7681 37.7681C11.596 38.9402 10.9375 40.5299 10.9375 42.1875V45.3125H60.9375L75 51.5625H89.0625V42.1875C89.0625 40.5299 88.404 38.9402 87.2319 37.7681C86.0598 36.596 84.4701 35.9375 82.8125 35.9375Z" fill="#7A838B"/>
<path d="M37.5 51.5625H62.5V76.5625H37.5V51.5625Z" fill="#FCBE42"/>
<path d="M45.3125 51.5625H54.6875V64.0625H45.3125V51.5625Z" fill="#F7B237"/>
<path d="M90.625 68.7797V42.1875C90.6226 40.1163 89.7987 38.1306 88.3341 36.666C86.8695 35.2014 84.8838 34.3775 82.8125 34.375H18.75V12.2125C19.7926 11.8439 20.6712 11.1187 21.2307 10.1649C21.7902 9.21112 21.9945 8.09026 21.8075 7.00043C21.6205 5.91059 21.0543 4.92194 20.2089 4.20922C19.3635 3.4965 18.2933 3.10559 17.1875 3.10559C16.0818 3.10559 15.0116 3.4965 14.1662 4.20922C13.3208 4.92194 12.7545 5.91059 12.5675 7.00043C12.3806 8.09026 12.5849 9.21112 13.1444 10.1649C13.7039 11.1187 14.5825 11.8439 15.625 12.2125V34.5313C13.8616 34.8939 12.2771 35.8534 11.1387 37.2481C10.0002 38.6427 9.37731 40.3872 9.37504 42.1875V68.7797C7.46475 70.2146 5.9093 72.0688 4.82849 74.1995C3.74767 76.3302 3.17034 78.6806 3.14095 81.0696C3.11156 83.4586 3.63091 85.8224 4.65898 87.9791C5.68705 90.1357 7.19642 92.0277 9.07083 93.5091C10.9452 94.9906 13.1347 96.022 15.4705 96.524C17.8063 97.0261 20.2262 96.9852 22.5438 96.4047C24.8614 95.8242 27.0148 94.7195 28.8381 93.1757C30.6615 91.6319 32.1062 89.6901 33.061 87.5H66.9391C67.8922 89.6932 69.3364 91.6382 71.1601 93.1851C72.9839 94.7319 75.1385 95.8391 77.4579 96.4215C79.7773 97.0039 82.1995 97.0458 84.5376 96.5439C86.8757 96.0421 89.0674 95.01 90.9435 93.5272C92.8197 92.0444 94.3302 90.1505 95.3586 87.9915C96.387 85.8326 96.9059 83.4662 96.8751 81.0751C96.8443 78.6839 96.2648 76.3317 95.1811 74.1999C94.0975 72.0682 92.5387 70.2138 90.625 68.7797ZM17.1875 6.25001C17.4966 6.25001 17.7987 6.34165 18.0556 6.51334C18.3126 6.68503 18.5128 6.92906 18.6311 7.21457C18.7494 7.50007 18.7803 7.81424 18.72 8.11734C18.6597 8.42043 18.5109 8.69884 18.2924 8.91736C18.0739 9.13588 17.7955 9.2847 17.4924 9.34499C17.1893 9.40527 16.8751 9.37433 16.5896 9.25607C16.3041 9.13781 16.0601 8.93754 15.8884 8.68059C15.7167 8.42363 15.625 8.12154 15.625 7.81251C15.625 7.39811 15.7897 7.00068 16.0827 6.70765C16.3757 6.41463 16.7731 6.25001 17.1875 6.25001ZM18.75 93.75C16.2778 93.75 13.861 93.0169 11.8054 91.6434C9.7498 90.2699 8.14764 88.3176 7.20154 86.0336C6.25545 83.7495 6.00791 81.2361 6.49022 78.8114C6.97254 76.3866 8.16305 74.1593 9.9112 72.4112C11.6594 70.663 13.8866 69.4725 16.3114 68.9902C18.7362 68.5079 21.2495 68.7554 23.5336 69.7015C25.8177 70.6476 27.7699 72.2498 29.1434 74.3054C30.5169 76.361 31.25 78.7777 31.25 81.25C31.2463 84.5641 29.9282 87.7413 27.5848 90.0847C25.2414 92.4281 22.0641 93.7463 18.75 93.75ZM34.0625 84.375C34.6388 81.5709 34.4329 78.6623 33.4673 75.9674C32.5017 73.2725 30.8135 70.895 28.5875 69.095C26.3615 67.295 23.6834 66.1418 20.846 65.7616C18.0087 65.3813 15.1214 65.7887 12.5 66.9391V46.875H60.6063L61.8657 47.4344C62.0646 47.5239 62.2803 47.5702 62.4985 47.5703C62.8574 47.5716 63.2058 47.4493 63.4852 47.2239C63.7645 46.9985 63.9578 46.6838 64.0324 46.3327C64.107 45.9816 64.0585 45.6155 63.8949 45.2959C63.7314 44.9764 63.4628 44.7229 63.1344 44.5781L61.5719 43.8844C61.3722 43.7957 61.1561 43.7499 60.9375 43.75H12.5V42.1875C12.5 40.9443 12.9939 39.752 13.873 38.8729C14.7521 37.9939 15.9443 37.5 17.1875 37.5H82.8125C84.0557 37.5 85.248 37.9939 86.1271 38.8729C87.0062 39.752 87.5 40.9443 87.5 42.1875V50H75.3313L69.3844 47.3578C69.196 47.2681 68.9916 47.2171 68.7832 47.2077C68.5748 47.1983 68.3666 47.2307 68.1709 47.303C67.9753 47.3754 67.796 47.4862 67.6439 47.6289C67.4917 47.7716 67.3697 47.9434 67.2849 48.134C67.2002 48.3246 67.1545 48.5303 67.1505 48.7389C67.1466 48.9475 67.1844 49.1548 67.2618 49.3485C67.3393 49.5422 67.4547 49.7185 67.6014 49.8669C67.748 50.0153 67.9229 50.1328 68.1157 50.2125L74.3657 52.9906C74.5654 53.0793 74.7815 53.1251 75 53.125H87.5V66.9391C84.8785 65.7946 81.9931 65.3918 79.1584 65.7745C76.3236 66.1572 73.6483 67.3106 71.4241 69.1092C69.1998 70.9078 67.512 73.2825 66.5445 75.9743C65.5771 78.6662 65.3671 81.572 65.9375 84.375H34.0625ZM81.25 93.75C78.7778 93.75 76.361 93.0169 74.3054 91.6434C72.2498 90.2699 70.6476 88.3176 69.7015 86.0336C68.7554 83.7495 68.5079 81.2361 68.9902 78.8114C69.4725 76.3866 70.663 74.1593 72.4112 72.4112C74.1594 70.663 76.3866 69.4725 78.8114 68.9902C81.2362 68.5079 83.7495 68.7554 86.0336 69.7015C88.3176 70.6476 90.2699 72.2498 91.6434 74.3054C93.0169 76.361 93.75 78.7777 93.75 81.25C93.7463 84.5641 92.4282 87.7413 90.0848 90.0847C87.7414 92.4281 84.5641 93.7463 81.25 93.75Z" fill="#2C0400"/>
<path d="M81.25 71.875C79.3958 71.875 77.5832 72.4248 76.0415 73.455C74.4998 74.4851 73.2982 75.9493 72.5886 77.6623C71.8791 79.3754 71.6934 81.2604 72.0551 83.079C72.4169 84.8975 73.3098 86.568 74.6209 87.8791C75.932 89.1902 77.6025 90.0831 79.421 90.4449C81.2396 90.8066 83.1246 90.6209 84.8377 89.9114C86.5507 89.2018 88.0149 88.0002 89.045 86.4585C90.0752 84.9168 90.625 83.1042 90.625 81.25C90.6225 78.7644 89.634 76.3812 87.8764 74.6236C86.1188 72.866 83.7356 71.8775 81.25 71.875ZM81.25 87.5C80.0139 87.5 78.8055 87.1334 77.7777 86.4467C76.7499 85.7599 75.9488 84.7838 75.4758 83.6418C75.0027 82.4997 74.8789 81.2431 75.1201 80.0307C75.3613 78.8183 75.9565 77.7047 76.8306 76.8306C77.7047 75.9565 78.8183 75.3612 80.0307 75.1201C81.2431 74.8789 82.4997 75.0027 83.6418 75.4758C84.7838 75.9488 85.7599 76.7499 86.4467 77.7777C87.1334 78.8055 87.5 80.0139 87.5 81.25C87.5 82.9076 86.8415 84.4973 85.6694 85.6694C84.4973 86.8415 82.9076 87.5 81.25 87.5Z" fill="#2C0400"/>
<path d="M18.75 71.875C16.8958 71.875 15.0832 72.4248 13.5415 73.455C11.9998 74.4851 10.7982 75.9493 10.0886 77.6623C9.37906 79.3754 9.19341 81.2604 9.55514 83.079C9.91688 84.8975 10.8098 86.568 12.1209 87.8791C13.432 89.1902 15.1025 90.0831 16.921 90.4449C18.7396 90.8066 20.6246 90.6209 22.3377 89.9114C24.0507 89.2018 25.5149 88.0002 26.545 86.4585C27.5752 84.9168 28.125 83.1042 28.125 81.25C28.1225 78.7644 27.134 76.3812 25.3764 74.6236C23.6188 72.866 21.2356 71.8775 18.75 71.875ZM18.75 87.5C17.5139 87.5 16.3055 87.1334 15.2777 86.4467C14.2499 85.7599 13.4488 84.7838 12.9758 83.6418C12.5027 82.4997 12.3789 81.2431 12.6201 80.0307C12.8613 78.8183 13.4565 77.7047 14.3306 76.8306C15.2047 75.9565 16.3183 75.3612 17.5307 75.1201C18.7431 74.8789 19.9997 75.0027 21.1418 75.4758C22.2838 75.9488 23.2599 76.7499 23.9467 77.7777C24.6334 78.8055 25 80.0139 25 81.25C25 82.9076 24.3415 84.4973 23.1694 85.6694C21.9973 86.8415 20.4076 87.5 18.75 87.5Z" fill="#2C0400"/>
<path d="M62.5 50H37.5C37.0856 50 36.6882 50.1646 36.3951 50.4576C36.1021 50.7507 35.9375 51.1481 35.9375 51.5625V76.5625C35.9375 76.9769 36.1021 77.3743 36.3951 77.6674C36.6882 77.9604 37.0856 78.125 37.5 78.125H62.5C62.9144 78.125 63.3118 77.9604 63.6049 77.6674C63.8979 77.3743 64.0625 76.9769 64.0625 76.5625V51.5625C64.0625 51.1481 63.8979 50.7507 63.6049 50.4576C63.3118 50.1646 62.9144 50 62.5 50ZM53.125 53.125V62.5H46.875V53.125H53.125ZM60.9375 75H39.0625V53.125H43.75V64.0625C43.75 64.4769 43.9146 64.8743 44.2076 65.1674C44.5007 65.4604 44.8981 65.625 45.3125 65.625H54.6875C55.1019 65.625 55.4993 65.4604 55.7924 65.1674C56.0854 64.8743 56.25 64.4769 56.25 64.0625V53.125H60.9375V75Z" fill="#2C0400"/>
<path d="M50.0001 21.875C49.177 21.8761 48.3687 22.0931 47.6558 22.5043C46.9429 22.9156 46.3504 23.5068 45.9376 24.2188C45.7451 24.5765 45.6994 24.9951 45.8104 25.3859C45.9213 25.7767 46.1801 26.1089 46.5319 26.3122C46.8836 26.5154 47.3007 26.5736 47.6947 26.4745C48.0886 26.3754 48.4285 26.1267 48.6422 25.7812C48.7917 25.5592 48.9933 25.3773 49.2296 25.2515C49.4658 25.1258 49.7293 25.06 49.9969 25.06C50.2646 25.06 50.5281 25.1258 50.7643 25.2515C51.0005 25.3773 51.2022 25.5592 51.3516 25.7812C51.5654 26.1267 51.9052 26.3754 52.2992 26.4745C52.6932 26.5736 53.1102 26.5154 53.462 26.3122C53.8138 26.1089 54.0725 25.7767 54.1835 25.3859C54.2944 24.9951 54.2488 24.5765 54.0563 24.2188C53.644 23.5077 53.0525 22.9171 52.3408 22.5059C51.6291 22.0947 50.822 21.8771 50.0001 21.875Z" fill="#2C0400"/>
<path d="M62.4997 17.0767C62.8168 17.0765 63.1264 16.9798 63.3872 16.7995C63.6481 16.6192 63.8479 16.3638 63.9602 16.0673C64.0724 15.7707 64.0918 15.447 64.0157 15.1392C63.9396 14.8313 63.7716 14.554 63.5341 14.3439C59.7538 11.1366 54.9573 9.37598 49.9997 9.37598C45.0421 9.37598 40.2457 11.1366 36.4654 14.3439C36.1546 14.6182 35.9655 15.0048 35.9397 15.4185C35.9139 15.8323 36.0535 16.2393 36.3279 16.5501C36.6022 16.8609 36.9887 17.05 37.4025 17.0758C37.8163 17.1016 38.2233 16.9619 38.5341 16.6876C41.7434 13.9851 45.8041 12.503 49.9997 12.503C54.1953 12.503 58.2561 13.9851 61.4654 16.6876C61.7512 16.939 62.1191 17.0773 62.4997 17.0767Z" fill="#2C0400"/>
<path d="M32.2454 12.3C37.2857 8.29059 43.5602 6.15254 50 6.24999C56.4399 6.15254 62.7143 8.29059 67.7547 12.3C68.0744 12.564 68.4859 12.6901 68.8986 12.6507C69.3114 12.6113 69.6915 12.4095 69.9555 12.0898C70.2195 11.7701 70.3456 11.3586 70.3062 10.9459C70.2668 10.5332 70.0651 10.153 69.7454 9.88905C64.1437 5.41904 57.1659 3.0287 50 3.12499C42.8341 3.0287 35.8564 5.41904 30.2547 9.88905C29.935 10.153 29.7333 10.5332 29.6939 10.9459C29.6544 11.3586 29.7806 11.7701 30.0446 12.0898C30.3085 12.4095 30.6887 12.6113 31.1014 12.6507C31.5142 12.6901 31.9256 12.564 32.2454 12.3Z" fill="#2C0400"/>
<path d="M56.6282 21.4954C56.9372 21.4953 57.2392 21.4036 57.4961 21.2319C57.753 21.0602 57.9532 20.8162 58.0714 20.5308C58.1897 20.2453 58.2206 19.9312 58.1603 19.6281C58.1001 19.3251 57.9513 19.0467 57.7329 18.8282C56.7172 17.8124 55.5114 17.0067 54.1844 16.4569C52.8573 15.9072 51.4349 15.6243 49.9985 15.6243C48.5621 15.6243 47.1397 15.9072 45.8126 16.4569C44.4856 17.0067 43.2798 17.8124 42.2641 18.8282C42.1149 18.9723 41.9959 19.1447 41.914 19.3354C41.8321 19.526 41.789 19.731 41.7872 19.9385C41.7854 20.146 41.8249 20.3517 41.9035 20.5437C41.982 20.7358 42.098 20.9102 42.2448 21.0569C42.3915 21.2036 42.5659 21.3197 42.7579 21.3982C42.95 21.4768 43.1557 21.5163 43.3632 21.5145C43.5707 21.5127 43.7757 21.4696 43.9663 21.3877C44.1569 21.3058 44.3294 21.1868 44.4735 21.0376C45.9386 19.5729 47.9253 18.7502 49.9969 18.7502C52.0685 18.7502 54.0553 19.5729 55.5204 21.0376C55.6654 21.1835 55.8381 21.2992 56.0283 21.3778C56.2185 21.4564 56.4224 21.4963 56.6282 21.4954Z" fill="#2C0400"/>
</svg>
