<svg width="40" height="40" viewBox="0 0 40 40" fill="none" xmlns="http://www.w3.org/2000/svg">
<path d="M6.29595 19.904C4.71592 17.1488 3.953 14.8991 3.49298 12.6187C2.81262 9.24595 4.3696 5.95133 6.94888 3.8491C8.039 2.96062 9.28863 3.26418 9.93325 4.42065L11.3886 7.0315C12.5421 9.10093 13.1188 10.1356 13.0044 11.2326C12.89 12.3296 12.1122 13.2231 10.5565 15.01L6.29595 19.904ZM6.29595 19.904C9.4941 25.4805 14.513 30.5021 20.0959 33.704M20.0959 33.704C22.8511 35.284 25.1008 36.047 27.3813 36.507C30.7539 37.1873 34.0486 35.6303 36.1507 33.051C37.0392 31.961 36.7357 30.7113 35.5792 30.0666L32.9684 28.6113C30.8989 27.4578 29.8643 26.8811 28.7673 26.9955C27.6703 27.1098 26.7768 27.8876 24.9899 29.4433L20.0959 33.704Z" stroke="white" stroke-width="1.5" stroke-linejoin="round"/>
<path d="M23.3333 11.3864C25.7053 12.3937 27.6063 14.2946 28.6136 16.6666M24.4233 3.33331C30.3186 5.03458 34.9651 9.68085 36.6666 15.576" stroke="white" stroke-width="1.5" stroke-linecap="round"/>
</svg>
