<svg width="21" height="20" viewBox="0 0 21 20" fill="none" xmlns="http://www.w3.org/2000/svg">
<g clip-path="url(#clip0_549_1665)">
<path d="M20.362 2.73409C20.0678 2.43936 19.5904 2.43885 19.2962 2.73284L10.2535 11.7517L6.99091 8.20819C6.70899 7.90217 6.23235 7.88233 5.92583 8.1642C5.61954 8.44612 5.59993 8.92299 5.88185 9.22928L9.67583 13.3496C9.81477 13.5006 10.0092 13.5883 10.2143 13.5926C10.2198 13.5928 10.2251 13.5928 10.2304 13.5928C10.4296 13.5928 10.6213 13.5137 10.7625 13.373L20.3605 3.80014C20.6555 3.5062 20.656 3.02881 20.362 2.73409Z" fill="#EB1400"/>
<path d="M20.1798 9.24621C19.7635 9.24621 19.4261 9.58363 19.4261 10C19.4261 14.6829 15.6165 18.4925 10.9336 18.4925C6.25094 18.4925 2.44113 14.6829 2.44113 10C2.44113 5.31734 6.25094 1.50754 10.9336 1.50754C11.3499 1.50754 11.6874 1.17012 11.6874 0.753789C11.6874 0.337422 11.3499 0 10.9336 0C5.41953 0 0.933594 4.48594 0.933594 10C0.933594 15.5138 5.41953 20 10.9336 20C16.4474 20 20.9336 15.5138 20.9336 10C20.9336 9.58367 20.5962 9.24621 20.1798 9.24621Z" fill="#EB1400"/>
</g>
<defs>
<clipPath id="clip0_549_1665">
<rect width="20" height="20" fill="white" transform="translate(0.933594)"/>
</clipPath>
</defs>
</svg>
