<svg width="40" height="40" viewBox="0 0 40 40" fill="none" xmlns="http://www.w3.org/2000/svg">
<path d="M6.29619 19.9047C4.71616 17.1495 3.95324 14.8998 3.49323 12.6193C2.81286 9.24662 4.36984 5.952 6.94913 3.84977C8.03924 2.96129 9.28888 3.26485 9.93349 4.42132L11.3888 7.03217C12.5423 9.1016 13.1191 10.1363 13.0047 11.2333C12.8903 12.3303 12.1124 13.2238 10.5568 15.0107L6.29619 19.9047ZM6.29619 19.9047C9.49434 25.4812 14.5132 30.5028 20.0962 33.7047M20.0962 33.7047C22.8513 35.2847 25.101 36.0477 27.3815 36.5077C30.7542 37.188 34.0488 35.631 36.151 33.0517C37.0395 31.9617 36.736 30.712 35.5795 30.0673L32.9687 28.612C30.8992 27.4585 29.8645 26.8818 28.7675 26.9962C27.6705 27.1105 26.777 27.8883 24.9902 29.444L20.0962 33.7047Z" stroke="#C9AB81" stroke-width="1.5" stroke-linejoin="round"/>
<path d="M23.3335 11.3871C25.7055 12.3944 27.6065 14.2953 28.6138 16.6673M24.4235 3.33398C30.3188 5.03525 34.9653 9.68152 36.6668 15.5767" stroke="#C9AB81" stroke-width="1.5" stroke-linecap="round"/>
</svg>
