<svg width="24" height="22" viewBox="0 0 24 22" fill="none" xmlns="http://www.w3.org/2000/svg">
<path d="M11.5245 0.463528C11.6741 0.00287249 12.3259 0.00286995 12.4755 0.463525L14.8064 7.63729C14.8734 7.8433 15.0653 7.98278 15.282 7.98278H22.8249C23.3093 7.98278 23.5106 8.60259 23.1188 8.88729L17.0164 13.3209C16.8412 13.4482 16.7678 13.6739 16.8348 13.8799L19.1657 21.0537C19.3154 21.5143 18.7881 21.8974 18.3963 21.6127L12.2939 17.1791C12.1186 17.0518 11.8814 17.0518 11.7061 17.1791L5.60374 21.6127C5.21189 21.8974 4.68464 21.5143 4.83432 21.0537L7.16522 13.8799C7.23215 13.6739 7.15882 13.4482 6.98358 13.3209L0.881216 8.88729C0.489359 8.60259 0.690746 7.98278 1.17511 7.98278H8.71805C8.93466 7.98278 9.12664 7.8433 9.19357 7.63729L11.5245 0.463528Z" fill="#C9AB81"/>
</svg>
