<svg width="6" height="6" viewBox="0 0 6 6" fill="none" xmlns="http://www.w3.org/2000/svg">
<path d="M2.80979 0.58541C2.86966 0.401148 3.13034 0.401148 3.19021 0.58541L3.62864 1.93475C3.65541 2.01716 3.73221 2.07295 3.81885 2.07295H5.23763C5.43138 2.07295 5.51193 2.32087 5.35519 2.43475L4.20737 3.26869C4.13727 3.31962 4.10794 3.40989 4.13472 3.4923L4.57314 4.84164C4.63301 5.0259 4.42212 5.17913 4.26538 5.06525L3.11756 4.23131C3.04746 4.18038 2.95254 4.18038 2.88244 4.23131L1.73462 5.06525C1.57788 5.17913 1.36699 5.0259 1.42686 4.84164L1.86528 3.4923C1.89206 3.40989 1.86273 3.31962 1.79263 3.26869L0.64481 2.43475C0.488068 2.32087 0.568623 2.07295 0.762367 2.07295H2.18115C2.26779 2.07295 2.34459 2.01716 2.37136 1.93475L2.80979 0.58541Z" fill="#C9AB81"/>
</svg>
