<svg width="36" height="36" viewBox="0 0 36 36" fill="none" xmlns="http://www.w3.org/2000/svg">
<path d="M34.68 16.2732C35.16 15.1081 35.4047 13.8595 35.4 12.5994C35.3794 10.5685 34.65 8.60859 33.3378 7.05838C33.2206 6.92125 33.0764 6.80976 32.9142 6.73091C32.752 6.65205 32.5753 6.60751 32.3951 6.60007C32.2149 6.59264 32.0351 6.62247 31.8669 6.6877C31.6987 6.75293 31.5459 6.85216 31.4178 6.97918L28.6008 9.79918C28.2803 8.52059 27.5843 7.36725 26.6025 6.48777C25.6206 5.60828 24.3979 5.04294 23.0919 4.86458C21.7859 4.68622 20.4564 4.90302 19.2747 5.48704C18.0929 6.07106 17.1132 6.99554 16.4616 8.14138C15.3722 6.69996 14.4715 5.1252 13.7814 3.45538C13.6244 3.06149 13.3396 2.73182 12.9726 2.51938L12.669 0.981579C12.6023 0.66499 12.4141 0.387161 12.1449 0.207691C11.8757 0.0282214 11.5469 -0.0385937 11.229 0.021579L9.9918 0.266379C9.67427 0.331266 9.3948 0.517985 9.21333 0.786502C9.03185 1.05502 8.9628 1.38395 9.021 1.70278L9.3402 3.32998C9.0757 3.72427 8.96865 4.20341 9.0402 4.67278C9.1602 5.47978 9.3636 6.66658 9.6648 8.07238C8.52983 7.73293 7.32428 7.70613 6.17536 7.99483C5.02643 8.28353 3.97674 8.87701 3.13705 9.71264C2.29736 10.5483 1.6988 11.5951 1.40455 12.7426C1.11029 13.8901 1.13124 15.0958 1.4652 16.2324C1.05348 16.3103 0.681858 16.5295 0.41439 16.852C0.146921 17.1746 0.000370066 17.5804 0 17.9994C0.00953526 21.2254 0.911339 24.3859 2.60563 27.1312C4.29993 29.8765 6.72066 32.0995 9.6 33.5544V34.1994C9.6 34.6768 9.78964 35.1346 10.1272 35.4722C10.4648 35.8097 10.9226 35.9994 11.4 35.9994H24.6C25.0774 35.9994 25.5352 35.8097 25.8728 35.4722C26.2104 35.1346 26.4 34.6768 26.4 34.1994V33.5544C29.2856 32.1073 31.7117 29.886 33.4071 27.139C35.1025 24.392 36.0002 21.2275 36 17.9994C35.9981 17.6071 35.8682 17.2262 35.6299 16.9146C35.3916 16.603 35.0581 16.3778 34.68 16.2732ZM32.3496 7.79938C32.3626 7.79962 32.3753 7.80245 32.3872 7.80771C32.399 7.81296 32.4097 7.82054 32.4186 7.82998C33.5423 9.16812 34.1714 10.8522 34.2 12.5994C34.2059 13.8455 33.9279 15.0767 33.387 16.1994H31.98C32.6908 15.0449 33.0202 13.696 32.9216 12.3438C32.8229 10.9917 32.3012 9.70488 31.4304 8.66578L32.2644 7.83178C32.2881 7.81125 32.3183 7.79977 32.3496 7.79938ZM25.9716 14.1222L26.2032 16.1994H23.8944L25.9716 14.1222ZM31.7316 12.798L27.7374 12.3594L30.5748 9.52198C31.3206 10.4513 31.7289 11.6064 31.7328 12.798H31.7316ZM27.411 16.1994L27.111 13.494L31.5996 13.9908C31.4119 14.8043 31.033 15.5614 30.4944 16.1994H27.411ZM22.2 5.99938C23.5336 5.99924 24.8199 6.49339 25.8104 7.38636C26.8009 8.27932 27.4252 9.50771 27.5628 10.8342L23.862 14.535C21.3615 13.1715 19.1342 11.3581 17.292 9.18598C17.7189 8.24049 18.4084 7.43753 19.2785 6.87262C20.1486 6.3077 21.1626 6.0046 22.2 5.99938ZM11.493 1.22338L11.703 2.28778C11.6772 2.29198 11.6514 2.29138 11.6256 2.29678L10.56 2.50738C10.512 2.51698 10.4682 2.53618 10.4214 2.54938L10.2228 1.44358L11.493 1.22338ZM10.2288 4.49098C10.2008 4.30918 10.2442 4.1236 10.35 3.97314C10.4559 3.82269 10.6158 3.71905 10.7964 3.68398L11.8614 3.47338C12.0246 3.43886 12.1947 3.46279 12.342 3.541C12.4893 3.6192 12.6044 3.74669 12.6672 3.90118C14.7267 8.78068 18.3561 12.8331 22.98 15.4158L22.2 16.1994H14.142C14.3119 15.6144 14.3987 15.0085 14.4 14.3994C14.399 13.2269 14.0857 12.0759 13.4923 11.0647C12.8989 10.0535 12.0469 9.21866 11.0238 8.64598C10.7065 7.27151 10.4413 5.88551 10.2288 4.49098ZM7.8 8.99938C9.23168 9.00097 10.6043 9.5704 11.6166 10.5828C12.629 11.5951 13.1984 12.9677 13.2 14.3994C13.1994 15.0131 13.0924 15.6221 12.8838 16.1994H2.7162C2.50762 15.6221 2.40064 15.0131 2.4 14.3994C2.40159 12.9677 2.97102 11.5951 3.98338 10.5828C4.99573 9.5704 6.36832 9.00097 7.8 8.99938ZM30.0558 29.4552C28.745 30.7662 27.2183 31.8419 25.5426 32.6352C25.4404 32.6837 25.354 32.7602 25.2934 32.8557C25.2327 32.9513 25.2004 33.062 25.2 33.1752V34.1994C25.2 34.3585 25.1368 34.5111 25.0243 34.6236C24.9117 34.7362 24.7591 34.7994 24.6 34.7994H11.4C11.2409 34.7994 11.0883 34.7362 10.9757 34.6236C10.8632 34.5111 10.8 34.3585 10.8 34.1994V33.1794C10.7996 33.0662 10.7673 32.9555 10.7066 32.8599C10.646 32.7644 10.5596 32.6879 10.4574 32.6394C7.69271 31.318 5.35718 29.243 3.7195 26.6531C2.08181 24.0632 1.20849 21.0636 1.2 17.9994C1.2 17.8403 1.26321 17.6876 1.37574 17.5751C1.48826 17.4626 1.64087 17.3994 1.8 17.3994H34.2C34.3591 17.3994 34.5117 17.4626 34.6243 17.5751C34.7368 17.6876 34.8 17.8403 34.8 17.9994C34.8048 20.1275 34.388 22.2356 33.5737 24.2018C32.7594 26.168 31.5638 27.9535 30.0558 29.4552Z" fill="#EB1400"/>
<path d="M7.79961 11.9992C7.95874 11.9992 8.11135 11.936 8.22387 11.8235C8.3364 11.711 8.39961 11.5583 8.39961 11.3992V10.7992C8.39961 10.6401 8.3364 10.4875 8.22387 10.375C8.11135 10.2624 7.95874 10.1992 7.79961 10.1992C7.64048 10.1992 7.48787 10.2624 7.37535 10.375C7.26282 10.4875 7.19961 10.6401 7.19961 10.7992V11.3992C7.19961 11.5583 7.26282 11.711 7.37535 11.8235C7.48787 11.936 7.64048 11.9992 7.79961 11.9992ZM5.25441 12.7024C5.36757 12.8117 5.51913 12.8722 5.67645 12.8708C5.83377 12.8695 5.98426 12.8064 6.0955 12.6951C6.20675 12.5839 6.26985 12.4334 6.27121 12.2761C6.27258 12.1187 6.2121 11.9672 6.10281 11.854L5.67861 11.4298C5.62326 11.3725 5.55705 11.3268 5.48385 11.2954C5.41065 11.2639 5.33192 11.2474 5.25225 11.2467C5.17258 11.246 5.09358 11.2612 5.01984 11.2913C4.9461 11.3215 4.87911 11.366 4.82277 11.4224C4.76644 11.4787 4.72189 11.5457 4.69172 11.6194C4.66155 11.6932 4.64637 11.7722 4.64706 11.8519C4.64775 11.9315 4.6643 12.0103 4.69575 12.0835C4.72719 12.1567 4.7729 12.2229 4.83021 12.2782L5.25441 12.7024ZM4.19961 14.9992H4.79961C4.95874 14.9992 5.11135 14.936 5.22387 14.8235C5.3364 14.711 5.39961 14.5583 5.39961 14.3992C5.39961 14.2401 5.3364 14.0875 5.22387 13.975C5.11135 13.8624 4.95874 13.7992 4.79961 13.7992H4.19961C4.04048 13.7992 3.88787 13.8624 3.77535 13.975C3.66282 14.0875 3.59961 14.2401 3.59961 14.3992C3.59961 14.5583 3.66282 14.711 3.77535 14.8235C3.88787 14.936 4.04048 14.9992 4.19961 14.9992ZM10.1996 14.3992C10.1996 14.5583 10.2628 14.711 10.3753 14.8235C10.4879 14.936 10.6405 14.9992 10.7996 14.9992H11.3996C11.5587 14.9992 11.7114 14.936 11.8239 14.8235C11.9364 14.711 11.9996 14.5583 11.9996 14.3992C11.9996 14.2401 11.9364 14.0875 11.8239 13.975C11.7114 13.8624 11.5587 13.7992 11.3996 13.7992H10.7996C10.6405 13.7992 10.4879 13.8624 10.3753 13.975C10.2628 14.0875 10.1996 14.2401 10.1996 14.3992ZM9.92061 12.8782C10.0797 12.8782 10.2323 12.8149 10.3448 12.7024L10.769 12.2782C10.8783 12.1651 10.9388 12.0135 10.9374 11.8562C10.936 11.6989 10.8729 11.5484 10.7617 11.4371C10.6505 11.3259 10.5 11.2628 10.3427 11.2614C10.1853 11.26 10.0338 11.3205 9.92061 11.4298L9.49641 11.854C9.41252 11.9379 9.3554 12.0448 9.33226 12.1612C9.30912 12.2776 9.321 12.3982 9.3664 12.5078C9.41181 12.6174 9.48869 12.7111 9.58733 12.7771C9.68598 12.843 9.80196 12.8782 9.92061 12.8782Z" fill="#EB1400"/>
</svg>
