<svg width="187" height="104" viewBox="0 0 187 104" fill="none" xmlns="http://www.w3.org/2000/svg">
<path d="M180.219 77.8178C179.703 78.536 179.205 79.2691 178.666 79.9696C177.691 81.2377 176.695 82.4919 175.465 83.5314C175.225 83.7343 175.258 83.8013 175.572 83.9363C176.346 84.2674 177.14 84.5639 177.875 84.9689C180.065 86.1778 181.839 87.8449 183.184 89.9652C184.83 92.5575 185.694 95.3438 185.305 98.4415C185.145 99.7125 184.682 100.877 183.851 101.85C182.815 103.062 181.46 103.735 179.882 103.93C178.88 104.053 177.858 104.058 176.946 103.574C175.082 102.586 174.144 100.955 173.944 98.8898C173.866 98.0878 173.904 97.276 173.851 96.471C173.815 95.8956 173.757 95.3163 173.64 94.7537C173.341 93.3171 172.814 91.9614 172.099 90.6786C171.44 89.4952 170.685 88.3848 169.691 87.4508C169.448 87.2232 169.2 87.1454 168.872 87.2774C166.53 88.2183 164.102 88.8627 161.625 89.3376C159.301 89.783 156.954 89.9997 154.593 90.0539C152.388 90.1042 150.183 90.0155 148.007 89.6401C146.301 89.3465 144.577 89.0726 142.924 88.577C141.237 88.0715 139.602 87.3631 137.991 86.6389C136.173 85.8221 134.543 84.6802 133.004 83.4141C131.489 82.1678 130.211 80.6977 129.018 79.1508C128.948 79.0602 128.913 78.941 128.861 78.8356C136.853 83.5412 145.452 85.7384 154.671 85.5502C163.893 85.362 172.402 82.8397 180.097 77.6631C180.139 77.7143 180.179 77.7655 180.219 77.8178Z" fill="#F1C40F"/>
<path d="M58.5541 27.9964C57.7774 25.9411 56.8383 24.4002 54.3645 24.3539C53.3772 24.3351 52.1969 23.6799 51.4754 22.9489C50.2213 21.6769 48.9445 21.5212 47.3193 21.8966C46.4088 22.1065 45.3338 22.1222 44.4499 21.8473C39.7859 20.399 35.1337 21.3685 30.4835 21.7882C28.3651 21.9793 26.3491 21.8532 24.592 20.5477C22.7364 19.1703 21.8426 17.3042 22.2639 14.9849C22.7286 12.4241 24.275 10.6546 26.7379 9.8979C27.8749 9.54812 28.5561 9.03382 29.1546 7.99534C32.0093 3.04728 36.2923 1.41665 41.7881 2.92905C42.3896 3.09457 43.2991 2.91329 43.8061 2.53987C51.3779 -3.03974 62.6235 1.04225 64.9781 10.2142C65.1632 10.9344 65.9074 11.5699 66.5108 12.1128C68.3506 13.7651 70.5822 15.0972 72.0499 17.0215C74.5059 20.2443 74.1949 24.6731 71.8442 27.6417C69.1873 30.9976 65.802 31.8282 61.5062 30.297C60.9717 30.1059 60.1212 30.2478 59.6388 30.5699C58.2499 31.4941 57.0283 32.6745 55.6245 33.5721C55.1353 33.8844 54.083 33.9583 53.6656 33.6421C46.899 28.5098 39.1785 27.3057 30.9816 27.9442C30.0336 28.0181 29.0837 28.0605 28.121 28.1186C27.679 26.286 27.2764 24.612 26.8728 22.939C26.9939 22.8158 27.1159 22.6927 27.237 22.5695C27.8857 23.2306 28.6772 23.8041 29.1497 24.5736C29.8308 25.683 30.6508 25.8544 31.8715 25.7352C38.7966 25.0603 45.5071 25.7322 51.6664 29.3157C55.1412 31.3365 55.722 31.2518 58.5541 27.9964ZM27.4851 12.301C25.3982 13.0853 24.3124 14.6854 24.6412 16.4923C24.9572 18.2254 26.6641 19.5575 28.8504 19.4452C31.7868 19.2945 34.7134 18.924 37.5966 18.653C37.4263 17.4658 37.2668 16.3574 37.0326 14.7297C44.0463 21.1222 47.4946 21.1616 53.1538 15.2972C54.211 17.2628 52.885 18.7092 52.0768 20.3231C55.2593 23.1124 58.4074 22.605 61.7612 20.4699C61.3851 21.5902 60.7847 22.4355 60.323 23.3509C60.0493 23.8937 59.7028 24.6662 59.8909 25.1342C61.3655 28.8172 65.8641 29.8418 68.8595 27.2525C72.4328 24.1647 71.9977 18.9339 67.8624 15.782C66.4084 14.6735 64.9122 13.2547 63.1098 15.3465C62.967 15.512 62.5802 15.4677 62.2406 15.5327C63.3618 9.90578 61.4353 6.03069 56.4022 3.53401C51.1722 0.939778 47.5733 2.10536 41.9978 8.24363C41.8688 8.00027 41.6985 7.79533 41.6464 7.56379C41.0833 5.09567 40.4395 4.61584 37.8368 4.76363C34.1109 4.97546 31.0485 7.7973 29.9135 12.1118C29.6448 13.1326 29.4903 14.1839 29.2835 15.2214C29.1388 15.2499 28.9941 15.2775 28.8494 15.3061C28.3946 14.304 27.9399 13.3001 27.4851 12.301Z" fill="#F1C40F"/>
<path d="M21.6749 80.5439V88.3998H20.1952V80.5439H21.6749ZM24.8335 83.9377V85.1086H21.2875V83.9377H24.8335ZM25.2479 80.5439V81.7148H21.2875V80.5439H25.2479Z" fill="#F1C40F"/>
<path d="M29.1706 87.1589V84.4665C29.1706 84.2687 29.1365 84.0978 29.0683 83.9539C29.0002 83.81 28.8961 83.6985 28.7562 83.6194C28.6163 83.5403 28.4387 83.5007 28.2235 83.5007C28.0334 83.5007 27.8666 83.5331 27.7231 83.5978C27.5832 83.6626 27.4756 83.7543 27.4002 83.873C27.3249 83.9881 27.2872 84.1212 27.2872 84.2723H25.8613C25.8613 84.0313 25.9187 83.8028 26.0335 83.587C26.1483 83.3676 26.3115 83.1734 26.5231 83.0043C26.7384 82.8317 26.9949 82.6968 27.2926 82.5996C27.5939 82.5025 27.9311 82.454 28.3042 82.454C28.7455 82.454 29.1383 82.5295 29.4826 82.6806C29.8306 82.8281 30.1032 83.0511 30.3005 83.3496C30.5014 83.6482 30.6019 84.0241 30.6019 84.4773V87.024C30.6019 87.3153 30.6198 87.5653 30.6557 87.774C30.6951 87.979 30.7525 88.157 30.8279 88.3081V88.3998H29.3804C29.3123 88.2524 29.2602 88.0653 29.2244 87.8387C29.1885 87.6085 29.1706 87.3819 29.1706 87.1589ZM29.3696 84.8442L29.3804 85.6913H28.4818C28.2594 85.6913 28.0639 85.7147 27.8953 85.7614C27.7267 85.8046 27.5886 85.8693 27.4809 85.9557C27.3733 86.0384 27.2926 86.1391 27.2388 86.2578C27.185 86.3729 27.1581 86.5042 27.1581 86.6517C27.1581 86.7956 27.1904 86.9251 27.2549 87.0402C27.3231 87.1553 27.42 87.247 27.5455 87.3153C27.6747 87.3801 27.8253 87.4125 27.9975 87.4125C28.2486 87.4125 28.4674 87.3621 28.654 87.2614C28.8405 87.1571 28.9858 87.0312 29.0898 86.8837C29.1939 86.7362 29.2495 86.5959 29.2566 86.4628L29.6656 87.0779C29.6154 87.2254 29.54 87.3819 29.4396 87.5473C29.3392 87.7128 29.21 87.8675 29.0522 88.0114C28.8943 88.1552 28.7042 88.2739 28.4818 88.3675C28.2594 88.461 28.0011 88.5077 27.7069 88.5077C27.3303 88.5077 26.9931 88.4322 26.6953 88.2811C26.3976 88.1301 26.1626 87.9232 25.9904 87.6606C25.8182 87.3981 25.7321 87.0995 25.7321 86.765C25.7321 86.4556 25.7895 86.1823 25.9043 85.9449C26.0191 85.7075 26.1895 85.5078 26.4155 85.346C26.6415 85.1805 26.9213 85.0564 27.2549 84.9737C27.5922 84.8873 27.9778 84.8442 28.4118 84.8442H29.3696Z" fill="#F1C40F"/>
<path d="M35.0842 86.8028C35.0842 86.6805 35.0519 86.5708 34.9873 86.4736C34.9227 86.3765 34.8008 86.2884 34.6214 86.2093C34.4456 86.1265 34.1874 86.0492 33.8466 85.9772C33.5452 85.9125 33.2672 85.8316 33.0125 85.7344C32.7578 85.6373 32.539 85.5204 32.3561 85.3837C32.1731 85.2435 32.0296 85.0798 31.9256 84.8927C31.8251 84.7021 31.7749 84.4827 31.7749 84.2345C31.7749 83.9935 31.8269 83.7669 31.931 83.5547C32.035 83.3388 32.1857 83.15 32.383 82.9881C32.5803 82.8227 32.8206 82.6932 33.104 82.5996C33.3874 82.5025 33.7067 82.454 34.0618 82.454C34.5568 82.454 34.9819 82.5349 35.3371 82.6968C35.6958 82.8586 35.9702 83.0816 36.1604 83.3658C36.3505 83.6464 36.4455 83.9629 36.4455 84.3154H35.025C35.025 84.1607 34.9891 84.0205 34.9174 83.8946C34.8492 83.7687 34.7434 83.668 34.5999 83.5924C34.4564 83.5133 34.2752 83.4737 34.0564 83.4737C33.8591 83.4737 33.6923 83.5061 33.556 83.5708C33.4233 83.6356 33.3228 83.7201 33.2547 83.8244C33.1865 83.9287 33.1524 84.0438 33.1524 84.1697C33.1524 84.2633 33.1704 84.3478 33.2062 84.4233C33.2457 84.4953 33.3085 84.5618 33.3946 84.623C33.4807 84.6841 33.5972 84.7399 33.7443 84.7902C33.895 84.8406 34.0797 84.8891 34.2986 84.9359C34.7326 85.0222 35.1111 85.1373 35.4339 85.2812C35.7604 85.4215 36.0151 85.6085 36.198 85.8424C36.381 86.0762 36.4725 86.3747 36.4725 86.738C36.4725 86.997 36.4168 87.2344 36.3056 87.4502C36.1944 87.6624 36.033 87.8477 35.8214 88.006C35.6097 88.1642 35.3568 88.2883 35.0627 88.3783C34.7685 88.4646 34.4367 88.5077 34.0672 88.5077C33.5327 88.5077 33.0807 88.4124 32.7112 88.2218C32.3417 88.0275 32.0619 87.7829 31.8718 87.488C31.6816 87.1894 31.5866 86.8801 31.5866 86.56H32.948C32.9587 86.7866 33.0197 86.9682 33.1309 87.1049C33.2421 87.2416 33.382 87.3405 33.5506 87.4017C33.7228 87.4592 33.904 87.488 34.0941 87.488C34.3093 87.488 34.4905 87.4592 34.6376 87.4017C34.7846 87.3405 34.8958 87.2596 34.9712 87.1589C35.0465 87.0546 35.0842 86.9358 35.0842 86.8028Z" fill="#F1C40F"/>
<path d="M40.309 82.5619V83.587H36.9729V82.5619H40.309ZM37.8661 81.1267H39.292V86.7164C39.292 86.8891 39.3154 87.0222 39.362 87.1157C39.4086 87.2092 39.4786 87.2722 39.5719 87.3045C39.6651 87.3369 39.7763 87.3531 39.9055 87.3531C39.9987 87.3531 40.0848 87.3477 40.1638 87.3369C40.2427 87.3261 40.309 87.3153 40.3629 87.3045L40.3682 88.3729C40.2499 88.4124 40.1153 88.4448 39.9647 88.47C39.8176 88.4952 39.6508 88.5077 39.4642 88.5077C39.145 88.5077 38.8652 88.4538 38.6248 88.3459C38.3845 88.2344 38.1979 88.0563 38.0652 87.8117C37.9325 87.5635 37.8661 87.2362 37.8661 86.8297V81.1267Z" fill="#F1C40F"/>
<path d="M45.5877 80.5439V88.3998H44.108V80.5439H45.5877ZM48.7463 83.9377V85.1086H45.2003V83.9377H48.7463ZM49.1606 80.5439V81.7148H45.2003V80.5439H49.1606Z" fill="#F1C40F"/>
<path d="M49.688 85.5402V85.4269C49.688 84.9989 49.749 84.605 49.8709 84.2453C49.9929 83.882 50.1705 83.5672 50.4036 83.3011C50.6368 83.0349 50.922 82.8281 51.2592 82.6806C51.5964 82.5295 51.9802 82.454 52.4107 82.454C52.8484 82.454 53.2358 82.5295 53.573 82.6806C53.9138 82.8281 54.2008 83.0349 54.4339 83.3011C54.6671 83.5672 54.8447 83.882 54.9666 84.2453C55.0886 84.605 55.1496 84.9989 55.1496 85.4269V85.5402C55.1496 85.9647 55.0886 86.3585 54.9666 86.7218C54.8447 87.0815 54.6671 87.3963 54.4339 87.666C54.2008 87.9322 53.9156 88.1391 53.5784 88.2865C53.2412 88.434 52.8555 88.5077 52.4215 88.5077C51.991 88.5077 51.6054 88.434 51.2646 88.2865C50.9238 88.1391 50.6368 87.9322 50.4036 87.666C50.1705 87.3963 49.9929 87.0815 49.8709 86.7218C49.749 86.3585 49.688 85.9647 49.688 85.5402ZM51.1085 85.4269V85.5402C51.1085 85.7956 51.1336 86.0348 51.1839 86.2578C51.2341 86.4808 51.3112 86.6769 51.4152 86.8459C51.5193 87.015 51.6538 87.1481 51.8188 87.2452C51.9874 87.3387 52.1883 87.3855 52.4215 87.3855C52.6511 87.3855 52.8484 87.3387 53.0134 87.2452C53.1784 87.1481 53.3129 87.015 53.4169 86.8459C53.5246 86.6769 53.6035 86.4808 53.6537 86.2578C53.7039 86.0348 53.729 85.7956 53.729 85.5402V85.4269C53.729 85.1751 53.7039 84.9395 53.6537 84.7201C53.6035 84.4971 53.5246 84.301 53.4169 84.132C53.3129 83.9593 53.1766 83.8244 53.008 83.7273C52.843 83.6266 52.6439 83.5762 52.4107 83.5762C52.1811 83.5762 51.9838 83.6266 51.8188 83.7273C51.6538 83.8244 51.5193 83.9593 51.4152 84.132C51.3112 84.301 51.2341 84.4971 51.1839 84.7201C51.1336 84.9395 51.1085 85.1751 51.1085 85.4269Z" fill="#F1C40F"/>
<path d="M55.9298 85.5402V85.4269C55.9298 84.9989 55.9908 84.605 56.1128 84.2453C56.2347 83.882 56.4123 83.5672 56.6455 83.3011C56.8787 83.0349 57.1639 82.8281 57.5011 82.6806C57.8383 82.5295 58.2221 82.454 58.6526 82.454C59.0902 82.454 59.4776 82.5295 59.8148 82.6806C60.1556 82.8281 60.4426 83.0349 60.6758 83.3011C60.909 83.5672 61.0865 83.882 61.2085 84.2453C61.3305 84.605 61.3915 84.9989 61.3915 85.4269V85.5402C61.3915 85.9647 61.3305 86.3585 61.2085 86.7218C61.0865 87.0815 60.909 87.3963 60.6758 87.666C60.4426 87.9322 60.1574 88.1391 59.8202 88.2865C59.483 88.434 59.0974 88.5077 58.6633 88.5077C58.2329 88.5077 57.8472 88.434 57.5064 88.2865C57.1656 88.1391 56.8787 87.9322 56.6455 87.666C56.4123 87.3963 56.2347 87.0815 56.1128 86.7218C55.9908 86.3585 55.9298 85.9647 55.9298 85.5402ZM57.3504 85.4269V85.5402C57.3504 85.7956 57.3755 86.0348 57.4257 86.2578C57.4759 86.4808 57.5531 86.6769 57.6571 86.8459C57.7611 87.015 57.8957 87.1481 58.0607 87.2452C58.2293 87.3387 58.4302 87.3855 58.6633 87.3855C58.8929 87.3855 59.0902 87.3387 59.2552 87.2452C59.4202 87.1481 59.5548 87.015 59.6588 86.8459C59.7664 86.6769 59.8453 86.4808 59.8956 86.2578C59.9458 86.0348 59.9709 85.7956 59.9709 85.5402V85.4269C59.9709 85.1751 59.9458 84.9395 59.8956 84.7201C59.8453 84.4971 59.7664 84.301 59.6588 84.132C59.5548 83.9593 59.4185 83.8244 59.2499 83.7273C59.0848 83.6266 58.8857 83.5762 58.6526 83.5762C58.423 83.5762 58.2257 83.6266 58.0607 83.7273C57.8957 83.8244 57.7611 83.9593 57.6571 84.132C57.5531 84.301 57.4759 84.4971 57.4257 84.7201C57.3755 84.9395 57.3504 85.1751 57.3504 85.4269Z" fill="#F1C40F"/>
<path d="M65.9168 87.1589V80.1123H67.3481V88.3998H66.0567L65.9168 87.1589ZM62.1771 85.551V85.4377C62.1771 84.9917 62.2273 84.587 62.3277 84.2237C62.4318 83.8568 62.5824 83.5421 62.7797 83.2795C62.977 83.0169 63.2156 82.8137 63.4954 82.6698C63.7788 82.5259 64.0998 82.454 64.4586 82.454C64.8065 82.454 65.1097 82.5241 65.368 82.6644C65.6298 82.8047 65.8522 83.0043 66.0352 83.2633C66.2217 83.5223 66.3706 83.8298 66.4818 84.1859C66.593 84.5384 66.6737 84.9269 66.7239 85.3514V85.6589C66.6737 86.0726 66.593 86.4521 66.4818 86.7974C66.3706 87.1427 66.2217 87.4448 66.0352 87.7038C65.8522 87.9592 65.6298 88.157 65.368 88.2973C65.1061 88.4376 64.7994 88.5077 64.4478 88.5077C64.0927 88.5077 63.7734 88.434 63.49 88.2865C63.2102 88.1391 62.9717 87.9322 62.7744 87.666C62.5806 87.3999 62.4318 87.0869 62.3277 86.7272C62.2273 86.3675 62.1771 85.9754 62.1771 85.551ZM63.603 85.4377V85.551C63.603 85.8028 63.6245 86.0384 63.6676 86.2578C63.7106 86.4772 63.7806 86.6715 63.8774 86.8405C63.9743 87.006 64.0981 87.1355 64.2487 87.229C64.403 87.3225 64.5895 87.3693 64.8083 87.3693C65.0881 87.3693 65.3177 87.3081 65.4971 87.1858C65.68 87.0599 65.8217 86.8891 65.9222 86.6733C66.0226 86.4538 66.0872 86.2075 66.1159 85.9341V85.087C66.1015 84.8712 66.0639 84.6715 66.0029 84.4881C65.9455 84.3046 65.863 84.1464 65.7554 84.0133C65.6513 83.8802 65.5222 83.7759 65.368 83.7003C65.2137 83.6248 65.0307 83.587 64.8191 83.587C64.6003 83.587 64.4137 83.6356 64.2595 83.7327C64.1052 83.8262 63.9797 83.9575 63.8828 84.1266C63.786 84.2956 63.7142 84.4917 63.6676 84.7147C63.6245 84.9377 63.603 85.1787 63.603 85.4377Z" fill="#F1C40F"/>
<path d="M71.486 80.5439H74.3326C74.928 80.5439 75.4392 80.6339 75.8661 80.8137C76.293 80.9936 76.6212 81.2598 76.8508 81.6123C77.0804 81.9648 77.1952 82.3982 77.1952 82.9126C77.1952 83.319 77.1235 83.6716 76.98 83.9701C76.8365 84.2687 76.6338 84.5187 76.3719 84.7201C76.1136 84.9215 75.8087 85.0798 75.4572 85.1949L74.9944 85.4323H72.4815L72.4708 84.2615H74.3487C74.6536 84.2615 74.9065 84.2075 75.1074 84.0996C75.3083 83.9917 75.459 83.8424 75.5594 83.6518C75.6634 83.4611 75.7154 83.2435 75.7154 82.9989C75.7154 82.7363 75.6652 82.5097 75.5648 82.3191C75.4643 82.1248 75.3119 81.9756 75.1074 81.8712C74.9029 81.7669 74.6446 81.7148 74.3326 81.7148H72.9658V88.3998H71.486V80.5439ZM75.9092 88.3998L74.0958 84.882L75.6616 84.8766L77.4965 88.3243V88.3998H75.9092Z" fill="#F1C40F"/>
<path d="M80.9995 88.5077C80.5583 88.5077 80.1619 88.4358 79.8103 88.2919C79.4588 88.148 79.1592 87.9484 78.9117 87.693C78.6678 87.434 78.4794 87.1337 78.3467 86.792C78.2176 86.4467 78.153 86.0762 78.153 85.6805V85.4647C78.153 85.015 78.2176 84.6068 78.3467 84.2399C78.4759 83.8694 78.6588 83.5511 78.8956 83.2849C79.1323 83.0187 79.4157 82.8137 79.7458 82.6698C80.0758 82.5259 80.4399 82.454 80.8381 82.454C81.2506 82.454 81.6147 82.5241 81.9304 82.6644C82.2461 82.8011 82.5097 82.9953 82.7214 83.2471C82.933 83.4989 83.0927 83.801 83.2003 84.1536C83.3079 84.5025 83.3617 84.8891 83.3617 85.3136V85.9125H78.7987V84.9305H81.9627V84.8226C81.9555 84.596 81.9125 84.3892 81.8335 84.2021C81.7546 84.0115 81.6327 83.8604 81.4676 83.7489C81.3026 83.6338 81.0892 83.5762 80.8273 83.5762C80.6157 83.5762 80.4309 83.623 80.2731 83.7165C80.1188 83.8064 79.9897 83.9359 79.8857 84.105C79.7852 84.2705 79.7099 84.4683 79.6597 84.6985C79.6094 84.9287 79.5843 85.1841 79.5843 85.4647V85.6805C79.5843 85.9251 79.6166 86.1517 79.6812 86.3603C79.7493 86.569 79.848 86.7506 79.9771 86.9053C80.1099 87.0563 80.2677 87.1751 80.4506 87.2614C80.6372 87.3441 80.8488 87.3855 81.0856 87.3855C81.3833 87.3855 81.6524 87.3279 81.8927 87.2128C82.1367 87.0941 82.3483 86.9197 82.5277 86.6895L83.2433 87.434C83.1214 87.6139 82.9564 87.7865 82.7483 87.952C82.5438 88.1175 82.2963 88.2524 82.0057 88.3567C81.7152 88.4574 81.3798 88.5077 80.9995 88.5077Z" fill="#F1C40F"/>
<path d="M87.5158 86.8028C87.5158 86.6805 87.4835 86.5708 87.4189 86.4736C87.3544 86.3765 87.2324 86.2884 87.053 86.2093C86.8773 86.1265 86.619 86.0492 86.2782 85.9772C85.9768 85.9125 85.6988 85.8316 85.4441 85.7344C85.1894 85.6373 84.9706 85.5204 84.7877 85.3837C84.6047 85.2435 84.4612 85.0798 84.3572 84.8927C84.2567 84.7021 84.2065 84.4827 84.2065 84.2345C84.2065 83.9935 84.2585 83.7669 84.3626 83.5547C84.4666 83.3388 84.6173 83.15 84.8146 82.9881C85.0119 82.8227 85.2522 82.6932 85.5356 82.5996C85.819 82.5025 86.1383 82.454 86.4934 82.454C86.9885 82.454 87.4136 82.5349 87.7687 82.6968C88.1274 82.8586 88.4018 83.0816 88.592 83.3658C88.7821 83.6464 88.8772 83.9629 88.8772 84.3154H87.4566C87.4566 84.1607 87.4207 84.0205 87.349 83.8946C87.2808 83.7687 87.175 83.668 87.0315 83.5924C86.888 83.5133 86.7069 83.4737 86.488 83.4737C86.2907 83.4737 86.1239 83.5061 85.9876 83.5708C85.8549 83.6356 85.7544 83.7201 85.6863 83.8244C85.6181 83.9287 85.584 84.0438 85.584 84.1697C85.584 84.2633 85.602 84.3478 85.6378 84.4233C85.6773 84.4953 85.7401 84.5618 85.8262 84.623C85.9123 84.6841 86.0289 84.7399 86.1759 84.7902C86.3266 84.8406 86.5114 84.8891 86.7302 84.9359C87.1642 85.0222 87.5427 85.1373 87.8655 85.2812C88.192 85.4215 88.4467 85.6085 88.6296 85.8424C88.8126 86.0762 88.9041 86.3747 88.9041 86.738C88.9041 86.997 88.8485 87.2344 88.7373 87.4502C88.626 87.6624 88.4646 87.8477 88.253 88.006C88.0413 88.1642 87.7884 88.2883 87.4943 88.3783C87.2001 88.4646 86.8683 88.5077 86.4988 88.5077C85.9643 88.5077 85.5123 88.4124 85.1428 88.2218C84.7733 88.0275 84.4935 87.7829 84.3034 87.488C84.1133 87.1894 84.0182 86.8801 84.0182 86.56H85.3796C85.3903 86.7866 85.4513 86.9682 85.5625 87.1049C85.6737 87.2416 85.8136 87.3405 85.9822 87.4017C86.1544 87.4592 86.3356 87.488 86.5257 87.488C86.7409 87.488 86.9221 87.4592 87.0692 87.4017C87.2162 87.3405 87.3275 87.2596 87.4028 87.1589C87.4781 87.0546 87.5158 86.9358 87.5158 86.8028Z" fill="#F1C40F"/>
<path d="M92.7407 82.5619V83.587H89.4045V82.5619H92.7407ZM90.2977 81.1267H91.7237V86.7164C91.7237 86.8891 91.747 87.0222 91.7936 87.1157C91.8402 87.2092 91.9102 87.2722 92.0035 87.3045C92.0967 87.3369 92.2079 87.3531 92.3371 87.3531C92.4304 87.3531 92.5164 87.3477 92.5954 87.3369C92.6743 87.3261 92.7407 87.3153 92.7945 87.3045L92.7998 88.3729C92.6815 88.4124 92.5469 88.4448 92.3963 88.47C92.2492 88.4952 92.0824 88.5077 91.8959 88.5077C91.5766 88.5077 91.2968 88.4538 91.0564 88.3459C90.8161 88.2344 90.6295 88.0563 90.4968 87.8117C90.3641 87.5635 90.2977 87.2362 90.2977 86.8297V81.1267Z" fill="#F1C40F"/>
<path d="M96.8947 87.1589V84.4665C96.8947 84.2687 96.8606 84.0978 96.7925 83.9539C96.7243 83.81 96.6203 83.6985 96.4804 83.6194C96.3405 83.5403 96.1629 83.5007 95.9477 83.5007C95.7576 83.5007 95.5907 83.5331 95.4473 83.5978C95.3074 83.6626 95.1997 83.7543 95.1244 83.873C95.0491 83.9881 95.0114 84.1212 95.0114 84.2723H93.5855C93.5855 84.0313 93.6429 83.8028 93.7576 83.587C93.8724 83.3676 94.0357 83.1734 94.2473 83.0043C94.4625 82.8317 94.719 82.6968 95.0168 82.5996C95.3181 82.5025 95.6553 82.454 96.0284 82.454C96.4696 82.454 96.8624 82.5295 97.2068 82.6806C97.5548 82.8281 97.8274 83.0511 98.0247 83.3496C98.2256 83.6482 98.326 84.0241 98.326 84.4773V87.024C98.326 87.3153 98.344 87.5653 98.3799 87.774C98.4193 87.979 98.4767 88.157 98.552 88.3081V88.3998H97.1046C97.0364 88.2524 96.9844 88.0653 96.9485 87.8387C96.9127 87.6085 96.8947 87.3819 96.8947 87.1589ZM97.0938 84.8442L97.1046 85.6913H96.206C95.9836 85.6913 95.788 85.7147 95.6194 85.7614C95.4508 85.8046 95.3127 85.8693 95.2051 85.9557C95.0975 86.0384 95.0168 86.1391 94.963 86.2578C94.9092 86.3729 94.8823 86.5042 94.8823 86.6517C94.8823 86.7956 94.9145 86.9251 94.9791 87.0402C95.0473 87.1553 95.1441 87.247 95.2697 87.3153C95.3988 87.3801 95.5495 87.4125 95.7217 87.4125C95.9728 87.4125 96.1916 87.3621 96.3782 87.2614C96.5647 87.1571 96.71 87.0312 96.814 86.8837C96.918 86.7362 96.9736 86.5959 96.9808 86.4628L97.3898 87.0779C97.3395 87.2254 97.2642 87.3819 97.1638 87.5473C97.0633 87.7128 96.9342 87.8675 96.7763 88.0114C96.6185 88.1552 96.4284 88.2739 96.206 88.3675C95.9836 88.461 95.7253 88.5077 95.4311 88.5077C95.0544 88.5077 94.7172 88.4322 94.4195 88.2811C94.1218 88.1301 93.8868 87.9232 93.7146 87.6606C93.5424 87.3981 93.4563 87.0995 93.4563 86.765C93.4563 86.4556 93.5137 86.1823 93.6285 85.9449C93.7433 85.7075 93.9137 85.5078 94.1397 85.346C94.3657 85.1805 94.6455 85.0564 94.9791 84.9737C95.3163 84.8873 95.702 84.8442 96.136 84.8442H97.0938Z" fill="#F1C40F"/>
<path d="M103.072 87.0132V82.5619H104.503V88.3998H103.158L103.072 87.0132ZM103.255 85.8046L103.696 85.7938C103.696 86.1859 103.653 86.5474 103.567 86.8783C103.481 87.2092 103.346 87.497 103.163 87.7416C102.984 87.9826 102.756 88.1714 102.48 88.3081C102.204 88.4412 101.877 88.5077 101.501 88.5077C101.214 88.5077 100.952 88.4682 100.715 88.389C100.478 88.3063 100.274 88.1786 100.102 88.006C99.9331 87.8297 99.8022 87.6049 99.7089 87.3315C99.6157 87.0546 99.569 86.7218 99.569 86.3333V82.5619H100.99V86.3441C100.99 86.5384 101.011 86.7002 101.054 86.8297C101.101 86.9592 101.164 87.0653 101.242 87.1481C101.325 87.2272 101.42 87.2848 101.528 87.3207C101.639 87.3531 101.757 87.3693 101.883 87.3693C102.227 87.3693 102.498 87.3009 102.695 87.1643C102.896 87.024 103.04 86.8369 103.126 86.6031C103.212 86.3657 103.255 86.0995 103.255 85.8046Z" fill="#F1C40F"/>
<path d="M107.183 83.7543V88.3998H105.762V82.5619H107.108L107.183 83.7543ZM108.953 82.5241L108.932 83.8514C108.853 83.837 108.763 83.8262 108.663 83.819C108.566 83.8118 108.474 83.8082 108.388 83.8082C108.17 83.8082 107.978 83.8388 107.813 83.9C107.648 83.9575 107.509 84.042 107.398 84.1536C107.291 84.2651 107.208 84.4017 107.151 84.5636C107.093 84.7219 107.061 84.9017 107.054 85.1032L106.747 85.0654C106.747 84.6949 106.785 84.3514 106.86 84.0349C106.936 83.7183 107.045 83.4413 107.188 83.2039C107.332 82.9665 107.511 82.7831 107.726 82.6536C107.945 82.5205 108.196 82.454 108.48 82.454C108.559 82.454 108.643 82.4612 108.733 82.4755C108.826 82.4863 108.9 82.5025 108.953 82.5241Z" fill="#F1C40F"/>
<path d="M112.758 87.1589V84.4665C112.758 84.2687 112.724 84.0978 112.655 83.9539C112.587 83.81 112.483 83.6985 112.343 83.6194C112.203 83.5403 112.026 83.5007 111.811 83.5007C111.62 83.5007 111.454 83.5331 111.31 83.5978C111.17 83.6626 111.063 83.7543 110.987 83.873C110.912 83.9881 110.874 84.1212 110.874 84.2723H109.448C109.448 84.0313 109.506 83.8028 109.621 83.587C109.735 83.3676 109.899 83.1734 110.11 83.0043C110.325 82.8317 110.582 82.6968 110.88 82.5996C111.181 82.5025 111.518 82.454 111.891 82.454C112.333 82.454 112.725 82.5295 113.07 82.6806C113.418 82.8281 113.69 83.0511 113.888 83.3496C114.089 83.6482 114.189 84.0241 114.189 84.4773V87.024C114.189 87.3153 114.207 87.5653 114.243 87.774C114.282 87.979 114.34 88.157 114.415 88.3081V88.3998H112.968C112.899 88.2524 112.847 88.0653 112.811 87.8387C112.776 87.6085 112.758 87.3819 112.758 87.1589ZM112.957 84.8442L112.968 85.6913H112.069C111.846 85.6913 111.651 85.7147 111.482 85.7614C111.314 85.8046 111.176 85.8693 111.068 85.9557C110.96 86.0384 110.88 86.1391 110.826 86.2578C110.772 86.3729 110.745 86.5042 110.745 86.6517C110.745 86.7956 110.777 86.9251 110.842 87.0402C110.91 87.1553 111.007 87.247 111.133 87.3153C111.262 87.3801 111.412 87.4125 111.585 87.4125C111.836 87.4125 112.055 87.3621 112.241 87.2614C112.428 87.1571 112.573 87.0312 112.677 86.8837C112.781 86.7362 112.837 86.5959 112.844 86.4628L113.253 87.0779C113.202 87.2254 113.127 87.3819 113.027 87.5473C112.926 87.7128 112.797 87.8675 112.639 88.0114C112.481 88.1552 112.291 88.2739 112.069 88.3675C111.846 88.461 111.588 88.5077 111.294 88.5077C110.917 88.5077 110.58 88.4322 110.282 88.2811C109.985 88.1301 109.75 87.9232 109.578 87.6606C109.405 87.3981 109.319 87.0995 109.319 86.765C109.319 86.4556 109.377 86.1823 109.491 85.9449C109.606 85.7075 109.777 85.5078 110.003 85.346C110.229 85.1805 110.508 85.0564 110.842 84.9737C111.179 84.8873 111.565 84.8442 111.999 84.8442H112.957Z" fill="#F1C40F"/>
<path d="M116.863 83.8082V88.3998H115.443V82.5619H116.777L116.863 83.8082ZM116.637 85.2704H116.218C116.221 84.846 116.279 84.4611 116.39 84.1158C116.501 83.7705 116.657 83.4737 116.858 83.2255C117.062 82.9773 117.305 82.7867 117.584 82.6536C117.864 82.5205 118.176 82.454 118.521 82.454C118.8 82.454 119.053 82.4935 119.279 82.5727C119.505 82.6518 119.699 82.7777 119.86 82.9504C120.025 83.123 120.151 83.3496 120.237 83.6302C120.327 83.9072 120.372 84.2489 120.372 84.6553V88.3998H118.94V84.6445C118.94 84.3784 118.901 84.1679 118.822 84.0133C118.747 83.8586 118.635 83.7489 118.488 83.6841C118.345 83.6194 118.167 83.587 117.956 83.587C117.737 83.587 117.545 83.632 117.38 83.7219C117.218 83.8082 117.082 83.9287 116.971 84.0834C116.863 84.2381 116.781 84.4161 116.723 84.6176C116.666 84.819 116.637 85.0366 116.637 85.2704Z" fill="#F1C40F"/>
<path d="M124.38 82.5619V83.587H121.044V82.5619H124.38ZM121.937 81.1267H123.363V86.7164C123.363 86.8891 123.387 87.0222 123.433 87.1157C123.48 87.2092 123.55 87.2722 123.643 87.3045C123.737 87.3369 123.848 87.3531 123.977 87.3531C124.07 87.3531 124.156 87.3477 124.235 87.3369C124.314 87.3261 124.38 87.3153 124.434 87.3045L124.44 88.3729C124.321 88.4124 124.187 88.4448 124.036 88.47C123.889 88.4952 123.722 88.5077 123.536 88.5077C123.216 88.5077 122.937 88.4538 122.696 88.3459C122.456 88.2344 122.269 88.0563 122.137 87.8117C122.004 87.5635 121.937 87.2362 121.937 86.8297V81.1267Z" fill="#F1C40F"/>
<path d="M24.3497 59.1382H18.3056C17.6293 59.1382 16.9845 59.0505 16.5544 58.4623C16.1281 57.88 15.9844 57.2386 16.3211 56.5508C16.6489 55.8799 17.2001 55.5538 17.9305 55.4848C18.2878 55.4513 18.6668 55.4493 18.9917 55.3202C19.6473 55.0601 20.0774 54.2877 20.0144 53.6295C19.9495 52.9477 19.3864 52.2541 18.6048 52.1674C17.5555 52.0501 16.4894 52.0728 15.4292 52.061C14.246 52.0482 13.0628 52.0787 11.8795 52.0639C10.9916 52.0531 10.2258 51.2067 10.2209 50.2756C10.2159 49.3583 10.9582 48.5248 11.8894 48.5021C13.4122 48.4647 14.936 48.4903 16.4589 48.4775C16.7709 48.4746 17.0918 48.4627 17.3921 48.3859C18.3252 48.1474 18.8253 47.4637 18.7416 46.5956C18.6599 45.7453 17.9295 45.0645 17.0101 45.0507C15.3908 45.0271 13.7705 45.0557 12.1502 45.033C10.9316 45.0153 10.2189 44.2034 10.3213 43.0092C10.401 42.0781 11.1639 41.4121 12.2319 41.4022C14.3592 41.3825 16.4874 41.3855 18.6147 41.3904C19.2919 41.3914 19.8599 41.1717 20.2241 40.5904C20.9486 39.4356 20.1611 38.0612 18.7554 38.0533C15.9027 38.0356 13.049 38.0563 10.1962 38.0385C9.7198 38.0356 9.23057 37.9696 8.76988 37.8474C8.02667 37.6503 7.68804 37.0591 7.59059 36.3488C7.49215 35.6374 7.88985 34.8699 8.52871 34.6127C8.98743 34.4285 9.50422 34.3122 9.99739 34.3073C12.8747 34.2797 15.7521 34.2935 18.6294 34.2935C21.5068 34.2925 24.3841 34.2876 24.3526 34.2945V59.1382H24.3497Z" fill="white"/>
<path d="M4.70638 45.0026C5.69765 45.0026 6.68992 44.9829 7.6802 45.0085C8.64489 45.0331 9.30443 45.7721 9.30443 46.7702C9.30443 47.6904 8.60945 48.5003 7.7117 48.5131C5.68092 48.5427 3.64916 48.5427 1.61838 48.5141C0.652708 48.5003 -0.00780537 47.7279 6.9663e-05 46.7337C0.00696032 45.7208 0.647791 45.0331 1.66072 45.0075C2.67463 44.9829 3.6905 45.0026 4.70638 45.0026Z" fill="white"/>
<path d="M4.44984 37.9428C4.98916 37.9428 5.52946 37.928 6.06878 37.9477C6.59432 37.9665 6.95255 38.5281 6.95255 39.2867C6.95255 39.9863 6.57463 40.6021 6.0855 40.6119C4.9803 40.6336 3.87412 40.6346 2.76892 40.6129C2.24338 40.6021 1.88416 40.0149 1.88809 39.2601C1.89203 38.4906 2.24043 37.9674 2.79155 37.9477C3.34366 37.928 3.89675 37.9428 4.44984 37.9428Z" fill="white"/>
<path d="M6.38678 51.9916C6.9902 51.9916 7.5956 51.968 8.19804 51.9965C9.20309 52.0448 9.8636 52.7257 9.90298 53.7099C9.94334 54.7041 9.28578 55.5386 8.28565 55.5898C7.03352 55.6539 5.77252 55.6578 4.52137 55.5898C3.53896 55.5366 2.88042 54.6804 2.91585 53.6912C2.94932 52.7463 3.65807 52.0409 4.64836 52.0015C5.22717 51.9778 5.80698 51.9975 6.38678 51.9975C6.38678 51.9965 6.38678 51.9946 6.38678 51.9916Z" fill="white"/>
<path d="M38.6352 75.3361C31.4613 75.2928 26.0809 73.5161 22.494 70.0061C18.9503 66.4961 17.1784 60.7977 17.1784 52.911C17.1784 45.761 18.9071 40.1493 22.3643 36.076C25.8216 31.9593 30.705 29.9009 37.0146 29.9009C40.9041 29.9009 44.2965 30.4859 47.192 31.6559C50.0875 32.8259 52.3131 34.4943 53.8689 36.661C55.4247 38.8276 56.2026 41.3843 56.2026 44.331C56.2026 46.671 55.684 48.751 54.6468 50.571C53.6528 52.391 52.1619 54.016 50.1739 55.446C51.7729 55.706 53.1558 56.5727 54.3227 58.046C55.5327 59.5194 56.1377 61.2311 56.1377 63.1811C56.1377 65.2611 55.5759 67.2327 54.4523 69.0961C53.3719 70.9161 51.5136 72.4111 48.8774 73.5811C46.2845 74.7511 42.8704 75.3361 38.6352 75.3361ZM34.1623 51.091C34.9402 51.481 35.9126 51.676 37.0794 51.676C38.4623 51.676 39.6508 51.351 40.6448 50.701C41.6819 50.0077 42.2005 48.9893 42.2005 47.646C42.2005 46.346 41.6819 45.371 40.6448 44.721C39.6508 44.0277 38.4407 43.681 37.0146 43.681C35.891 43.681 34.9402 43.876 34.1623 44.266C33.5573 44.526 33.1035 44.981 32.801 45.631C32.4985 46.281 32.3473 46.9743 32.3473 47.711C32.3473 48.4477 32.4985 49.141 32.801 49.791C33.1035 50.3977 33.5573 50.831 34.1623 51.091ZM34.1623 66.3011C34.9834 66.6477 35.9558 66.8211 37.0794 66.8211C38.4623 66.8211 39.6508 66.5394 40.6448 65.9761C41.6819 65.3694 42.2005 64.4811 42.2005 63.3111C42.2005 62.1844 41.6819 61.3177 40.6448 60.7111C39.6076 60.1044 38.3975 59.8011 37.0146 59.8011C35.9342 59.8011 34.9834 59.9744 34.1623 60.3211C33.5573 60.5811 33.1035 60.9927 32.801 61.5561C32.4985 62.0761 32.3473 62.6611 32.3473 63.3111C32.3473 63.9611 32.4985 64.5677 32.801 65.1311C33.1035 65.6511 33.5573 66.0411 34.1623 66.3011Z" fill="white"/>
<path d="M69.8683 75.4011C66.4974 75.4011 63.7316 74.6428 61.5708 73.1261C59.41 71.5661 58.3296 69.3344 58.3296 66.4311C58.3296 63.9177 59.4316 61.9244 61.6356 60.4511C63.8397 58.9777 66.5839 58.241 69.8683 58.241C71.0784 58.241 72.202 58.3494 73.2392 58.566C74.3196 58.7394 75.0542 58.956 75.4432 59.216C75.4432 58.1327 74.9894 57.2444 74.0819 56.551C73.1743 55.8144 71.7914 55.446 69.9331 55.446C69.112 55.446 68.4422 55.511 67.9236 55.641C67.405 55.771 66.8432 55.966 66.2381 56.226C65.6331 56.486 65.0713 56.681 64.5527 56.811C64.0773 56.941 63.4291 57.006 62.608 57.006C61.2251 57.006 60.1447 56.6594 59.3668 55.966C58.5889 55.2294 58.2 54.1244 58.2 52.651C58.2 50.961 58.805 49.531 60.015 48.361C61.2683 47.191 62.8241 46.3243 64.6824 45.761C66.5407 45.1543 68.399 44.851 70.2572 44.851C73.9306 44.851 76.999 45.5443 79.4623 46.931C81.9688 48.2743 83.8055 50.0727 84.9723 52.326C86.1824 54.5794 86.7874 57.071 86.7874 59.8011C86.7874 61.2744 86.6578 62.6394 86.3985 63.8961C86.1824 65.1527 85.8799 66.1277 85.4909 66.8211C86.0959 67.3411 86.5497 67.9478 86.8522 68.6411C87.198 69.3344 87.3708 70.0494 87.3708 70.7861C87.3708 72.0428 86.9387 73.1261 86.0743 74.0361C85.2532 74.9461 84.1512 75.4011 82.7683 75.4011C81.7311 75.4011 80.8884 75.2494 80.2402 74.9461C79.5919 74.6428 78.9005 74.1661 78.1658 73.5161C77.0854 74.1661 75.8969 74.6428 74.6005 74.9461C73.3472 75.2494 71.7698 75.4011 69.8683 75.4011ZM71.1648 68.8361C72.0723 68.8361 72.7854 68.6411 73.304 68.2511C73.8658 67.8611 74.1467 67.3844 74.1467 66.8211C74.1467 66.2577 73.8658 65.7811 73.304 65.3911C72.7854 65.0011 72.0723 64.8061 71.1648 64.8061C70.2572 64.8061 69.5226 65.0011 68.9608 65.3911C68.4422 65.7811 68.1829 66.2577 68.1829 66.8211C68.1829 67.3844 68.4422 67.8611 68.9608 68.2511C69.5226 68.6411 70.2572 68.8361 71.1648 68.8361Z" fill="white"/>
<path d="M96.9152 75.4011C94.1493 75.4011 92.291 73.7761 91.3403 70.5261C90.4328 67.2761 89.979 62.7911 89.979 57.071C89.979 54.471 90.087 52.3044 90.3031 50.571C90.5624 48.7943 91.1458 47.2993 92.0534 46.086C93.0041 44.8293 94.4519 44.201 96.3966 44.201C97.6066 44.201 98.6654 44.4827 99.573 45.046C100.524 45.6093 101.129 46.411 101.388 47.451C102.339 46.5843 103.57 45.9343 105.083 45.501C106.596 45.0677 108.216 44.851 109.945 44.851C111.328 44.851 112.732 45.1977 114.158 45.891C115.628 46.5843 116.838 47.5377 117.789 48.751C118.783 49.921 119.28 51.1994 119.28 52.586C119.28 53.9727 118.783 55.2077 117.789 56.291C116.838 57.331 115.563 57.851 113.964 57.851C113.445 57.851 112.948 57.786 112.473 57.656C112.041 57.526 111.652 57.396 111.306 57.266C110.442 56.9194 109.75 56.746 109.232 56.746C107.546 56.746 106.055 57.4177 104.759 58.7611C103.506 60.0611 102.879 61.7511 102.879 63.8311C102.879 66.1277 102.793 68.0344 102.62 69.5511C102.447 71.0678 101.928 72.4328 101.064 73.6461C100.2 74.8161 98.8167 75.4011 96.9152 75.4011Z" fill="white"/>
<path d="M132.224 75.4011C128.853 75.4011 126.087 74.6428 123.926 73.1261C121.765 71.5661 120.685 69.3344 120.685 66.4311C120.685 63.9177 121.787 61.9244 123.991 60.4511C126.195 58.9777 128.939 58.241 132.224 58.241C133.434 58.241 134.557 58.3494 135.594 58.566C136.675 58.7394 137.41 58.956 137.798 59.216C137.798 58.1327 137.345 57.2444 136.437 56.551C135.53 55.8144 134.147 55.446 132.288 55.446C131.467 55.446 130.797 55.511 130.279 55.641C129.76 55.771 129.198 55.966 128.593 56.226C127.988 56.486 127.427 56.681 126.908 56.811C126.433 56.941 125.784 57.006 124.963 57.006C123.58 57.006 122.5 56.6594 121.722 55.966C120.944 55.2294 120.555 54.1244 120.555 52.651C120.555 50.961 121.16 49.531 122.37 48.361C123.624 47.191 125.179 46.3243 127.038 45.761C128.896 45.1543 130.754 44.851 132.613 44.851C136.286 44.851 139.354 45.5443 141.818 46.931C144.324 48.2743 146.161 50.0727 147.328 52.326C148.538 54.5794 149.143 57.071 149.143 59.8011C149.143 61.2744 149.013 62.6394 148.754 63.8961C148.538 65.1527 148.235 66.1277 147.846 66.8211C148.451 67.3411 148.905 67.9478 149.208 68.6411C149.553 69.3344 149.726 70.0494 149.726 70.7861C149.726 72.0428 149.294 73.1261 148.43 74.0361C147.609 74.9461 146.507 75.4011 145.124 75.4011C144.086 75.4011 143.244 75.2494 142.595 74.9461C141.947 74.6428 141.256 74.1661 140.521 73.5161C139.441 74.1661 138.252 74.6428 136.956 74.9461C135.702 75.2494 134.125 75.4011 132.224 75.4011ZM133.52 68.8361C134.428 68.8361 135.141 68.6411 135.659 68.2511C136.221 67.8611 136.502 67.3844 136.502 66.8211C136.502 66.2577 136.221 65.7811 135.659 65.3911C135.141 65.0011 134.428 64.8061 133.52 64.8061C132.613 64.8061 131.878 65.0011 131.316 65.3911C130.797 65.7811 130.538 66.2577 130.538 66.8211C130.538 67.3844 130.797 67.8611 131.316 68.2511C131.878 68.6411 132.613 68.8361 133.52 68.8361Z" fill="white"/>
<path d="M171.572 75.4011C163.707 75.4011 158.629 72.9961 156.338 68.1861C154.091 63.3327 152.967 58.4144 152.967 53.431C152.967 49.7477 153.291 46.1077 153.94 42.511C154.631 38.9143 155.733 35.9026 157.246 33.476C158.758 31.0493 160.725 29.8359 163.145 29.8359C164.657 29.8359 165.954 30.3126 167.034 31.2659C168.115 32.2193 168.655 33.606 168.655 35.426C168.655 36.336 168.568 37.246 168.395 38.156C168.223 39.066 167.963 40.1926 167.618 41.536C167.531 41.796 167.358 42.446 167.099 43.486C166.883 44.526 166.732 45.501 166.645 46.411C168.547 45.371 170.708 44.851 173.128 44.851C175.548 44.851 177.795 45.3927 179.869 46.476C181.987 47.5593 183.694 49.2277 184.99 51.481C186.33 53.691 187 56.3994 187 59.6061C187 62.3361 186.373 64.9144 185.12 67.3411C183.867 69.7244 182.052 71.6744 179.675 73.1911C177.341 74.6644 174.64 75.4011 171.572 75.4011ZM171.183 65.1311C172.35 65.1311 173.365 64.6977 174.23 63.8311C175.137 62.9211 175.591 61.8594 175.591 60.6461C175.591 59.4327 175.137 58.371 174.23 57.461C173.365 56.551 172.35 56.096 171.183 56.096C170.016 56.096 169 56.551 168.136 57.461C167.272 58.371 166.84 59.4327 166.84 60.6461C166.84 61.8594 167.272 62.9211 168.136 63.8311C169 64.6977 170.016 65.1311 171.183 65.1311Z" fill="white"/>
</svg>
