<svg width="187" height="104" viewBox="0 0 187 104" fill="none" xmlns="http://www.w3.org/2000/svg">
<path d="M180.221 77.8178C179.705 78.536 179.206 79.2691 178.668 79.9696C177.692 81.2377 176.697 82.4919 175.467 83.5314C175.227 83.7343 175.26 83.8013 175.574 83.9363C176.348 84.2674 177.142 84.5639 177.877 84.9689C180.067 86.1778 181.841 87.8449 183.186 89.9652C184.832 92.5575 185.695 95.3438 185.307 98.4415C185.147 99.7125 184.684 100.877 183.853 101.85C182.817 103.062 181.462 103.735 179.884 103.93C178.882 104.053 177.86 104.058 176.948 103.574C175.084 102.586 174.146 100.955 173.946 98.8898C173.868 98.0878 173.906 97.276 173.853 96.471C173.817 95.8956 173.759 95.3163 173.642 94.7537C173.342 93.3171 172.816 91.9614 172.101 90.6786C171.442 89.4952 170.687 88.3848 169.692 87.4508C169.45 87.2232 169.202 87.1454 168.874 87.2774C166.532 88.2183 164.104 88.8627 161.627 89.3376C159.303 89.783 156.956 89.9997 154.595 90.0539C152.39 90.1042 150.185 90.0155 148.008 89.6401C146.303 89.3465 144.579 89.0726 142.926 88.577C141.239 88.0715 139.604 87.3631 137.992 86.6389C136.175 85.8221 134.545 84.6802 133.006 83.4141C131.491 82.1678 130.213 80.6977 129.02 79.1508C128.95 79.0602 128.914 78.941 128.863 78.8356C136.854 83.5412 145.454 85.7384 154.673 85.5502C163.894 85.362 172.404 82.8397 180.099 77.6631C180.141 77.7143 180.181 77.7655 180.221 77.8178Z" fill="#C3ABA9"/>
<path d="M58.553 27.9964C57.7763 25.9411 56.8373 24.4002 54.3635 24.3539C53.3762 24.3351 52.1959 23.6799 51.4744 22.9489C50.2203 21.6769 48.9435 21.5212 47.3183 21.8966C46.4077 22.1065 45.3328 22.1222 44.4488 21.8473C39.7848 20.399 35.1327 21.3685 30.4825 21.7882C28.3641 21.9793 26.3481 21.8532 24.5909 20.5477C22.7354 19.1703 21.8416 17.3042 22.2629 14.9849C22.7275 12.4241 24.274 10.6546 26.7369 9.8979C27.8738 9.54812 28.555 9.03382 29.1535 7.99534C32.0082 3.04728 36.2913 1.41665 41.7871 2.92905C42.3885 3.09457 43.2981 2.91329 43.805 2.53987C51.3769 -3.03974 62.6224 1.04225 64.9771 10.2142C65.1621 10.9344 65.9063 11.5699 66.5098 12.1128C68.3496 13.7651 70.5812 15.0972 72.0489 17.0215C74.5049 20.2443 74.1938 24.6731 71.8431 27.6417C69.1863 30.9976 65.801 31.8282 61.5052 30.297C60.9707 30.1059 60.1202 30.2478 59.6378 30.5699C58.2489 31.4941 57.0272 32.6745 55.6235 33.5721C55.1343 33.8844 54.082 33.9583 53.6646 33.6421C46.898 28.5098 39.1775 27.3057 30.9805 27.9442C30.0326 28.0181 29.0827 28.0605 28.1199 28.1186C27.678 26.286 27.2753 24.612 26.8717 22.939C26.9928 22.8158 27.1149 22.6927 27.236 22.5695C27.8847 23.2306 28.6761 23.8041 29.1486 24.5736C29.8298 25.683 30.6498 25.8544 31.8704 25.7352C38.7955 25.0603 45.5061 25.7322 51.6653 29.3157C55.1402 31.3365 55.721 31.2518 58.553 27.9964ZM27.484 12.301C25.3971 13.0853 24.3114 14.6854 24.6402 16.4923C24.9561 18.2254 26.6631 19.5575 28.8494 19.4452C31.7858 19.2945 34.7123 18.924 37.5956 18.653C37.4253 17.4658 37.2658 16.3574 37.0315 14.7297C44.0452 21.1222 47.4935 21.1616 53.1527 15.2972C54.2099 17.2628 52.884 18.7092 52.0758 20.3231C55.2583 23.1124 58.4064 22.605 61.7601 20.4699C61.3841 21.5902 60.7836 22.4355 60.322 23.3509C60.0483 23.8937 59.7018 24.6662 59.8898 25.1342C61.3644 28.8172 65.863 29.8418 68.8585 27.2525C72.4318 24.1647 71.9967 18.9339 67.8613 15.782C66.4074 14.6735 64.9111 13.2547 63.1087 15.3465C62.966 15.512 62.5791 15.4677 62.2395 15.5327C63.3607 9.90578 61.4343 6.03069 56.4012 3.53401C51.1712 0.939778 47.5723 2.10536 41.9967 8.24363C41.8678 8.00027 41.6975 7.79533 41.6453 7.56379C41.0822 5.09567 40.4385 4.61584 37.8358 4.76363C34.1099 4.97546 31.0475 7.7973 29.9125 12.1118C29.6438 13.1326 29.4892 14.1839 29.2825 15.2214C29.1378 15.2499 28.9931 15.2775 28.8484 15.3061C28.3936 14.304 27.9388 13.3001 27.484 12.301Z" fill="#C3ABA9"/>
<path d="M21.6751 80.5439V88.3998H20.1953V80.5439H21.6751ZM24.8337 83.9377V85.1086H21.2876V83.9377H24.8337ZM25.248 80.5439V81.7148H21.2876V80.5439H25.248Z" fill="#C3ABA9"/>
<path d="M29.1707 87.1589V84.4665C29.1707 84.2687 29.1366 84.0978 29.0684 83.9539C29.0003 83.81 28.8962 83.6985 28.7563 83.6194C28.6164 83.5403 28.4389 83.5007 28.2236 83.5007C28.0335 83.5007 27.8667 83.5331 27.7232 83.5978C27.5833 83.6626 27.4757 83.7543 27.4004 83.873C27.325 83.9881 27.2874 84.1212 27.2874 84.2723H25.8614C25.8614 84.0313 25.9188 83.8028 26.0336 83.587C26.1484 83.3676 26.3116 83.1734 26.5233 83.0043C26.7385 82.8317 26.995 82.6968 27.2927 82.5996C27.5941 82.5025 27.9313 82.454 28.3043 82.454C28.7456 82.454 29.1384 82.5295 29.4828 82.6806C29.8307 82.8281 30.1034 83.0511 30.3007 83.3496C30.5016 83.6482 30.602 84.0241 30.602 84.4773V87.024C30.602 87.3153 30.6199 87.5653 30.6558 87.774C30.6953 87.979 30.7527 88.157 30.828 88.3081V88.3998H29.3805C29.3124 88.2524 29.2604 88.0653 29.2245 87.8387C29.1886 87.6085 29.1707 87.3819 29.1707 87.1589ZM29.3698 84.8442L29.3805 85.6913H28.4819C28.2595 85.6913 28.064 85.7147 27.8954 85.7614C27.7268 85.8046 27.5887 85.8693 27.4811 85.9557C27.3734 86.0384 27.2927 86.1391 27.2389 86.2578C27.1851 86.3729 27.1582 86.5042 27.1582 86.6517C27.1582 86.7956 27.1905 86.9251 27.2551 87.0402C27.3232 87.1553 27.4201 87.247 27.5456 87.3153C27.6748 87.3801 27.8254 87.4125 27.9976 87.4125C28.2487 87.4125 28.4676 87.3621 28.6541 87.2614C28.8406 87.1571 28.9859 87.0312 29.09 86.8837C29.194 86.7362 29.2496 86.5959 29.2568 86.4628L29.6657 87.0779C29.6155 87.2254 29.5402 87.3819 29.4397 87.5473C29.3393 87.7128 29.2101 87.8675 29.0523 88.0114C28.8945 88.1552 28.7043 88.2739 28.4819 88.3675C28.2595 88.461 28.0012 88.5077 27.7071 88.5077C27.3304 88.5077 26.9932 88.4322 26.6955 88.2811C26.3977 88.1301 26.1627 87.9232 25.9906 87.6606C25.8184 87.3981 25.7323 87.0995 25.7323 86.765C25.7323 86.4556 25.7897 86.1823 25.9045 85.9449C26.0193 85.7075 26.1896 85.5078 26.4156 85.346C26.6416 85.1805 26.9215 85.0564 27.2551 84.9737C27.5923 84.8873 27.9779 84.8442 28.412 84.8442H29.3698Z" fill="#C3ABA9"/>
<path d="M35.0843 86.8028C35.0843 86.6805 35.052 86.5708 34.9874 86.4736C34.9229 86.3765 34.8009 86.2884 34.6215 86.2093C34.4458 86.1265 34.1875 86.0492 33.8467 85.9772C33.5454 85.9125 33.2673 85.8316 33.0126 85.7344C32.7579 85.6373 32.5391 85.5204 32.3562 85.3837C32.1732 85.2435 32.0297 85.0798 31.9257 84.8927C31.8253 84.7021 31.775 84.4827 31.775 84.2345C31.775 83.9935 31.8271 83.7669 31.9311 83.5547C32.0351 83.3388 32.1858 83.15 32.3831 82.9881C32.5804 82.8227 32.8207 82.6932 33.1041 82.5996C33.3875 82.5025 33.7068 82.454 34.0619 82.454C34.557 82.454 34.9821 82.5349 35.3372 82.6968C35.6959 82.8586 35.9704 83.0816 36.1605 83.3658C36.3506 83.6464 36.4457 83.9629 36.4457 84.3154H35.0251C35.0251 84.1607 34.9892 84.0205 34.9175 83.8946C34.8493 83.7687 34.7435 83.668 34.6 83.5924C34.4565 83.5133 34.2754 83.4737 34.0565 83.4737C33.8592 83.4737 33.6924 83.5061 33.5561 83.5708C33.4234 83.6356 33.3229 83.7201 33.2548 83.8244C33.1866 83.9287 33.1525 84.0438 33.1525 84.1697C33.1525 84.2633 33.1705 84.3478 33.2064 84.4233C33.2458 84.4953 33.3086 84.5618 33.3947 84.623C33.4808 84.6841 33.5974 84.7399 33.7445 84.7902C33.8951 84.8406 34.0799 84.8891 34.2987 84.9359C34.7327 85.0222 35.1112 85.1373 35.4341 85.2812C35.7605 85.4215 36.0152 85.6085 36.1981 85.8424C36.3811 86.0762 36.4726 86.3747 36.4726 86.738C36.4726 86.997 36.417 87.2344 36.3058 87.4502C36.1946 87.6624 36.0331 87.8477 35.8215 88.006C35.6098 88.1642 35.3569 88.2883 35.0628 88.3783C34.7686 88.4646 34.4368 88.5077 34.0673 88.5077C33.5328 88.5077 33.0808 88.4124 32.7113 88.2218C32.3418 88.0275 32.062 87.7829 31.8719 87.488C31.6818 87.1894 31.5867 86.8801 31.5867 86.56H32.9481C32.9588 86.7866 33.0198 86.9682 33.131 87.1049C33.2422 87.2416 33.3821 87.3405 33.5507 87.4017C33.7229 87.4592 33.9041 87.488 34.0942 87.488C34.3094 87.488 34.4906 87.4592 34.6377 87.4017C34.7848 87.3405 34.896 87.2596 34.9713 87.1589C35.0466 87.0546 35.0843 86.9358 35.0843 86.8028Z" fill="#C3ABA9"/>
<path d="M40.3092 82.5619V83.587H36.973V82.5619H40.3092ZM37.8662 81.1267H39.2922V86.7164C39.2922 86.8891 39.3155 87.0222 39.3621 87.1157C39.4088 87.2092 39.4787 87.2722 39.572 87.3045C39.6652 87.3369 39.7765 87.3531 39.9056 87.3531C39.9989 87.3531 40.085 87.3477 40.1639 87.3369C40.2428 87.3261 40.3092 87.3153 40.363 87.3045L40.3684 88.3729C40.25 88.4124 40.1154 88.4448 39.9648 88.47C39.8177 88.4952 39.6509 88.5077 39.4644 88.5077C39.1451 88.5077 38.8653 88.4538 38.6249 88.3459C38.3846 88.2344 38.1981 88.0563 38.0653 87.8117C37.9326 87.5635 37.8662 87.2362 37.8662 86.8297V81.1267Z" fill="#C3ABA9"/>
<path d="M45.5878 80.5439V88.3998H44.1081V80.5439H45.5878ZM48.7464 83.9377V85.1086H45.2004V83.9377H48.7464ZM49.1608 80.5439V81.7148H45.2004V80.5439H49.1608Z" fill="#C3ABA9"/>
<path d="M49.6881 85.5402V85.4269C49.6881 84.9989 49.7491 84.605 49.871 84.2453C49.993 83.882 50.1706 83.5672 50.4038 83.3011C50.6369 83.0349 50.9221 82.8281 51.2593 82.6806C51.5965 82.5295 51.9804 82.454 52.4108 82.454C52.8485 82.454 53.2359 82.5295 53.5731 82.6806C53.9139 82.8281 54.2009 83.0349 54.4341 83.3011C54.6672 83.5672 54.8448 83.882 54.9668 84.2453C55.0887 84.605 55.1497 84.9989 55.1497 85.4269V85.5402C55.1497 85.9647 55.0887 86.3585 54.9668 86.7218C54.8448 87.0815 54.6672 87.3963 54.4341 87.666C54.2009 87.9322 53.9157 88.1391 53.5785 88.2865C53.2413 88.434 52.8557 88.5077 52.4216 88.5077C51.9911 88.5077 51.6055 88.434 51.2647 88.2865C50.9239 88.1391 50.6369 87.9322 50.4038 87.666C50.1706 87.3963 49.993 87.0815 49.871 86.7218C49.7491 86.3585 49.6881 85.9647 49.6881 85.5402ZM51.1087 85.4269V85.5402C51.1087 85.7956 51.1338 86.0348 51.184 86.2578C51.2342 86.4808 51.3113 86.6769 51.4154 86.8459C51.5194 87.015 51.6539 87.1481 51.8189 87.2452C51.9875 87.3387 52.1884 87.3855 52.4216 87.3855C52.6512 87.3855 52.8485 87.3387 53.0135 87.2452C53.1785 87.1481 53.313 87.015 53.4171 86.8459C53.5247 86.6769 53.6036 86.4808 53.6538 86.2578C53.704 86.0348 53.7292 85.7956 53.7292 85.5402V85.4269C53.7292 85.1751 53.704 84.9395 53.6538 84.7201C53.6036 84.4971 53.5247 84.301 53.4171 84.132C53.313 83.9593 53.1767 83.8244 53.0081 83.7273C52.8431 83.6266 52.644 83.5762 52.4108 83.5762C52.1812 83.5762 51.9839 83.6266 51.8189 83.7273C51.6539 83.8244 51.5194 83.9593 51.4154 84.132C51.3113 84.301 51.2342 84.4971 51.184 84.7201C51.1338 84.9395 51.1087 85.1751 51.1087 85.4269Z" fill="#C3ABA9"/>
<path d="M55.93 85.5402V85.4269C55.93 84.9989 55.9909 84.605 56.1129 84.2453C56.2349 83.882 56.4124 83.5672 56.6456 83.3011C56.8788 83.0349 57.164 82.8281 57.5012 82.6806C57.8384 82.5295 58.2222 82.454 58.6527 82.454C59.0903 82.454 59.4778 82.5295 59.815 82.6806C60.1558 82.8281 60.4427 83.0349 60.6759 83.3011C60.9091 83.5672 61.0867 83.882 61.2086 84.2453C61.3306 84.605 61.3916 84.9989 61.3916 85.4269V85.5402C61.3916 85.9647 61.3306 86.3585 61.2086 86.7218C61.0867 87.0815 60.9091 87.3963 60.6759 87.666C60.4427 87.9322 60.1576 88.1391 59.8204 88.2865C59.4831 88.434 59.0975 88.5077 58.6635 88.5077C58.233 88.5077 57.8474 88.434 57.5066 88.2865C57.1658 88.1391 56.8788 87.9322 56.6456 87.666C56.4124 87.3963 56.2349 87.0815 56.1129 86.7218C55.9909 86.3585 55.93 85.9647 55.93 85.5402ZM57.3505 85.4269V85.5402C57.3505 85.7956 57.3756 86.0348 57.4258 86.2578C57.4761 86.4808 57.5532 86.6769 57.6572 86.8459C57.7613 87.015 57.8958 87.1481 58.0608 87.2452C58.2294 87.3387 58.4303 87.3855 58.6635 87.3855C58.893 87.3855 59.0903 87.3387 59.2554 87.2452C59.4204 87.1481 59.5549 87.015 59.6589 86.8459C59.7665 86.6769 59.8455 86.4808 59.8957 86.2578C59.9459 86.0348 59.971 85.7956 59.971 85.5402V85.4269C59.971 85.1751 59.9459 84.9395 59.8957 84.7201C59.8455 84.4971 59.7665 84.301 59.6589 84.132C59.5549 83.9593 59.4186 83.8244 59.25 83.7273C59.085 83.6266 58.8859 83.5762 58.6527 83.5762C58.4231 83.5762 58.2258 83.6266 58.0608 83.7273C57.8958 83.8244 57.7613 83.9593 57.6572 84.132C57.5532 84.301 57.4761 84.4971 57.4258 84.7201C57.3756 84.9395 57.3505 85.1751 57.3505 85.4269Z" fill="#C3ABA9"/>
<path d="M65.9169 87.1589V80.1123H67.3482V88.3998H66.0568L65.9169 87.1589ZM62.1772 85.551V85.4377C62.1772 84.9917 62.2274 84.587 62.3279 84.2237C62.4319 83.8568 62.5826 83.5421 62.7799 83.2795C62.9772 83.0169 63.2157 82.8137 63.4955 82.6698C63.7789 82.5259 64.1 82.454 64.4587 82.454C64.8067 82.454 65.1098 82.5241 65.3681 82.6644C65.6299 82.8047 65.8524 83.0043 66.0353 83.2633C66.2218 83.5223 66.3707 83.8298 66.4819 84.1859C66.5931 84.5384 66.6738 84.9269 66.7241 85.3514V85.6589C66.6738 86.0726 66.5931 86.4521 66.4819 86.7974C66.3707 87.1427 66.2218 87.4448 66.0353 87.7038C65.8524 87.9592 65.6299 88.157 65.3681 88.2973C65.1062 88.4376 64.7995 88.5077 64.4479 88.5077C64.0928 88.5077 63.7735 88.434 63.4901 88.2865C63.2103 88.1391 62.9718 87.9322 62.7745 87.666C62.5808 87.3999 62.4319 87.0869 62.3279 86.7272C62.2274 86.3675 62.1772 85.9754 62.1772 85.551ZM63.6031 85.4377V85.551C63.6031 85.8028 63.6247 86.0384 63.6677 86.2578C63.7108 86.4772 63.7807 86.6715 63.8776 86.8405C63.9744 87.006 64.0982 87.1355 64.2488 87.229C64.4031 87.3225 64.5896 87.3693 64.8085 87.3693C65.0883 87.3693 65.3179 87.3081 65.4972 87.1858C65.6802 87.0599 65.8219 86.8891 65.9223 86.6733C66.0228 86.4538 66.0873 86.2075 66.116 85.9341V85.087C66.1017 84.8712 66.064 84.6715 66.003 84.4881C65.9456 84.3046 65.8631 84.1464 65.7555 84.0133C65.6515 83.8802 65.5223 83.7759 65.3681 83.7003C65.2138 83.6248 65.0309 83.587 64.8192 83.587C64.6004 83.587 64.4139 83.6356 64.2596 83.7327C64.1054 83.8262 63.9798 83.9575 63.8829 84.1266C63.7861 84.2956 63.7143 84.4917 63.6677 84.7147C63.6247 84.9377 63.6031 85.1787 63.6031 85.4377Z" fill="#C3ABA9"/>
<path d="M71.4862 80.5439H74.3327C74.9282 80.5439 75.4393 80.6339 75.8662 80.8137C76.2931 80.9936 76.6214 81.2598 76.8509 81.6123C77.0805 81.9648 77.1953 82.3982 77.1953 82.9126C77.1953 83.319 77.1236 83.6716 76.9801 83.9701C76.8366 84.2687 76.6339 84.5187 76.372 84.7201C76.1138 84.9215 75.8088 85.0798 75.4573 85.1949L74.9945 85.4323H72.4816L72.4709 84.2615H74.3488C74.6537 84.2615 74.9066 84.2075 75.1075 84.0996C75.3084 83.9917 75.4591 83.8424 75.5595 83.6518C75.6636 83.4611 75.7156 83.2435 75.7156 82.9989C75.7156 82.7363 75.6653 82.5097 75.5649 82.3191C75.4645 82.1248 75.312 81.9756 75.1075 81.8712C74.903 81.7669 74.6448 81.7148 74.3327 81.7148H72.9659V88.3998H71.4862V80.5439ZM75.9093 88.3998L74.0959 84.882L75.6618 84.8766L77.4967 88.3243V88.3998H75.9093Z" fill="#C3ABA9"/>
<path d="M80.9996 88.5077C80.5584 88.5077 80.162 88.4358 79.8104 88.2919C79.4589 88.148 79.1594 87.9484 78.9118 87.693C78.6679 87.434 78.4796 87.1337 78.3468 86.792C78.2177 86.4467 78.1531 86.0762 78.1531 85.6805V85.4647C78.1531 85.015 78.2177 84.6068 78.3468 84.2399C78.476 83.8694 78.6589 83.5511 78.8957 83.2849C79.1324 83.0187 79.4158 82.8137 79.7459 82.6698C80.0759 82.5259 80.44 82.454 80.8382 82.454C81.2507 82.454 81.6148 82.5241 81.9305 82.6644C82.2462 82.8011 82.5099 82.9953 82.7215 83.2471C82.9332 83.4989 83.0928 83.801 83.2004 84.1536C83.308 84.5025 83.3618 84.8891 83.3618 85.3136V85.9125H78.7988V84.9305H81.9628V84.8226C81.9556 84.596 81.9126 84.3892 81.8337 84.2021C81.7547 84.0115 81.6328 83.8604 81.4678 83.7489C81.3027 83.6338 81.0893 83.5762 80.8274 83.5762C80.6158 83.5762 80.431 83.623 80.2732 83.7165C80.1189 83.8064 79.9898 83.9359 79.8858 84.105C79.7853 84.2705 79.71 84.4683 79.6598 84.6985C79.6096 84.9287 79.5844 85.1841 79.5844 85.4647V85.6805C79.5844 85.9251 79.6167 86.1517 79.6813 86.3603C79.7495 86.569 79.8481 86.7506 79.9772 86.9053C80.11 87.0563 80.2678 87.1751 80.4508 87.2614C80.6373 87.3441 80.849 87.3855 81.0857 87.3855C81.3835 87.3855 81.6525 87.3279 81.8929 87.2128C82.1368 87.0941 82.3484 86.9197 82.5278 86.6895L83.2435 87.434C83.1215 87.6139 82.9565 87.7865 82.7484 87.952C82.5439 88.1175 82.2964 88.2524 82.0059 88.3567C81.7153 88.4574 81.3799 88.5077 80.9996 88.5077Z" fill="#C3ABA9"/>
<path d="M87.5159 86.8028C87.5159 86.6805 87.4836 86.5708 87.4191 86.4736C87.3545 86.3765 87.2325 86.2884 87.0532 86.2093C86.8774 86.1265 86.6191 86.0492 86.2783 85.9772C85.977 85.9125 85.699 85.8316 85.4443 85.7344C85.1896 85.6373 84.9707 85.5204 84.7878 85.3837C84.6048 85.2435 84.4613 85.0798 84.3573 84.8927C84.2569 84.7021 84.2066 84.4827 84.2066 84.2345C84.2066 83.9935 84.2587 83.7669 84.3627 83.5547C84.4667 83.3388 84.6174 83.15 84.8147 82.9881C85.012 82.8227 85.2523 82.6932 85.5357 82.5996C85.8191 82.5025 86.1384 82.454 86.4935 82.454C86.9886 82.454 87.4137 82.5349 87.7688 82.6968C88.1275 82.8586 88.402 83.0816 88.5921 83.3658C88.7822 83.6464 88.8773 83.9629 88.8773 84.3154H87.4567C87.4567 84.1607 87.4208 84.0205 87.3491 83.8946C87.2809 83.7687 87.1751 83.668 87.0316 83.5924C86.8881 83.5133 86.707 83.4737 86.4882 83.4737C86.2909 83.4737 86.124 83.5061 85.9877 83.5708C85.855 83.6356 85.7546 83.7201 85.6864 83.8244C85.6182 83.9287 85.5842 84.0438 85.5842 84.1697C85.5842 84.2633 85.6021 84.3478 85.638 84.4233C85.6774 84.4953 85.7402 84.5618 85.8263 84.623C85.9124 84.6841 86.029 84.7399 86.1761 84.7902C86.3267 84.8406 86.5115 84.8891 86.7303 84.9359C87.1644 85.0222 87.5428 85.1373 87.8657 85.2812C88.1921 85.4215 88.4468 85.6085 88.6298 85.8424C88.8127 86.0762 88.9042 86.3747 88.9042 86.738C88.9042 86.997 88.8486 87.2344 88.7374 87.4502C88.6262 87.6624 88.4647 87.8477 88.2531 88.006C88.0414 88.1642 87.7885 88.2883 87.4944 88.3783C87.2002 88.4646 86.8684 88.5077 86.4989 88.5077C85.9644 88.5077 85.5124 88.4124 85.1429 88.2218C84.7734 88.0275 84.4936 87.7829 84.3035 87.488C84.1134 87.1894 84.0183 86.8801 84.0183 86.56H85.3797C85.3904 86.7866 85.4514 86.9682 85.5626 87.1049C85.6738 87.2416 85.8137 87.3405 85.9823 87.4017C86.1545 87.4592 86.3357 87.488 86.5258 87.488C86.7411 87.488 86.9222 87.4592 87.0693 87.4017C87.2164 87.3405 87.3276 87.2596 87.4029 87.1589C87.4782 87.0546 87.5159 86.9358 87.5159 86.8028Z" fill="#C3ABA9"/>
<path d="M92.7408 82.5619V83.587H89.4046V82.5619H92.7408ZM90.2978 81.1267H91.7238V86.7164C91.7238 86.8891 91.7471 87.0222 91.7937 87.1157C91.8404 87.2092 91.9103 87.2722 92.0036 87.3045C92.0969 87.3369 92.2081 87.3531 92.3372 87.3531C92.4305 87.3531 92.5166 87.3477 92.5955 87.3369C92.6744 87.3261 92.7408 87.3153 92.7946 87.3045L92.8 88.3729C92.6816 88.4124 92.5471 88.4448 92.3964 88.47C92.2493 88.4952 92.0825 88.5077 91.896 88.5077C91.5767 88.5077 91.2969 88.4538 91.0565 88.3459C90.8162 88.2344 90.6297 88.0563 90.4969 87.8117C90.3642 87.5635 90.2978 87.2362 90.2978 86.8297V81.1267Z" fill="#C3ABA9"/>
<path d="M96.8948 87.1589V84.4665C96.8948 84.2687 96.8608 84.0978 96.7926 83.9539C96.7244 83.81 96.6204 83.6985 96.4805 83.6194C96.3406 83.5403 96.163 83.5007 95.9478 83.5007C95.7577 83.5007 95.5909 83.5331 95.4474 83.5978C95.3075 83.6626 95.1999 83.7543 95.1245 83.873C95.0492 83.9881 95.0115 84.1212 95.0115 84.2723H93.5856C93.5856 84.0313 93.643 83.8028 93.7578 83.587C93.8726 83.3676 94.0358 83.1734 94.2474 83.0043C94.4627 82.8317 94.7192 82.6968 95.0169 82.5996C95.3182 82.5025 95.6554 82.454 96.0285 82.454C96.4697 82.454 96.8626 82.5295 97.2069 82.6806C97.5549 82.8281 97.8275 83.0511 98.0248 83.3496C98.2257 83.6482 98.3262 84.0241 98.3262 84.4773V87.024C98.3262 87.3153 98.3441 87.5653 98.38 87.774C98.4194 87.979 98.4768 88.157 98.5522 88.3081V88.3998H97.1047C97.0365 88.2524 96.9845 88.0653 96.9486 87.8387C96.9128 87.6085 96.8948 87.3819 96.8948 87.1589ZM97.0939 84.8442L97.1047 85.6913H96.2061C95.9837 85.6913 95.7882 85.7147 95.6196 85.7614C95.451 85.8046 95.3129 85.8693 95.2052 85.9557C95.0976 86.0384 95.0169 86.1391 94.9631 86.2578C94.9093 86.3729 94.8824 86.5042 94.8824 86.6517C94.8824 86.7956 94.9147 86.9251 94.9792 87.0402C95.0474 87.1553 95.1442 87.247 95.2698 87.3153C95.3989 87.3801 95.5496 87.4125 95.7218 87.4125C95.9729 87.4125 96.1917 87.3621 96.3783 87.2614C96.5648 87.1571 96.7101 87.0312 96.8141 86.8837C96.9182 86.7362 96.9738 86.5959 96.9809 86.4628L97.3899 87.0779C97.3397 87.2254 97.2643 87.3819 97.1639 87.5473C97.0634 87.7128 96.9343 87.8675 96.7765 88.0114C96.6186 88.1552 96.4285 88.2739 96.2061 88.3675C95.9837 88.461 95.7254 88.5077 95.4312 88.5077C95.0546 88.5077 94.7174 88.4322 94.4196 88.2811C94.1219 88.1301 93.8869 87.9232 93.7147 87.6606C93.5425 87.3981 93.4564 87.0995 93.4564 86.765C93.4564 86.4556 93.5138 86.1823 93.6286 85.9449C93.7434 85.7075 93.9138 85.5078 94.1398 85.346C94.3658 85.1805 94.6456 85.0564 94.9792 84.9737C95.3164 84.8873 95.7021 84.8442 96.1361 84.8442H97.0939Z" fill="#C3ABA9"/>
<path d="M103.072 87.0132V82.5619H104.503V88.3998H103.158L103.072 87.0132ZM103.255 85.8046L103.696 85.7938C103.696 86.1859 103.653 86.5474 103.567 86.8783C103.481 87.2092 103.347 87.497 103.164 87.7416C102.984 87.9826 102.756 88.1714 102.48 88.3081C102.204 88.4412 101.878 88.5077 101.501 88.5077C101.214 88.5077 100.952 88.4682 100.715 88.389C100.479 88.3063 100.274 88.1786 100.102 88.006C99.9333 87.8297 99.8023 87.6049 99.7091 87.3315C99.6158 87.0546 99.5692 86.7218 99.5692 86.3333V82.5619H100.99V86.3441C100.99 86.5384 101.011 86.7002 101.054 86.8297C101.101 86.9592 101.164 87.0653 101.243 87.1481C101.325 87.2272 101.42 87.2848 101.528 87.3207C101.639 87.3531 101.757 87.3693 101.883 87.3693C102.227 87.3693 102.498 87.3009 102.695 87.1643C102.896 87.024 103.04 86.8369 103.126 86.6031C103.212 86.3657 103.255 86.0995 103.255 85.8046Z" fill="#C3ABA9"/>
<path d="M107.183 83.7543V88.3998H105.763V82.5619H107.108L107.183 83.7543ZM108.953 82.5241L108.932 83.8514C108.853 83.837 108.763 83.8262 108.663 83.819C108.566 83.8118 108.475 83.8082 108.388 83.8082C108.17 83.8082 107.978 83.8388 107.813 83.9C107.648 83.9575 107.51 84.042 107.398 84.1536C107.291 84.2651 107.208 84.4017 107.151 84.5636C107.093 84.7219 107.061 84.9017 107.054 85.1032L106.747 85.0654C106.747 84.6949 106.785 84.3514 106.86 84.0349C106.936 83.7183 107.045 83.4413 107.189 83.2039C107.332 82.9665 107.511 82.7831 107.727 82.6536C107.945 82.5205 108.197 82.454 108.48 82.454C108.559 82.454 108.643 82.4612 108.733 82.4755C108.826 82.4863 108.9 82.5025 108.953 82.5241Z" fill="#C3ABA9"/>
<path d="M112.758 87.1589V84.4665C112.758 84.2687 112.724 84.0978 112.656 83.9539C112.587 83.81 112.483 83.6985 112.343 83.6194C112.204 83.5403 112.026 83.5007 111.811 83.5007C111.621 83.5007 111.454 83.5331 111.31 83.5978C111.17 83.6626 111.063 83.7543 110.987 83.873C110.912 83.9881 110.874 84.1212 110.874 84.2723H109.449C109.449 84.0313 109.506 83.8028 109.621 83.587C109.735 83.3676 109.899 83.1734 110.11 83.0043C110.326 82.8317 110.582 82.6968 110.88 82.5996C111.181 82.5025 111.518 82.454 111.891 82.454C112.333 82.454 112.725 82.5295 113.07 82.6806C113.418 82.8281 113.69 83.0511 113.888 83.3496C114.089 83.6482 114.189 84.0241 114.189 84.4773V87.024C114.189 87.3153 114.207 87.5653 114.243 87.774C114.282 87.979 114.34 88.157 114.415 88.3081V88.3998H112.968C112.899 88.2524 112.847 88.0653 112.812 87.8387C112.776 87.6085 112.758 87.3819 112.758 87.1589ZM112.957 84.8442L112.968 85.6913H112.069C111.847 85.6913 111.651 85.7147 111.482 85.7614C111.314 85.8046 111.176 85.8693 111.068 85.9557C110.961 86.0384 110.88 86.1391 110.826 86.2578C110.772 86.3729 110.745 86.5042 110.745 86.6517C110.745 86.7956 110.778 86.9251 110.842 87.0402C110.91 87.1553 111.007 87.247 111.133 87.3153C111.262 87.3801 111.413 87.4125 111.585 87.4125C111.836 87.4125 112.055 87.3621 112.241 87.2614C112.428 87.1571 112.573 87.0312 112.677 86.8837C112.781 86.7362 112.837 86.5959 112.844 86.4628L113.253 87.0779C113.203 87.2254 113.127 87.3819 113.027 87.5473C112.926 87.7128 112.797 87.8675 112.639 88.0114C112.482 88.1552 112.291 88.2739 112.069 88.3675C111.847 88.461 111.588 88.5077 111.294 88.5077C110.917 88.5077 110.58 88.4322 110.283 88.2811C109.985 88.1301 109.75 87.9232 109.578 87.6606C109.405 87.3981 109.319 87.0995 109.319 86.765C109.319 86.4556 109.377 86.1823 109.492 85.9449C109.606 85.7075 109.777 85.5078 110.003 85.346C110.229 85.1805 110.509 85.0564 110.842 84.9737C111.179 84.8873 111.565 84.8442 111.999 84.8442H112.957Z" fill="#C3ABA9"/>
<path d="M116.863 83.8082V88.3998H115.443V82.5619H116.777L116.863 83.8082ZM116.637 85.2704H116.218C116.221 84.846 116.279 84.4611 116.39 84.1158C116.501 83.7705 116.657 83.4737 116.858 83.2255C117.062 82.9773 117.305 82.7867 117.584 82.6536C117.864 82.5205 118.176 82.454 118.521 82.454C118.801 82.454 119.053 82.4935 119.279 82.5727C119.505 82.6518 119.699 82.7777 119.861 82.9504C120.026 83.123 120.151 83.3496 120.237 83.6302C120.327 83.9072 120.372 84.2489 120.372 84.6553V88.3998H118.94V84.6445C118.94 84.3784 118.901 84.1679 118.822 84.0133C118.747 83.8586 118.636 83.7489 118.488 83.6841C118.345 83.6194 118.167 83.587 117.956 83.587C117.737 83.587 117.545 83.632 117.38 83.7219C117.219 83.8082 117.082 83.9287 116.971 84.0834C116.863 84.2381 116.781 84.4161 116.724 84.6176C116.666 84.819 116.637 85.0366 116.637 85.2704Z" fill="#C3ABA9"/>
<path d="M124.381 82.5619V83.587H121.044V82.5619H124.381ZM121.938 81.1267H123.364V86.7164C123.364 86.8891 123.387 87.0222 123.434 87.1157C123.48 87.2092 123.55 87.2722 123.643 87.3045C123.737 87.3369 123.848 87.3531 123.977 87.3531C124.07 87.3531 124.156 87.3477 124.235 87.3369C124.314 87.3261 124.381 87.3153 124.434 87.3045L124.44 88.3729C124.321 88.4124 124.187 88.4448 124.036 88.47C123.889 88.4952 123.722 88.5077 123.536 88.5077C123.216 88.5077 122.937 88.4538 122.696 88.3459C122.456 88.2344 122.269 88.0563 122.137 87.8117C122.004 87.5635 121.938 87.2362 121.938 86.8297V81.1267Z" fill="#C3ABA9"/>
<path d="M24.3482 59.1382H18.3041C17.6278 59.1382 16.9831 59.0505 16.5529 58.4623C16.1267 57.88 15.9829 57.2386 16.3196 56.5508C16.6474 55.8799 17.1986 55.5538 17.9291 55.4848C18.2864 55.4513 18.6654 55.4493 18.9902 55.3202C19.6458 55.0601 20.076 54.2877 20.013 53.6295C19.948 52.9477 19.385 52.2541 18.6034 52.1674C17.554 52.0501 16.4879 52.0728 15.4277 52.061C14.2445 52.0482 13.0613 52.0787 11.8781 52.0639C10.9902 52.0531 10.2243 51.2067 10.2194 50.2756C10.2145 49.3583 10.9567 48.5248 11.8879 48.5021C13.4108 48.4647 14.9346 48.4903 16.4574 48.4775C16.7694 48.4746 17.0904 48.4627 17.3906 48.3859C18.3238 48.1474 18.8239 47.4637 18.7402 46.5956C18.6585 45.7453 17.9281 45.0645 17.0087 45.0507C15.3894 45.0271 13.7691 45.0557 12.1488 45.033C10.9301 45.0153 10.2174 44.2034 10.3198 43.0092C10.3995 42.0781 11.1624 41.4121 12.2305 41.4022C14.3577 41.3825 16.4859 41.3855 18.6132 41.3904C19.2904 41.3914 19.8584 41.1717 20.2227 40.5904C20.9472 39.4356 20.1597 38.0612 18.754 38.0533C15.9012 38.0356 13.0475 38.0563 10.1948 38.0385C9.71834 38.0356 9.2291 37.9696 8.76841 37.8474C8.0252 37.6503 7.68658 37.0591 7.58913 36.3488C7.49069 35.6374 7.88838 34.8699 8.52724 34.6127C8.98596 34.4285 9.50276 34.3122 9.99593 34.3073C12.8733 34.2797 15.7506 34.2935 18.628 34.2935C21.5053 34.2925 24.3826 34.2876 24.3511 34.2945V59.1382H24.3482Z" fill="white"/>
<path d="M4.70638 45.0026C5.69765 45.0026 6.68992 44.9829 7.6802 45.0085C8.64489 45.0331 9.30443 45.7721 9.30443 46.7702C9.30443 47.6904 8.60945 48.5003 7.7117 48.5131C5.68092 48.5427 3.64916 48.5427 1.61838 48.5141C0.652708 48.5003 -0.00780537 47.7279 6.9663e-05 46.7337C0.00696032 45.7208 0.647791 45.0331 1.66072 45.0075C2.67463 44.9829 3.6905 45.0026 4.70638 45.0026Z" fill="white"/>
<path d="M4.4485 37.9428C4.98782 37.9428 5.52812 37.928 6.06744 37.9477C6.59297 37.9665 6.9512 38.5281 6.9512 39.2867C6.9512 39.9863 6.57328 40.6021 6.08416 40.6119C4.97896 40.6336 3.87278 40.6346 2.76757 40.6129C2.24204 40.6021 1.88281 40.0149 1.88675 39.2601C1.89069 38.4906 2.23908 37.9674 2.79021 37.9477C3.34232 37.928 3.89541 37.9428 4.4485 37.9428Z" fill="white"/>
<path d="M6.38635 51.9916C6.98977 51.9916 7.59517 51.968 8.19761 51.9965C9.20266 52.0448 9.86318 52.7257 9.90255 53.7099C9.94291 54.7041 9.28535 55.5386 8.28522 55.5898C7.03309 55.6539 5.77209 55.6578 4.52094 55.5898C3.53853 55.5366 2.87999 54.6804 2.91543 53.6912C2.94889 52.7463 3.65765 52.0409 4.64793 52.0015C5.22675 51.9778 5.80655 51.9975 6.38635 51.9975C6.38635 51.9965 6.38635 51.9946 6.38635 51.9916Z" fill="white"/>
<path d="M38.6365 75.3361C31.4626 75.2928 26.0822 73.5161 22.4953 70.0061C18.9515 66.4961 17.1797 60.7977 17.1797 52.911C17.1797 45.761 18.9083 40.1493 22.3656 36.076C25.8229 31.9593 30.7063 29.9009 37.0159 29.9009C40.9053 29.9009 44.2978 30.4859 47.1933 31.6559C50.0888 32.8259 52.3144 34.4943 53.8702 36.661C55.426 38.8276 56.2038 41.3843 56.2038 44.331C56.2038 46.671 55.6852 48.751 54.6481 50.571C53.6541 52.391 52.1631 54.016 50.1752 55.446C51.7742 55.706 53.1571 56.5727 54.3239 58.046C55.534 59.5194 56.139 61.2311 56.139 63.1811C56.139 65.2611 55.5772 67.2327 54.4536 69.0961C53.3732 70.9161 51.5149 72.4111 48.8787 73.5811C46.2857 74.7511 42.8717 75.3361 38.6365 75.3361ZM34.1636 51.091C34.9415 51.481 35.9139 51.676 37.0807 51.676C38.4636 51.676 39.6521 51.351 40.646 50.701C41.6832 50.0077 42.2018 48.9893 42.2018 47.646C42.2018 46.346 41.6832 45.371 40.646 44.721C39.6521 44.0277 38.442 43.681 37.0159 43.681C35.8923 43.681 34.9415 43.876 34.1636 44.266C33.5586 44.526 33.1048 44.981 32.8023 45.631C32.4998 46.281 32.3485 46.9743 32.3485 47.711C32.3485 48.4477 32.4998 49.141 32.8023 49.791C33.1048 50.3977 33.5586 50.831 34.1636 51.091ZM34.1636 66.3011C34.9847 66.6477 35.9571 66.8211 37.0807 66.8211C38.4636 66.8211 39.6521 66.5394 40.646 65.9761C41.6832 65.3694 42.2018 64.4811 42.2018 63.3111C42.2018 62.1844 41.6832 61.3177 40.646 60.7111C39.6089 60.1044 38.3988 59.8011 37.0159 59.8011C35.9355 59.8011 34.9847 59.9744 34.1636 60.3211C33.5586 60.5811 33.1048 60.9927 32.8023 61.5561C32.4998 62.0761 32.3485 62.6611 32.3485 63.3111C32.3485 63.9611 32.4998 64.5677 32.8023 65.1311C33.1048 65.6511 33.5586 66.0411 34.1636 66.3011Z" fill="white"/>
<path d="M69.8696 75.4011C66.4987 75.4011 63.7329 74.6428 61.5721 73.1261C59.4113 71.5661 58.3309 69.3344 58.3309 66.4311C58.3309 63.9177 59.4329 61.9244 61.6369 60.4511C63.8409 58.9777 66.5852 58.241 69.8696 58.241C71.0796 58.241 72.2033 58.3494 73.2404 58.566C74.3208 58.7394 75.0555 58.956 75.4445 59.216C75.4445 58.1327 74.9907 57.2444 74.0832 56.551C73.1756 55.8144 71.7927 55.446 69.9344 55.446C69.1133 55.446 68.4435 55.511 67.9249 55.641C67.4063 55.771 66.8445 55.966 66.2394 56.226C65.6344 56.486 65.0726 56.681 64.554 56.811C64.0786 56.941 63.4304 57.006 62.6093 57.006C61.2264 57.006 60.146 56.6594 59.3681 55.966C58.5902 55.2294 58.2012 54.1244 58.2012 52.651C58.2012 50.961 58.8063 49.531 60.0163 48.361C61.2696 47.191 62.8254 46.3243 64.6837 45.761C66.5419 45.1543 68.4002 44.851 70.2585 44.851C73.9319 44.851 77.0002 45.5443 79.4636 46.931C81.9701 48.2743 83.8068 50.0727 84.9736 52.326C86.1837 54.5794 86.7887 57.071 86.7887 59.8011C86.7887 61.2744 86.659 62.6394 86.3997 63.8961C86.1837 65.1527 85.8812 66.1277 85.4922 66.8211C86.0972 67.3411 86.551 67.9478 86.8535 68.6411C87.1992 69.3344 87.3721 70.0494 87.3721 70.7861C87.3721 72.0428 86.9399 73.1261 86.0756 74.0361C85.2545 74.9461 84.1525 75.4011 82.7696 75.4011C81.7324 75.4011 80.8897 75.2494 80.2415 74.9461C79.5932 74.6428 78.9018 74.1661 78.1671 73.5161C77.0867 74.1661 75.8982 74.6428 74.6017 74.9461C73.3485 75.2494 71.7711 75.4011 69.8696 75.4011ZM71.1661 68.8361C72.0736 68.8361 72.7867 68.6411 73.3053 68.2511C73.8671 67.8611 74.148 67.3844 74.148 66.8211C74.148 66.2577 73.8671 65.7811 73.3053 65.3911C72.7867 65.0011 72.0736 64.8061 71.1661 64.8061C70.2585 64.8061 69.5239 65.0011 68.962 65.3911C68.4435 65.7811 68.1842 66.2577 68.1842 66.8211C68.1842 67.3844 68.4435 67.8611 68.962 68.2511C69.5239 68.6411 70.2585 68.8361 71.1661 68.8361Z" fill="white"/>
<path d="M96.9165 75.4011C94.1506 75.4011 92.2923 73.7761 91.3416 70.5261C90.434 67.2761 89.9803 62.7911 89.9803 57.071C89.9803 54.471 90.0883 52.3044 90.3044 50.571C90.5637 48.7943 91.1471 47.2993 92.0546 46.086C93.0054 44.8293 94.4531 44.201 96.3979 44.201C97.6079 44.201 98.6667 44.4827 99.5742 45.046C100.525 45.6093 101.13 46.411 101.389 47.451C102.34 46.5843 103.572 45.9343 105.084 45.501C106.597 45.0677 108.217 44.851 109.946 44.851C111.329 44.851 112.734 45.1977 114.16 45.891C115.629 46.5843 116.839 47.5377 117.79 48.751C118.784 49.921 119.281 51.1994 119.281 52.586C119.281 53.9727 118.784 55.2077 117.79 56.291C116.839 57.331 115.564 57.851 113.965 57.851C113.447 57.851 112.95 57.786 112.474 57.656C112.042 57.526 111.653 57.396 111.307 57.266C110.443 56.9194 109.752 56.746 109.233 56.746C107.548 56.746 106.057 57.4177 104.76 58.7611C103.507 60.0611 102.88 61.7511 102.88 63.8311C102.88 66.1277 102.794 68.0344 102.621 69.5511C102.448 71.0678 101.93 72.4328 101.065 73.6461C100.201 74.8161 98.818 75.4011 96.9165 75.4011Z" fill="white"/>
<path d="M132.225 75.4011C128.854 75.4011 126.088 74.6428 123.927 73.1261C121.767 71.5661 120.686 69.3344 120.686 66.4311C120.686 63.9177 121.788 61.9244 123.992 60.4511C126.196 58.9777 128.94 58.241 132.225 58.241C133.435 58.241 134.559 58.3494 135.596 58.566C136.676 58.7394 137.411 58.956 137.8 59.216C137.8 58.1327 137.346 57.2444 136.438 56.551C135.531 55.8144 134.148 55.446 132.29 55.446C131.469 55.446 130.799 55.511 130.28 55.641C129.762 55.771 129.2 55.966 128.595 56.226C127.99 56.486 127.428 56.681 126.909 56.811C126.434 56.941 125.786 57.006 124.965 57.006C123.582 57.006 122.501 56.6594 121.723 55.966C120.945 55.2294 120.557 54.1244 120.557 52.651C120.557 50.961 121.162 49.531 122.372 48.361C123.625 47.191 125.181 46.3243 127.039 45.761C128.897 45.1543 130.756 44.851 132.614 44.851C136.287 44.851 139.356 45.5443 141.819 46.931C144.325 48.2743 146.162 50.0727 147.329 52.326C148.539 54.5794 149.144 57.071 149.144 59.8011C149.144 61.2744 149.014 62.6394 148.755 63.8961C148.539 65.1527 148.236 66.1277 147.847 66.8211C148.453 67.3411 148.906 67.9478 149.209 68.6411C149.555 69.3344 149.727 70.0494 149.727 70.7861C149.727 72.0428 149.295 73.1261 148.431 74.0361C147.61 74.9461 146.508 75.4011 145.125 75.4011C144.088 75.4011 143.245 75.2494 142.597 74.9461C141.948 74.6428 141.257 74.1661 140.522 73.5161C139.442 74.1661 138.254 74.6428 136.957 74.9461C135.704 75.2494 134.126 75.4011 132.225 75.4011ZM133.521 68.8361C134.429 68.8361 135.142 68.6411 135.661 68.2511C136.222 67.8611 136.503 67.3844 136.503 66.8211C136.503 66.2577 136.222 65.7811 135.661 65.3911C135.142 65.0011 134.429 64.8061 133.521 64.8061C132.614 64.8061 131.879 65.0011 131.317 65.3911C130.799 65.7811 130.539 66.2577 130.539 66.8211C130.539 67.3844 130.799 67.8611 131.317 68.2511C131.879 68.6411 132.614 68.8361 133.521 68.8361Z" fill="white"/>
<path d="M171.573 75.4011C163.708 75.4011 158.63 72.9961 156.339 68.1861C154.092 63.3327 152.969 58.4144 152.969 53.431C152.969 49.7477 153.293 46.1077 153.941 42.511C154.632 38.9143 155.734 35.9026 157.247 33.476C158.76 31.0493 160.726 29.8359 163.146 29.8359C164.659 29.8359 165.955 30.3126 167.035 31.2659C168.116 32.2193 168.656 33.606 168.656 35.426C168.656 36.336 168.57 37.246 168.397 38.156C168.224 39.066 167.965 40.1926 167.619 41.536C167.532 41.796 167.36 42.446 167.1 43.486C166.884 44.526 166.733 45.501 166.646 46.411C168.548 45.371 170.709 44.851 173.129 44.851C175.549 44.851 177.796 45.3927 179.871 46.476C181.988 47.5593 183.695 49.2277 184.992 51.481C186.331 53.691 187.001 56.3994 187.001 59.6061C187.001 62.3361 186.375 64.9144 185.121 67.3411C183.868 69.7244 182.053 71.6744 179.676 73.1911C177.342 74.6644 174.641 75.4011 171.573 75.4011ZM171.184 65.1311C172.351 65.1311 173.367 64.6977 174.231 63.8311C175.138 62.9211 175.592 61.8594 175.592 60.6461C175.592 59.4327 175.138 58.371 174.231 57.461C173.367 56.551 172.351 56.096 171.184 56.096C170.017 56.096 169.002 56.551 168.137 57.461C167.273 58.371 166.841 59.4327 166.841 60.6461C166.841 61.8594 167.273 62.9211 168.137 63.8311C169.002 64.6977 170.017 65.1311 171.184 65.1311Z" fill="white"/>
</svg>
