<svg width="74" height="76" viewBox="0 0 74 76" fill="none" xmlns="http://www.w3.org/2000/svg">
<path d="M58.554 27.9964C57.7773 25.9411 56.8382 24.4002 54.3645 24.3539C53.3772 24.3351 52.1969 23.6799 51.4753 22.9489C50.2212 21.6769 48.9445 21.5212 47.3193 21.8966C46.4087 22.1065 45.3338 22.1222 44.4498 21.8473C39.7858 20.399 35.1336 21.3685 30.4834 21.7882C28.365 21.9793 26.349 21.8532 24.5919 20.5477C22.7364 19.1703 21.8425 17.3042 22.2639 14.9849C22.7285 12.4241 24.2749 10.6546 26.7379 9.8979C27.8748 9.54812 28.556 9.03382 29.1545 7.99534C32.0092 3.04728 36.2923 1.41665 41.788 2.92905C42.3895 3.09457 43.2991 2.91329 43.806 2.53987C51.3779 -3.03974 62.6234 1.04225 64.9781 10.2142C65.1631 10.9344 65.9073 11.5699 66.5107 12.1128C68.3506 13.7651 70.5821 15.0972 72.0499 17.0215C74.5059 20.2443 74.1948 24.6731 71.8441 27.6417C69.1873 30.9976 65.802 31.8282 61.5062 30.297C60.9716 30.1059 60.1211 30.2478 59.6388 30.5699C58.2498 31.4941 57.0282 32.6745 55.6245 33.5721C55.1352 33.8844 54.083 33.9583 53.6656 33.6421C46.899 28.5098 39.1785 27.3057 30.9815 27.9442C30.0336 28.0181 29.0836 28.0605 28.1209 28.1186C27.6789 26.286 27.2763 24.612 26.8727 22.939C26.9938 22.8158 27.1159 22.6927 27.237 22.5695C27.8857 23.2306 28.6771 23.8041 29.1496 24.5736C29.8308 25.683 30.6508 25.8544 31.8714 25.7352C38.7965 25.0603 45.507 25.7322 51.6663 29.3157C55.1412 31.3365 55.7219 31.2518 58.554 27.9964ZM27.485 12.301C25.3981 13.0853 24.3123 14.6854 24.6411 16.4923C24.9571 18.2254 26.664 19.5575 28.8503 19.4452C31.7867 19.2945 34.7133 18.924 37.5966 18.653C37.4263 17.4658 37.2668 16.3574 37.0325 14.7297C44.0462 21.1222 47.4945 21.1616 53.1537 15.2972C54.2109 17.2628 52.885 18.7092 52.0768 20.3231C55.2593 23.1124 58.4073 22.605 61.7611 20.4699C61.3851 21.5902 60.7846 22.4355 60.3229 23.3509C60.0493 23.8937 59.7028 24.6662 59.8908 25.1342C61.3654 28.8172 65.864 29.8418 68.8595 27.2525C72.4328 24.1647 71.9977 18.9339 67.8623 15.782C66.4084 14.6735 64.9121 13.2547 63.1097 15.3465C62.967 15.512 62.5801 15.4677 62.2405 15.5327C63.3617 9.90578 61.4353 6.03069 56.4021 3.53401C51.1721 0.939778 47.5732 2.10536 41.9977 8.24363C41.8688 8.00026 41.6985 7.79533 41.6463 7.56379C41.0832 5.09567 40.4394 4.61584 37.8367 4.76363C34.1109 4.97546 31.0485 7.7973 29.9135 12.1118C29.6447 13.1326 29.4902 14.1839 29.2835 15.2214C29.1388 15.2499 28.9941 15.2775 28.8494 15.3061C28.3946 14.304 27.9398 13.3001 27.485 12.301Z" fill="#F1C40F"/>
<path d="M24.3497 59.1382H18.3056C17.6293 59.1382 16.9845 59.0505 16.5544 58.4623C16.1281 57.88 15.9844 57.2386 16.3211 56.5508C16.6489 55.8799 17.2001 55.5538 17.9305 55.4848C18.2878 55.4513 18.6668 55.4493 18.9917 55.3202C19.6473 55.0601 20.0774 54.2877 20.0144 53.6295C19.9495 52.9477 19.3864 52.2541 18.6048 52.1674C17.5555 52.0501 16.4894 52.0728 15.4292 52.061C14.246 52.0482 13.0628 52.0787 11.8795 52.0639C10.9916 52.0531 10.2258 51.2067 10.2209 50.2756C10.2159 49.3583 10.9582 48.5248 11.8894 48.5021C13.4122 48.4647 14.936 48.4903 16.4589 48.4775C16.7709 48.4746 17.0918 48.4627 17.3921 48.3859C18.3252 48.1474 18.8253 47.4637 18.7416 46.5956C18.6599 45.7453 17.9295 45.0645 17.0101 45.0507C15.3908 45.0271 13.7705 45.0557 12.1502 45.033C10.9316 45.0153 10.2189 44.2034 10.3213 43.0092C10.401 42.0781 11.1639 41.4121 12.2319 41.4022C14.3592 41.3825 16.4874 41.3855 18.6147 41.3904C19.2919 41.3914 19.8599 41.1717 20.2241 40.5904C20.9486 39.4356 20.1611 38.0612 18.7554 38.0533C15.9027 38.0356 13.049 38.0563 10.1962 38.0385C9.7198 38.0356 9.23057 37.9696 8.76988 37.8474C8.02667 37.6503 7.68804 37.0591 7.59059 36.3488C7.49215 35.6374 7.88985 34.8699 8.52871 34.6127C8.98743 34.4285 9.50422 34.3122 9.99739 34.3073C12.8747 34.2797 15.7521 34.2935 18.6294 34.2935C21.5068 34.2925 24.3841 34.2876 24.3526 34.2945V59.1382H24.3497Z" fill="white"/>
<path d="M4.70638 45.0026C5.69765 45.0026 6.68992 44.9829 7.6802 45.0085C8.64489 45.0331 9.30443 45.7721 9.30443 46.7702C9.30443 47.6904 8.60945 48.5003 7.7117 48.5131C5.68092 48.5427 3.64916 48.5427 1.61838 48.5141C0.652708 48.5003 -0.00780537 47.7279 6.9663e-05 46.7337C0.00696032 45.7208 0.647791 45.0331 1.66072 45.0075C2.67463 44.9829 3.6905 45.0026 4.70638 45.0026Z" fill="white"/>
<path d="M4.44997 37.9428C4.98928 37.9428 5.52959 37.928 6.0689 37.9477C6.59444 37.9665 6.95267 38.5281 6.95267 39.2867C6.95267 39.9863 6.57475 40.6021 6.08563 40.6119C4.98042 40.6336 3.87424 40.6346 2.76904 40.6129C2.2435 40.6021 1.88428 40.0149 1.88822 39.2601C1.89215 38.4906 2.24055 37.9674 2.79167 37.9477C3.34378 37.928 3.89687 37.9428 4.44997 37.9428Z" fill="white"/>
<path d="M6.38684 51.9916C6.99026 51.9916 7.59566 51.968 8.1981 51.9965C9.20315 52.0448 9.86366 52.7257 9.90304 53.7099C9.9434 54.7041 9.28584 55.5386 8.28571 55.5898C7.03358 55.6539 5.77258 55.6578 4.52143 55.5898C3.53902 55.5366 2.88048 54.6804 2.91591 53.6912C2.94938 52.7463 3.65813 52.0409 4.64842 52.0015C5.22724 51.9778 5.80704 51.9975 6.38684 51.9975C6.38684 51.9965 6.38684 51.9946 6.38684 51.9916Z" fill="white"/>
<path d="M37.0146 29.9014C40.9041 29.9014 44.2969 30.4862 47.1924 31.6562C50.0877 32.8262 52.3134 34.4946 53.8691 36.6611C55.4248 38.8278 56.2021 41.3845 56.2021 44.3311C56.2021 46.671 55.6837 48.7513 54.6465 50.5713C53.6525 52.3912 52.1616 54.0164 50.1738 55.4463C51.7727 55.7063 53.1555 56.5727 54.3223 58.0459C55.5322 59.5191 56.1376 61.2308 56.1377 63.1807C56.1377 65.2606 55.5757 67.2324 54.4521 69.0957C53.3718 70.9156 51.5139 72.4111 48.8779 73.5811C46.2851 74.751 42.8707 75.3359 38.6357 75.3359C31.4619 75.2926 26.0811 73.5159 22.4941 70.0059C18.9505 66.4959 17.1787 60.7977 17.1787 52.9111C17.1787 45.7612 18.9071 40.1495 22.3643 36.0762C25.8215 31.9595 30.7051 29.9014 37.0146 29.9014ZM37.0146 59.8008C35.9343 59.8008 34.9832 59.9746 34.1621 60.3213C33.5573 60.5813 33.1032 60.9925 32.8008 61.5557C32.4983 62.0757 32.3477 62.6615 32.3477 63.3115C32.3477 63.9612 32.4984 64.5677 32.8008 65.1309C33.1032 65.6508 33.5573 66.0408 34.1621 66.3008C34.9831 66.6474 35.9556 66.8212 37.0791 66.8213C38.4618 66.8213 39.6506 66.5397 40.6445 65.9766C41.6816 65.37 42.2001 64.4813 42.2002 63.3115C42.2002 62.1849 41.6817 61.3176 40.6445 60.7109C39.6074 60.1044 38.3974 59.8008 37.0146 59.8008ZM37.0146 43.6807C35.891 43.6807 34.94 43.8756 34.1621 44.2656C33.5571 44.5256 33.1033 44.9809 32.8008 45.6309C32.4983 46.2808 32.3477 46.9743 32.3477 47.7109C32.3477 48.4476 32.4983 49.141 32.8008 49.791C33.1032 50.3976 33.5572 50.8308 34.1621 51.0908C34.9399 51.4808 35.9124 51.6757 37.0791 51.6758C38.4619 51.6758 39.6506 51.3511 40.6445 50.7012C41.6816 50.0079 42.2001 48.9896 42.2002 47.6465C42.2002 46.4277 41.7447 45.4941 40.833 44.8467L40.4561 44.5947C39.4989 43.9854 38.3516 43.6807 37.0146 43.6807Z" fill="white"/>
</svg>
