<svg width="180" height="100" viewBox="0 0 180 100" fill="none" xmlns="http://www.w3.org/2000/svg">
<path d="M175.008 74.8252C174.51 75.5159 174.03 76.2207 173.511 76.8943C172.57 78.1136 171.611 79.3196 170.424 80.3191C170.193 80.5142 170.225 80.5787 170.528 80.7085C171.274 81.0268 172.04 81.3119 172.748 81.7013C174.859 82.8637 176.57 84.4667 177.867 86.5054C179.454 88.998 180.286 91.6772 179.911 94.6557C179.758 95.8778 179.311 96.9976 178.51 97.9327C177.511 99.0989 176.204 99.746 174.683 99.9326C173.717 100.051 172.732 100.056 171.853 99.5906C170.055 98.6404 169.151 97.0725 168.958 95.0868C168.883 94.3156 168.919 93.535 168.869 92.761C168.834 92.2077 168.778 91.6507 168.665 91.1097C168.376 89.7284 167.868 88.4248 167.179 87.1913C166.543 86.0535 165.816 84.9858 164.857 84.0877C164.623 83.8689 164.384 83.794 164.068 83.921C161.809 84.8257 159.469 85.4453 157.081 85.902C154.84 86.3302 152.577 86.5386 150.301 86.5907C148.175 86.639 146.049 86.5538 143.95 86.1928C142.306 85.9105 140.644 85.6471 139.05 85.1706C137.424 84.6846 135.847 84.0034 134.294 83.3071C132.542 82.5217 130.97 81.4237 129.485 80.2063C128.025 79.0079 126.793 77.5944 125.643 76.107C125.575 76.0199 125.541 75.9053 125.492 75.8039C133.196 80.3286 141.488 82.4412 150.376 82.2602C159.267 82.0793 167.472 79.654 174.891 74.6765C174.931 74.7258 174.969 74.775 175.008 74.8252Z" fill="#C9AB81"/>
<path d="M56.4548 26.9195C55.7059 24.9433 54.8005 23.4616 52.4155 23.4171C51.4635 23.3991 50.3256 22.7691 49.6299 22.0661C48.4207 20.8431 47.1898 20.6934 45.6228 21.0543C44.7449 21.2561 43.7085 21.2713 42.8563 21.007C38.3595 19.6143 33.8741 20.5465 29.3906 20.9501C27.3482 21.1339 25.4044 21.0126 23.7103 19.7574C21.9213 18.4329 21.0595 16.6386 21.4657 14.4085C21.9137 11.9462 23.4047 10.2448 25.7793 9.51717C26.8755 9.18085 27.5323 8.68633 28.1094 7.68779C30.8617 2.93007 34.9912 1.36216 40.2899 2.81638C40.8698 2.97554 41.7468 2.80123 42.2355 2.44217C49.5359 -2.92282 60.3783 1.00216 62.6485 9.82129C62.8269 10.5138 63.5444 11.1249 64.1262 11.6469C65.9001 13.2356 68.0517 14.5165 69.4667 16.3667C71.8347 19.4656 71.5348 23.724 69.2684 26.5785C66.7068 29.8052 63.4429 30.6039 59.3011 29.1317C58.7857 28.9479 57.9657 29.0843 57.5007 29.3941C56.1615 30.2827 54.9837 31.4177 53.6303 32.2807C53.1586 32.5811 52.144 32.6521 51.7416 32.348C45.2176 27.4131 37.7739 26.2554 29.8708 26.8693C28.9569 26.9404 28.041 26.9811 27.1128 27.037C26.6867 25.2749 26.2985 23.6653 25.9094 22.0566C26.0261 21.9382 26.1438 21.8198 26.2605 21.7014C26.886 22.3371 27.649 22.8884 28.1046 23.6283C28.7614 24.6951 29.552 24.8599 30.7288 24.7453C37.4057 24.0964 43.8756 24.7425 49.814 28.1881C53.1643 30.1311 53.7242 30.0497 56.4548 26.9195ZM26.4997 11.8278C24.4876 12.5819 23.4408 14.1205 23.7578 15.858C24.0624 17.5244 25.7082 18.8053 27.8161 18.6973C30.6472 18.5523 33.4688 18.1961 36.2487 17.9356C36.0845 16.794 35.9308 15.7282 35.7049 14.1631C42.4671 20.3097 45.7918 20.3476 51.2481 14.7088C52.2674 16.5988 50.989 17.9896 50.2098 19.5414C53.2782 22.2234 56.3134 21.7355 59.5469 19.6825C59.1843 20.7597 58.6054 21.5725 58.1603 22.4527C57.8964 22.9747 57.5623 23.7174 57.7436 24.1674C59.1654 27.7087 63.5027 28.694 66.3908 26.2043C69.8359 23.2352 69.4164 18.2056 65.4293 15.1749C64.0275 14.1091 62.5849 12.7449 60.8471 14.7562C60.7095 14.9153 60.3365 14.8727 60.0091 14.9352C61.0901 9.52476 59.2327 5.79872 54.3801 3.39807C49.3376 0.903629 45.8677 2.02438 40.4921 7.92654C40.3677 7.69253 40.2036 7.49548 40.1532 7.27284C39.6104 4.89967 38.9897 4.43829 36.4803 4.58039C32.888 4.78408 29.9354 7.49737 28.8411 11.6459C28.582 12.6274 28.433 13.6383 28.2337 14.6359C28.0942 14.6633 27.9546 14.6898 27.8151 14.7173C27.3766 13.7538 26.9382 12.7885 26.4997 11.8278Z" fill="#C9AB81"/>
<path d="M19.8511 84.0418H18.6382V78.0178H22.8813V79.2235H19.8511V80.4291H21.6684V81.6348H19.8511V84.0418Z" fill="#C9AB81"/>
<path d="M27.2343 84.0418H26.9554L26.5074 83.4243C26.3975 83.5223 26.2806 83.6147 26.1566 83.7016C26.0355 83.7856 25.9073 83.8598 25.7721 83.9242C25.6368 83.9858 25.4974 84.0348 25.3537 84.0712C25.2128 84.1076 25.0691 84.1258 24.9226 84.1258C24.6042 84.1258 24.3042 84.0726 24.0224 83.9662C23.7435 83.8598 23.4983 83.7058 23.287 83.5041C23.0785 83.2997 22.9137 83.0504 22.7926 82.7564C22.6714 82.4623 22.6108 82.1276 22.6108 81.7524C22.6108 81.4023 22.6714 81.0816 22.7926 80.7904C22.9137 80.4963 23.0785 80.2443 23.287 80.0342C23.4983 79.8242 23.7435 79.6618 24.0224 79.5469C24.3042 79.4293 24.6042 79.3705 24.9226 79.3705C25.0691 79.3705 25.2142 79.3887 25.3579 79.4251C25.5016 79.4615 25.641 79.5119 25.7763 79.5763C25.9115 79.6408 26.0397 79.7164 26.1609 79.8032C26.2848 79.89 26.4004 79.9838 26.5074 80.0846L26.9554 79.5511H27.2343V84.0418ZM26.0721 81.7524C26.0721 81.5955 26.0411 81.4443 25.9791 81.2987C25.92 81.1503 25.8383 81.02 25.734 80.908C25.6298 80.7932 25.5072 80.7022 25.3663 80.635C25.2283 80.5649 25.0804 80.5299 24.9226 80.5299C24.7648 80.5299 24.6155 80.5565 24.4746 80.6098C24.3366 80.663 24.2154 80.7414 24.1112 80.845C24.0097 80.9486 23.9294 81.0774 23.8703 81.2315C23.8111 81.3827 23.7815 81.5563 23.7815 81.7524C23.7815 81.9484 23.8111 82.1234 23.8703 82.2775C23.9294 82.4287 24.0097 82.5561 24.1112 82.6598C24.2154 82.7634 24.3366 82.8418 24.4746 82.895C24.6155 82.9482 24.7648 82.9748 24.9226 82.9748C25.0804 82.9748 25.2283 82.9412 25.3663 82.874C25.5072 82.804 25.6298 82.713 25.734 82.6009C25.8383 82.4861 25.92 82.3559 25.9791 82.2103C26.0411 82.0618 26.0721 81.9092 26.0721 81.7524Z" fill="#C9AB81"/>
<path d="M30.6026 84.0418H27.9655V82.8992H30.6026C30.6815 82.8992 30.7492 82.8712 30.8055 82.8152C30.8619 82.7592 30.89 82.692 30.89 82.6135C30.89 82.5323 30.8619 82.4791 30.8055 82.4539C30.7492 82.4287 30.6815 82.4161 30.6026 82.4161H29.4024C29.2024 82.4161 29.015 82.3783 28.8403 82.3027C28.6656 82.2271 28.5135 82.1248 28.3839 81.996C28.2543 81.8644 28.1514 81.7118 28.0754 81.5381C28.0021 81.3645 27.9655 81.1783 27.9655 80.9794C27.9655 80.7806 28.0021 80.5943 28.0754 80.4207C28.1514 80.2471 28.2543 80.0959 28.3839 79.967C28.5135 79.8382 28.6656 79.7374 28.8403 79.6646C29.015 79.589 29.2024 79.5511 29.4024 79.5511H31.7395V80.6938H29.4024C29.3235 80.6938 29.2559 80.7218 29.1995 80.7778C29.1432 80.8338 29.115 80.901 29.115 80.9794C29.115 81.0606 29.1432 81.1307 29.1995 81.1895C29.2559 81.2455 29.3235 81.2735 29.4024 81.2735H30.6026C30.7999 81.2735 30.9858 81.3071 31.1605 81.3743C31.3352 81.4387 31.4873 81.5297 31.6169 81.6474C31.7465 81.765 31.8494 81.9064 31.9255 82.0716C32.0015 82.2369 32.0396 82.4175 32.0396 82.6135C32.0396 82.8124 32.0015 82.9986 31.9255 83.1723C31.8494 83.3431 31.7465 83.4943 31.6169 83.6259C31.4873 83.7548 31.3352 83.857 31.1605 83.9326C30.9858 84.0054 30.7999 84.0418 30.6026 84.0418Z" fill="#C9AB81"/>
<path d="M34.9261 84.0418C34.6471 84.0418 34.3851 83.99 34.14 83.8864C33.8949 83.78 33.6793 83.6357 33.4934 83.4537C33.3102 83.2689 33.1651 83.0546 33.0581 82.811C32.9538 82.5673 32.9017 82.3069 32.9017 82.0296V80.6938H32.3396V79.5511H32.9017V77.7532H34.0512V79.5511H35.8009V80.6938H34.0512V82.0296C34.0512 82.1501 34.0738 82.2635 34.1189 82.3699C34.1639 82.4735 34.2259 82.5645 34.3048 82.643C34.3837 82.7214 34.4767 82.7844 34.5838 82.832C34.6908 82.8768 34.8049 82.8992 34.9261 82.8992H35.8009V84.0418H34.9261Z" fill="#C9AB81"/>
<path d="M37.9182 84.0418H36.7645V80.6854H36.2024V79.5427H36.7645V79.3285C36.7645 79.0512 36.8166 78.7908 36.9209 78.5471C37.0279 78.3035 37.173 78.0921 37.3562 77.9128C37.5421 77.7308 37.7577 77.588 38.0028 77.4843C38.2479 77.3779 38.5099 77.3247 38.7889 77.3247H39.6552V78.4673H38.7889C38.6649 78.4673 38.5494 78.4897 38.4423 78.5345C38.3381 78.5766 38.2465 78.6368 38.1676 78.7152C38.0915 78.7908 38.0309 78.8818 37.9859 78.9882C37.9408 79.0919 37.9182 79.2053 37.9182 79.3285V79.5427H39.334V80.6854H37.9182V84.0418Z" fill="#C9AB81"/>
<path d="M44.1731 81.7524C44.1731 82.0884 44.1125 82.4021 43.9913 82.6934C43.8702 82.9818 43.7054 83.2325 43.4969 83.4453C43.2884 83.6553 43.0433 83.822 42.7615 83.9452C42.4826 84.0656 42.1825 84.1258 41.8613 84.1258C41.5429 84.1258 41.2429 84.0656 40.9611 83.9452C40.6822 83.822 40.4371 83.6553 40.2258 83.4453C40.0173 83.2325 39.8525 82.9818 39.7313 82.6934C39.6101 82.4021 39.5496 82.0884 39.5496 81.7524C39.5496 81.4107 39.6101 81.0942 39.7313 80.803C39.8525 80.5117 40.0173 80.2611 40.2258 80.051C40.4371 79.8382 40.6822 79.6716 40.9611 79.5511C41.2429 79.4307 41.5429 79.3705 41.8613 79.3705C42.1825 79.3705 42.4826 79.4279 42.7615 79.5427C43.0433 79.6548 43.2884 79.8158 43.4969 80.0258C43.7054 80.2331 43.8702 80.4837 43.9913 80.7778C44.1125 81.069 44.1731 81.3939 44.1731 81.7524ZM43.0109 81.7524C43.0109 81.5675 42.9799 81.4009 42.9179 81.2525C42.8587 81.1012 42.777 80.9724 42.6728 80.866C42.5685 80.7568 42.4459 80.6742 42.3051 80.6182C42.167 80.5593 42.0191 80.5299 41.8613 80.5299C41.7035 80.5299 41.5542 80.5593 41.4133 80.6182C41.2753 80.6742 41.1541 80.7568 41.0499 80.866C40.9485 80.9724 40.8682 81.1012 40.809 81.2525C40.7498 81.4009 40.7202 81.5675 40.7202 81.7524C40.7202 81.926 40.7498 82.087 40.809 82.2355C40.8682 82.3839 40.9485 82.5127 41.0499 82.6219C41.1541 82.7312 41.2753 82.818 41.4133 82.8824C41.5542 82.944 41.7035 82.9748 41.8613 82.9748C42.0191 82.9748 42.167 82.9454 42.3051 82.8866C42.4459 82.8278 42.5685 82.7452 42.6728 82.6387C42.777 82.5323 42.8587 82.4035 42.9179 82.2523C42.9799 82.101 43.0109 81.9344 43.0109 81.7524Z" fill="#C9AB81"/>
<path d="M49.1854 81.7524C49.1854 82.0884 49.1248 82.4021 49.0036 82.6934C48.8825 82.9818 48.7177 83.2325 48.5092 83.4453C48.3007 83.6553 48.0556 83.822 47.7738 83.9452C47.4949 84.0656 47.1948 84.1258 46.8736 84.1258C46.5553 84.1258 46.2552 84.0656 45.9734 83.9452C45.6945 83.822 45.4494 83.6553 45.2381 83.4453C45.0296 83.2325 44.8648 82.9818 44.7436 82.6934C44.6225 82.4021 44.5619 82.0884 44.5619 81.7524C44.5619 81.4107 44.6225 81.0942 44.7436 80.803C44.8648 80.5117 45.0296 80.2611 45.2381 80.051C45.4494 79.8382 45.6945 79.6716 45.9734 79.5511C46.2552 79.4307 46.5553 79.3705 46.8736 79.3705C47.1948 79.3705 47.4949 79.4279 47.7738 79.5427C48.0556 79.6548 48.3007 79.8158 48.5092 80.0258C48.7177 80.2331 48.8825 80.4837 49.0036 80.7778C49.1248 81.069 49.1854 81.3939 49.1854 81.7524ZM48.0232 81.7524C48.0232 81.5675 47.9922 81.4009 47.9302 81.2525C47.871 81.1012 47.7893 80.9724 47.6851 80.866C47.5808 80.7568 47.4583 80.6742 47.3174 80.6182C47.1793 80.5593 47.0314 80.5299 46.8736 80.5299C46.7159 80.5299 46.5665 80.5593 46.4256 80.6182C46.2876 80.6742 46.1664 80.7568 46.0622 80.866C45.9608 80.9724 45.8805 81.1012 45.8213 81.2525C45.7621 81.4009 45.7325 81.5675 45.7325 81.7524C45.7325 81.926 45.7621 82.087 45.8213 82.2355C45.8805 82.3839 45.9608 82.5127 46.0622 82.6219C46.1664 82.7312 46.2876 82.818 46.4256 82.8824C46.5665 82.944 46.7159 82.9748 46.8736 82.9748C47.0314 82.9748 47.1793 82.9454 47.3174 82.8866C47.4583 82.8278 47.5808 82.7452 47.6851 82.6387C47.7893 82.5323 47.871 82.4035 47.9302 82.2523C47.9922 82.101 48.0232 81.9344 48.0232 81.7524Z" fill="#C9AB81"/>
<path d="M54.1977 84.0418H53.9188L53.4708 83.4243C53.3609 83.5223 53.244 83.6147 53.12 83.7016C52.9988 83.7856 52.8707 83.8598 52.7354 83.9242C52.6002 83.9858 52.4607 84.0348 52.317 84.0712C52.1761 84.1076 52.0324 84.1258 51.8859 84.1258C51.5676 84.1258 51.2675 84.067 50.9858 83.9494C50.7068 83.829 50.4617 83.6638 50.2504 83.4537C50.0419 83.2409 49.8771 82.9902 49.7559 82.7018C49.6348 82.4105 49.5742 82.094 49.5742 81.7524C49.5742 81.4135 49.6348 81.0984 49.7559 80.8072C49.8771 80.5159 50.0419 80.2639 50.2504 80.051C50.4617 79.8382 50.7068 79.6716 50.9858 79.5511C51.2675 79.4307 51.5676 79.3705 51.8859 79.3705C51.9874 79.3705 52.0916 79.3789 52.1987 79.3957C52.3086 79.4125 52.4142 79.4405 52.5156 79.4797C52.6199 79.5161 52.7171 79.5651 52.8073 79.6268C52.8974 79.6884 52.9735 79.764 53.0355 79.8536V77.7532H54.1977V84.0418ZM53.0355 81.7524C53.0355 81.5955 53.0045 81.4443 52.9425 81.2987C52.8833 81.1503 52.8016 81.02 52.6974 80.908C52.5931 80.7932 52.4706 80.7022 52.3297 80.635C52.1916 80.5649 52.0437 80.5299 51.8859 80.5299C51.7282 80.5299 51.5788 80.5579 51.438 80.614C51.2999 80.67 51.1787 80.7512 51.0745 80.8576C50.9731 80.9612 50.8928 81.0886 50.8336 81.2399C50.7744 81.3911 50.7449 81.5619 50.7449 81.7524C50.7449 81.9176 50.7744 82.0744 50.8336 82.2229C50.8928 82.3713 50.9731 82.5015 51.0745 82.6135C51.1787 82.7256 51.2999 82.8138 51.438 82.8782C51.5788 82.9426 51.7282 82.9748 51.8859 82.9748C52.0437 82.9748 52.1916 82.9412 52.3297 82.874C52.4706 82.804 52.5931 82.713 52.6974 82.6009C52.8016 82.4861 52.8833 82.3559 52.9425 82.2103C53.0045 82.0618 53.0355 81.9092 53.0355 81.7524Z" fill="#C9AB81"/>
<path d="M61.8894 84.0418H61.6105L61.1625 83.4243C61.0526 83.5223 60.9357 83.6147 60.8117 83.7016C60.6906 83.7856 60.5624 83.8598 60.4272 83.9242C60.2919 83.9858 60.1524 84.0348 60.0088 84.0712C59.8679 84.1076 59.7242 84.1258 59.5777 84.1258C59.2593 84.1258 58.9592 84.0726 58.6775 83.9662C58.3986 83.8598 58.1534 83.7058 57.9421 83.5041C57.7336 83.2997 57.5688 83.0504 57.4477 82.7564C57.3265 82.4623 57.2659 82.1276 57.2659 81.7524C57.2659 81.4023 57.3265 81.0816 57.4477 80.7904C57.5688 80.4963 57.7336 80.2443 57.9421 80.0342C58.1534 79.8242 58.3986 79.6618 58.6775 79.5469C58.9592 79.4293 59.2593 79.3705 59.5777 79.3705C59.7242 79.3705 59.8693 79.3887 60.013 79.4251C60.1567 79.4615 60.2961 79.5119 60.4314 79.5763C60.5666 79.6408 60.6948 79.7164 60.816 79.8032C60.9399 79.89 61.0555 79.9838 61.1625 80.0846L61.6105 79.5511H61.8894V84.0418ZM60.7272 81.7524C60.7272 81.5955 60.6962 81.4443 60.6342 81.2987C60.5751 81.1503 60.4934 81.02 60.3891 80.908C60.2849 80.7932 60.1623 80.7022 60.0214 80.635C59.8834 80.5649 59.7355 80.5299 59.5777 80.5299C59.4199 80.5299 59.2706 80.5565 59.1297 80.6098C58.9916 80.663 58.8705 80.7414 58.7662 80.845C58.6648 80.9486 58.5845 81.0774 58.5253 81.2315C58.4662 81.3827 58.4366 81.5563 58.4366 81.7524C58.4366 81.9484 58.4662 82.1234 58.5253 82.2775C58.5845 82.4287 58.6648 82.5561 58.7662 82.6598C58.8705 82.7634 58.9916 82.8418 59.1297 82.895C59.2706 82.9482 59.4199 82.9748 59.5777 82.9748C59.7355 82.9748 59.8834 82.9412 60.0214 82.874C60.1623 82.804 60.2849 82.713 60.3891 82.6009C60.4934 82.4861 60.5751 82.3559 60.6342 82.2103C60.6962 82.0618 60.7272 81.9092 60.7272 81.7524Z" fill="#C9AB81"/>
<path d="M63.9265 84.0418H62.7727V79.5427H63.0516L63.432 79.9796C63.618 79.8116 63.8279 79.6828 64.0617 79.5932C64.2984 79.5007 64.5449 79.4545 64.8013 79.4545C65.0774 79.4545 65.338 79.5077 65.5832 79.6142C65.8283 79.7178 66.0424 79.862 66.2255 80.0468C66.4087 80.2289 66.5524 80.4431 66.6566 80.6896C66.7637 80.9332 66.8172 81.1937 66.8172 81.4709V84.0418H65.6635V81.4709C65.6635 81.3533 65.6409 81.2427 65.5958 81.1391C65.5508 81.0326 65.4888 80.9402 65.4099 80.8618C65.331 80.7834 65.2394 80.7218 65.1352 80.677C65.0309 80.6322 64.9196 80.6098 64.8013 80.6098C64.6801 80.6098 64.566 80.6322 64.459 80.677C64.3519 80.7218 64.2589 80.7834 64.18 80.8618C64.1012 80.9402 64.0392 81.0326 63.9941 81.1391C63.949 81.2427 63.9265 81.3533 63.9265 81.4709V84.0418Z" fill="#C9AB81"/>
<path d="M72.0155 84.0418H71.7365L71.2886 83.4243C71.1787 83.5223 71.0618 83.6147 70.9378 83.7016C70.8166 83.7856 70.6884 83.8598 70.5532 83.9242C70.418 83.9858 70.2785 84.0348 70.1348 84.0712C69.9939 84.1076 69.8502 84.1258 69.7037 84.1258C69.3853 84.1258 69.0853 84.067 68.8035 83.9494C68.5246 83.829 68.2795 83.6638 68.0682 83.4537C67.8597 83.2409 67.6949 82.9902 67.5737 82.7018C67.4526 82.4105 67.392 82.094 67.392 81.7524C67.392 81.4135 67.4526 81.0984 67.5737 80.8072C67.6949 80.5159 67.8597 80.2639 68.0682 80.051C68.2795 79.8382 68.5246 79.6716 68.8035 79.5511C69.0853 79.4307 69.3853 79.3705 69.7037 79.3705C69.8052 79.3705 69.9094 79.3789 70.0165 79.3957C70.1264 79.4125 70.232 79.4405 70.3334 79.4797C70.4377 79.5161 70.5349 79.5651 70.625 79.6268C70.7152 79.6884 70.7913 79.764 70.8533 79.8536V77.7532H72.0155V84.0418ZM70.8533 81.7524C70.8533 81.5955 70.8223 81.4443 70.7603 81.2987C70.7011 81.1503 70.6194 81.02 70.5152 80.908C70.4109 80.7932 70.2884 80.7022 70.1475 80.635C70.0094 80.5649 69.8615 80.5299 69.7037 80.5299C69.5459 80.5299 69.3966 80.5579 69.2557 80.614C69.1177 80.67 68.9965 80.7512 68.8923 80.8576C68.7909 80.9612 68.7106 81.0886 68.6514 81.2399C68.5922 81.3911 68.5626 81.5619 68.5626 81.7524C68.5626 81.9176 68.5922 82.0744 68.6514 82.2229C68.7106 82.3713 68.7909 82.5015 68.8923 82.6135C68.9965 82.7256 69.1177 82.8138 69.2557 82.8782C69.3966 82.9426 69.5459 82.9748 69.7037 82.9748C69.8615 82.9748 70.0094 82.9412 70.1475 82.874C70.2884 82.804 70.4109 82.713 70.5152 82.6009C70.6194 82.4861 70.7011 82.3559 70.7603 82.2103C70.8223 82.0618 70.8533 81.9092 70.8533 81.7524Z" fill="#C9AB81"/>
<path d="M76.6601 79.2235V81.6348H77.873C78.0393 81.6348 78.1956 81.6039 78.3421 81.5423C78.4887 81.4779 78.6168 81.3911 78.7267 81.2819C78.8366 81.1727 78.9225 81.0452 78.9845 80.8996C79.0493 80.7512 79.0817 80.5943 79.0817 80.4291C79.0817 80.2639 79.0493 80.1085 78.9845 79.9628C78.9225 79.8144 78.8366 79.6856 78.7267 79.5763C78.6168 79.4671 78.4887 79.3817 78.3421 79.3201C78.1956 79.2557 78.0393 79.2235 77.873 79.2235H76.6601ZM76.6601 84.0418H75.4472V78.0178H77.873C78.0956 78.0178 78.3097 78.0472 78.5154 78.1061C78.7211 78.1621 78.9127 78.2433 79.0902 78.3497C79.2705 78.4533 79.4339 78.5794 79.5804 78.7278C79.7298 78.8734 79.8565 79.0358 79.9608 79.2151C80.0679 79.3943 80.1496 79.5862 80.2059 79.7906C80.2651 79.995 80.2947 80.2079 80.2947 80.4291C80.2947 80.6364 80.2679 80.838 80.2144 81.034C80.1636 81.2301 80.089 81.4163 79.9904 81.5927C79.8946 81.7692 79.7762 81.9316 79.6354 82.08C79.4945 82.2285 79.3367 82.3573 79.162 82.4665L79.834 84.0418H78.545L78.0167 82.8278L76.6601 82.8362V84.0418Z" fill="#C9AB81"/>
<path d="M82.7205 82.9412C82.7656 82.9552 82.8107 82.965 82.8558 82.9706C82.9008 82.9734 82.9459 82.9748 82.991 82.9748C83.1037 82.9748 83.2122 82.9594 83.3164 82.9286C83.4207 82.8978 83.5179 82.8544 83.608 82.7984C83.701 82.7396 83.7827 82.6696 83.8531 82.5883C83.9264 82.5043 83.9856 82.4119 84.0306 82.3111L84.8759 83.1555C84.7688 83.3067 84.6449 83.4425 84.504 83.5629C84.3659 83.6834 84.2152 83.7856 84.0518 83.8696C83.8912 83.9536 83.7207 84.0166 83.5404 84.0586C83.3629 84.1034 83.1798 84.1258 82.991 84.1258C82.6726 84.1258 82.3726 84.067 82.0908 83.9494C81.8119 83.8318 81.5668 83.668 81.3554 83.4579C81.1469 83.2479 80.9821 82.9986 80.861 82.7102C80.7398 82.4189 80.6792 82.0996 80.6792 81.7524C80.6792 81.3967 80.7398 81.0718 80.861 80.7778C80.9821 80.4837 81.1469 80.2331 81.3554 80.0258C81.5668 79.8186 81.8119 79.6576 82.0908 79.5427C82.3726 79.4279 82.6726 79.3705 82.991 79.3705C83.1798 79.3705 83.3643 79.3929 83.5446 79.4377C83.725 79.4825 83.8954 79.5469 84.056 79.631C84.2194 79.715 84.3716 79.8186 84.5124 79.9418C84.6533 80.0622 84.7773 80.1981 84.8843 80.3493L82.7205 82.9412ZM83.3122 80.5761C83.2587 80.5565 83.2051 80.5439 83.1516 80.5383C83.1009 80.5327 83.0473 80.5299 82.991 80.5299C82.8332 80.5299 82.6839 80.5593 82.543 80.6182C82.405 80.6742 82.2838 80.7554 82.1796 80.8618C82.0781 80.9682 81.9978 81.097 81.9387 81.2483C81.8795 81.3967 81.8499 81.5647 81.8499 81.7524C81.8499 81.7944 81.8513 81.842 81.8541 81.8952C81.8598 81.9484 81.8668 82.003 81.8753 82.059C81.8865 82.1122 81.8992 82.1641 81.9133 82.2145C81.9274 82.2649 81.9457 82.3097 81.9682 82.3489L83.3122 80.5761Z" fill="#C9AB81"/>
<path d="M87.9526 84.0418H85.3154V82.8992H87.9526C88.0315 82.8992 88.0991 82.8712 88.1554 82.8152C88.2118 82.7592 88.24 82.692 88.24 82.6135C88.24 82.5323 88.2118 82.4791 88.1554 82.4539C88.0991 82.4287 88.0315 82.4161 87.9526 82.4161H86.7523C86.5523 82.4161 86.3649 82.3783 86.1903 82.3027C86.0156 82.2271 85.8634 82.1248 85.7338 81.996C85.6042 81.8644 85.5014 81.7118 85.4253 81.5381C85.3521 81.3645 85.3154 81.1783 85.3154 80.9794C85.3154 80.7806 85.3521 80.5943 85.4253 80.4207C85.5014 80.2471 85.6042 80.0959 85.7338 79.967C85.8634 79.8382 86.0156 79.7374 86.1903 79.6646C86.3649 79.589 86.5523 79.5511 86.7523 79.5511H89.0894V80.6938H86.7523C86.6735 80.6938 86.6058 80.7218 86.5495 80.7778C86.4931 80.8338 86.465 80.901 86.465 80.9794C86.465 81.0606 86.4931 81.1307 86.5495 81.1895C86.6058 81.2455 86.6735 81.2735 86.7523 81.2735H87.9526C88.1498 81.2735 88.3358 81.3071 88.5105 81.3743C88.6851 81.4387 88.8373 81.5297 88.9669 81.6474C89.0965 81.765 89.1993 81.9064 89.2754 82.0716C89.3515 82.2369 89.3895 82.4175 89.3895 82.6135C89.3895 82.8124 89.3515 82.9986 89.2754 83.1723C89.1993 83.3431 89.0965 83.4943 88.9669 83.6259C88.8373 83.7548 88.6851 83.857 88.5105 83.9326C88.3358 84.0054 88.1498 84.0418 87.9526 84.0418Z" fill="#C9AB81"/>
<path d="M92.276 84.0418C91.9971 84.0418 91.7351 83.99 91.4899 83.8864C91.2448 83.78 91.0293 83.6357 90.8433 83.4537C90.6602 83.2689 90.5151 83.0546 90.408 82.811C90.3038 82.5673 90.2517 82.3069 90.2517 82.0296V80.6938H89.6896V79.5511H90.2517V77.7532H91.4012V79.5511H93.1509V80.6938H91.4012V82.0296C91.4012 82.1501 91.4237 82.2635 91.4688 82.3699C91.5139 82.4735 91.5759 82.5645 91.6548 82.643C91.7337 82.7214 91.8266 82.7844 91.9337 82.832C92.0408 82.8768 92.1549 82.8992 92.276 82.8992H93.1509V84.0418H92.276Z" fill="#C9AB81"/>
<path d="M98.1843 84.0418H97.9054L97.4574 83.4243C97.3475 83.5223 97.2306 83.6147 97.1066 83.7016C96.9855 83.7856 96.8573 83.8598 96.722 83.9242C96.5868 83.9858 96.4473 84.0348 96.3036 84.0712C96.1628 84.1076 96.0191 84.1258 95.8725 84.1258C95.5542 84.1258 95.2541 84.0726 94.9724 83.9662C94.6934 83.8598 94.4483 83.7058 94.237 83.5041C94.0285 83.2997 93.8637 83.0504 93.7425 82.7564C93.6214 82.4623 93.5608 82.1276 93.5608 81.7524C93.5608 81.4023 93.6214 81.0816 93.7425 80.7904C93.8637 80.4963 94.0285 80.2443 94.237 80.0342C94.4483 79.8242 94.6934 79.6618 94.9724 79.5469C95.2541 79.4293 95.5542 79.3705 95.8725 79.3705C96.0191 79.3705 96.1642 79.3887 96.3078 79.4251C96.4515 79.4615 96.591 79.5119 96.7262 79.5763C96.8615 79.6408 96.9897 79.7164 97.1108 79.8032C97.2348 79.89 97.3503 79.9838 97.4574 80.0846L97.9054 79.5511H98.1843V84.0418ZM97.0221 81.7524C97.0221 81.5955 96.9911 81.4443 96.9291 81.2987C96.8699 81.1503 96.7882 81.02 96.684 80.908C96.5797 80.7932 96.4572 80.7022 96.3163 80.635C96.1782 80.5649 96.0303 80.5299 95.8725 80.5299C95.7148 80.5299 95.5654 80.5565 95.4246 80.6098C95.2865 80.663 95.1654 80.7414 95.0611 80.845C94.9597 80.9486 94.8794 81.0774 94.8202 81.2315C94.761 81.3827 94.7315 81.5563 94.7315 81.7524C94.7315 81.9484 94.761 82.1234 94.8202 82.2775C94.8794 82.4287 94.9597 82.5561 95.0611 82.6598C95.1654 82.7634 95.2865 82.8418 95.4246 82.895C95.5654 82.9482 95.7148 82.9748 95.8725 82.9748C96.0303 82.9748 96.1782 82.9412 96.3163 82.874C96.4572 82.804 96.5797 82.713 96.684 82.6009C96.7882 82.4861 96.8699 82.3559 96.9291 82.2103C96.9911 82.0618 97.0221 81.9092 97.0221 81.7524Z" fill="#C9AB81"/>
<path d="M102.394 83.5167C102.301 83.6007 102.201 83.6806 102.094 83.7562C101.989 83.829 101.879 83.8934 101.764 83.9494C101.648 84.0026 101.529 84.0446 101.405 84.0754C101.284 84.109 101.16 84.1258 101.033 84.1258C100.754 84.1258 100.492 84.0768 100.247 83.9788C100.002 83.8808 99.786 83.7422 99.6001 83.5629C99.4169 83.3809 99.2718 83.1611 99.1648 82.9034C99.0605 82.643 99.0084 82.3517 99.0084 82.0296V79.5427H100.158V82.0296C100.158 82.1809 100.18 82.3167 100.226 82.4371C100.273 82.5547 100.337 82.6542 100.416 82.7354C100.495 82.8166 100.586 82.8782 100.69 82.9202C100.798 82.9622 100.912 82.9832 101.033 82.9832C101.151 82.9832 101.262 82.9566 101.367 82.9034C101.474 82.8474 101.567 82.7746 101.646 82.685C101.724 82.5953 101.786 82.4945 101.832 82.3825C101.877 82.2677 101.899 82.1501 101.899 82.0296V79.5427H103.053V84.0418H102.774L102.394 83.5167Z" fill="#C9AB81"/>
<path d="M105.09 84.0418H103.936V79.5427H104.215L104.595 80.0762C104.781 79.9082 104.993 79.7794 105.229 79.6898C105.466 79.5974 105.711 79.5511 105.965 79.5511H106.983V80.6938H105.965C105.844 80.6938 105.73 80.7162 105.622 80.761C105.515 80.8058 105.422 80.8674 105.344 80.9458C105.265 81.0242 105.203 81.1167 105.158 81.2231C105.112 81.3295 105.09 81.4429 105.09 81.5633V84.0418Z" fill="#C9AB81"/>
<path d="M111.818 84.0418H111.539L111.091 83.4243C110.981 83.5223 110.864 83.6147 110.74 83.7016C110.619 83.7856 110.491 83.8598 110.356 83.9242C110.221 83.9858 110.081 84.0348 109.937 84.0712C109.797 84.1076 109.653 84.1258 109.506 84.1258C109.188 84.1258 108.888 84.0726 108.606 83.9662C108.327 83.8598 108.082 83.7058 107.871 83.5041C107.662 83.2997 107.497 83.0504 107.376 82.7564C107.255 82.4623 107.195 82.1276 107.195 81.7524C107.195 81.4023 107.255 81.0816 107.376 80.7904C107.497 80.4963 107.662 80.2443 107.871 80.0342C108.082 79.8242 108.327 79.6618 108.606 79.5469C108.888 79.4293 109.188 79.3705 109.506 79.3705C109.653 79.3705 109.798 79.3887 109.942 79.4251C110.085 79.4615 110.225 79.5119 110.36 79.5763C110.495 79.6408 110.623 79.7164 110.745 79.8032C110.869 79.89 110.984 79.9838 111.091 80.0846L111.539 79.5511H111.818V84.0418ZM110.656 81.7524C110.656 81.5955 110.625 81.4443 110.563 81.2987C110.504 81.1503 110.422 81.02 110.318 80.908C110.214 80.7932 110.091 80.7022 109.95 80.635C109.812 80.5649 109.664 80.5299 109.506 80.5299C109.349 80.5299 109.199 80.5565 109.058 80.6098C108.92 80.663 108.799 80.7414 108.695 80.845C108.593 80.9486 108.513 81.0774 108.454 81.2315C108.395 81.3827 108.365 81.5563 108.365 81.7524C108.365 81.9484 108.395 82.1234 108.454 82.2775C108.513 82.4287 108.593 82.5561 108.695 82.6598C108.799 82.7634 108.92 82.8418 109.058 82.895C109.199 82.9482 109.349 82.9748 109.506 82.9748C109.664 82.9748 109.812 82.9412 109.95 82.874C110.091 82.804 110.214 82.713 110.318 82.6009C110.422 82.4861 110.504 82.3559 110.563 82.2103C110.625 82.0618 110.656 81.9092 110.656 81.7524Z" fill="#C9AB81"/>
<path d="M113.855 84.0418H112.701V79.5427H112.98L113.361 79.9796C113.547 79.8116 113.757 79.6828 113.99 79.5932C114.227 79.5007 114.474 79.4545 114.73 79.4545C115.006 79.4545 115.267 79.5077 115.512 79.6142C115.757 79.7178 115.971 79.862 116.154 80.0468C116.337 80.2289 116.481 80.4431 116.585 80.6896C116.692 80.9332 116.746 81.1937 116.746 81.4709V84.0418H115.592V81.4709C115.592 81.3533 115.57 81.2427 115.525 81.1391C115.479 81.0326 115.417 80.9402 115.339 80.8618C115.26 80.7834 115.168 80.7218 115.064 80.677C114.96 80.6322 114.848 80.6098 114.73 80.6098C114.609 80.6098 114.495 80.6322 114.388 80.677C114.281 80.7218 114.188 80.7834 114.109 80.8618C114.03 80.9402 113.968 81.0326 113.923 81.1391C113.878 81.2427 113.855 81.3533 113.855 81.4709V84.0418Z" fill="#C9AB81"/>
<path d="M119.78 84.0418C119.501 84.0418 119.239 83.99 118.994 83.8864C118.749 83.78 118.534 83.6357 118.348 83.4537C118.165 83.2689 118.019 83.0546 117.912 82.811C117.808 82.5673 117.756 82.3069 117.756 82.0296V80.6938H117.194V79.5511H117.756V77.7532H118.906V79.5511H120.655V80.6938H118.906V82.0296C118.906 82.1501 118.928 82.2635 118.973 82.3699C119.018 82.4735 119.08 82.5645 119.159 82.643C119.238 82.7214 119.331 82.7844 119.438 82.832C119.545 82.8768 119.659 82.8992 119.78 82.8992H120.655V84.0418H119.78Z" fill="#C9AB81"/>
<path d="M23.4768 54.3641H17.6494C16.9974 54.3641 16.3757 54.2798 15.961 53.7142C15.55 53.1543 15.4114 52.5375 15.736 51.8763C16.0521 51.2311 16.5836 50.9176 17.2878 50.8512C17.6323 50.819 17.9977 50.8171 18.3109 50.693C18.943 50.4429 19.3577 49.7002 19.297 49.0673C19.2343 48.4117 18.6915 47.7448 17.9379 47.6614C16.9262 47.5487 15.8983 47.5705 14.8761 47.5591C13.7353 47.5468 12.5945 47.5761 11.4537 47.5619C10.5977 47.5515 9.85927 46.7377 9.85453 45.8424C9.84978 44.9604 10.5654 44.159 11.4632 44.1372C12.9315 44.1012 14.4007 44.1258 15.8689 44.1135C16.1697 44.1106 16.4791 44.0993 16.7686 44.0254C17.6684 43.7961 18.1505 43.1386 18.0698 42.304C17.9911 41.4864 17.2868 40.8318 16.4004 40.8185C14.8391 40.7958 13.2769 40.8233 11.7147 40.8015C10.5398 40.7844 9.85263 40.0038 9.95134 38.8555C10.0282 37.9603 10.7638 37.3198 11.7935 37.3104C13.8445 37.2914 15.8964 37.2943 17.9474 37.299C18.6004 37.3 19.148 37.0887 19.4991 36.5297C20.1977 35.4194 19.4384 34.0978 18.0831 34.0902C15.3327 34.0732 12.5813 34.0931 9.8308 34.076C9.37144 34.0732 8.89975 34.0097 8.45558 33.8923C7.73902 33.7028 7.41253 33.1343 7.31857 32.4513C7.22366 31.7673 7.6071 31.0293 8.22305 30.782C8.66533 30.6049 9.16359 30.4931 9.63908 30.4883C12.4133 30.4618 15.1874 30.4751 17.9616 30.4751C20.7358 30.4741 23.51 30.4694 23.4796 30.476V54.3641H23.4768Z" fill="white"/>
<path d="M4.53764 40.7721C5.49337 40.7721 6.45006 40.7531 7.40484 40.7778C8.33494 40.8014 8.97083 41.512 8.97083 42.4717C8.97083 43.3565 8.30077 44.1353 7.4352 44.1476C5.47724 44.176 3.51832 44.176 1.56036 44.1485C0.629306 44.1353 -0.00752552 43.3925 6.71653e-05 42.4366C0.00671077 41.4627 0.624565 40.8014 1.60118 40.7768C2.57873 40.7531 3.55819 40.7721 4.53764 40.7721Z" fill="white"/>
<path d="M4.29073 33.9841C4.81071 33.9841 5.33165 33.9699 5.85163 33.9889C6.35832 34.0069 6.70371 34.5469 6.70371 35.2763C6.70371 35.949 6.33934 36.5411 5.86775 36.5506C4.80217 36.5714 3.73565 36.5723 2.67007 36.5515C2.16338 36.5411 1.81704 35.9765 1.82083 35.2508C1.82463 34.5109 2.16053 34.0078 2.6919 33.9889C3.22421 33.9699 3.75747 33.9841 4.29073 33.9841Z" fill="white"/>
<path d="M6.15834 47.4919C6.74013 47.4919 7.32382 47.4691 7.90466 47.4966C8.87368 47.543 9.51051 48.1977 9.54847 49.1441C9.58739 50.1 8.9534 50.9024 7.98913 50.9517C6.78189 51.0133 5.5661 51.0171 4.35982 50.9517C3.41263 50.9005 2.77769 50.0773 2.81186 49.1261C2.84413 48.2176 3.52747 47.5392 4.48225 47.5013C5.04031 47.4786 5.59933 47.4976 6.15834 47.4976C6.15834 47.4966 6.15834 47.4947 6.15834 47.4919Z" fill="white"/>
<path d="M50.8637 58.5583C50.8637 60.2174 50.5449 61.774 49.9071 63.2281C49.2694 64.6822 48.3972 65.9592 47.2905 67.059C46.2026 68.1403 44.9271 68.9978 43.4641 69.6316C42.001 70.2655 40.4348 70.5824 38.7655 70.5824H18.5923V30.4835H38.7655C40.4348 30.4835 42.001 30.8004 43.4641 31.4342C44.9271 32.068 46.2026 32.9349 47.2905 34.0348C48.3972 35.116 49.2694 36.3837 49.9071 37.8377C50.5449 39.2918 50.8637 40.8484 50.8637 42.5075C50.8637 43.2532 50.7606 44.0175 50.5543 44.8005C50.3479 45.5835 50.0572 46.3385 49.682 47.0655C49.3069 47.7926 48.8567 48.4543 48.3315 49.0509C47.8063 49.6474 47.2249 50.1414 46.5871 50.5329C47.2436 50.8871 47.8345 51.3718 48.3597 51.987C48.8849 52.5835 49.335 53.2453 49.7102 53.9724C50.0853 54.6994 50.3667 55.4637 50.5543 56.2653C50.7606 57.0483 50.8637 57.8126 50.8637 58.5583ZM26.6672 62.557H38.7655C39.3282 62.557 39.8534 62.4545 40.3411 62.2494C40.8287 62.0443 41.2508 61.7647 41.6072 61.4105C41.9823 61.0377 42.273 60.6089 42.4794 60.1242C42.6857 59.6395 42.7888 59.1176 42.7888 58.5583C42.7888 57.999 42.6857 57.4771 42.4794 56.9924C42.273 56.5077 41.9823 56.0882 41.6072 55.734C41.2508 55.3612 40.8287 55.0722 40.3411 54.8672C39.8534 54.6621 39.3282 54.5596 38.7655 54.5596H26.6672V62.557ZM26.6672 46.5342H38.7655C39.3282 46.5342 39.8534 46.4317 40.3411 46.2266C40.8287 46.0216 41.2508 45.7419 41.6072 45.3877C41.9823 45.0149 42.273 44.5861 42.4794 44.1014C42.6857 43.5981 42.7888 43.0668 42.7888 42.5075C42.7888 41.9483 42.6857 41.4263 42.4794 40.9416C42.273 40.4569 41.9823 40.0375 41.6072 39.6833C41.2508 39.3104 40.8287 39.0215 40.3411 38.8164C39.8534 38.6114 39.3282 38.5088 38.7655 38.5088H26.6672V46.5342Z" fill="white"/>
<path d="M85.3298 70.5824H83.4728L80.4905 66.4718C79.7589 67.1243 78.9805 67.7395 78.1552 68.3174C77.3487 68.8766 76.4952 69.3706 75.5949 69.7994C74.6945 70.2095 73.7661 70.5358 72.8095 70.7781C71.8716 71.0205 70.915 71.1416 69.9396 71.1416C67.8201 71.1416 65.8225 70.7874 63.9468 70.079C62.0898 69.3706 60.458 68.3453 59.0512 67.0031C57.6632 65.6423 56.5659 63.9831 55.7593 62.0257C54.9528 60.0683 54.5495 57.8406 54.5495 55.3426C54.5495 53.0123 54.9528 50.8778 55.7593 48.939C56.5659 46.9816 57.6632 45.3038 59.0512 43.9057C60.458 42.5075 62.0898 41.4263 63.9468 40.662C65.8225 39.879 67.8201 39.4875 69.9396 39.4875C70.915 39.4875 71.881 39.6087 72.8376 39.8511C73.7942 40.0934 74.7227 40.429 75.623 40.8577C76.5233 41.2865 77.3768 41.7898 78.1833 42.3677C79.0087 42.9456 79.7777 43.5701 80.4905 44.2413L83.4728 40.69H85.3298V70.5824ZM77.5925 55.3426C77.5925 54.2986 77.3862 53.2919 76.9735 52.3226C76.5796 51.3345 76.0357 50.4677 75.3417 49.722C74.6476 48.9577 73.8317 48.3518 72.8939 47.9044C71.9748 47.4384 70.99 47.2053 69.9396 47.2053C68.8892 47.2053 67.8951 47.3824 66.9573 47.7366C66.0382 48.0908 65.2316 48.6128 64.5376 49.3026C63.8624 49.9923 63.3278 50.8498 62.9339 51.8751C62.54 52.8818 62.343 54.0376 62.343 55.3426C62.343 56.6475 62.54 57.8126 62.9339 58.8379C63.3278 59.8446 63.8624 60.6928 64.5376 61.3826C65.2316 62.0723 66.0382 62.5943 66.9573 62.9485C67.8951 63.3027 68.8892 63.4798 69.9396 63.4798C70.99 63.4798 71.9748 63.2561 72.8939 62.8087C73.8317 62.3426 74.6476 61.7368 75.3417 60.9911C76.0357 60.2268 76.5796 59.3599 76.9735 58.3905C77.3862 57.4025 77.5925 56.3865 77.5925 55.3426Z" fill="white"/>
<path d="M98.8911 70.5824H91.2101V40.634H93.067L95.5992 44.1853C96.8372 43.0668 98.244 42.2093 99.8196 41.6127C101.395 40.9975 103.027 40.69 104.715 40.69H111.496V48.2959H104.715C103.909 48.2959 103.149 48.445 102.436 48.7433C101.723 49.0416 101.104 49.4517 100.579 49.9737C100.054 50.4956 99.6414 51.1108 99.3413 51.8192C99.0412 52.5276 98.8911 53.2826 98.8911 54.0842V70.5824Z" fill="white"/>
<path d="M143.683 70.5824H141.826L138.844 66.4718C138.112 67.1243 137.334 67.7395 136.508 68.3174C135.702 68.8766 134.848 69.3706 133.948 69.7994C133.048 70.2095 132.119 70.5358 131.163 70.7781C130.225 71.0205 129.268 71.1416 128.293 71.1416C126.173 71.1416 124.176 70.7874 122.3 70.079C120.443 69.3706 118.811 68.3453 117.404 67.0031C116.016 65.6423 114.919 63.9831 114.112 62.0257C113.306 60.0683 112.903 57.8406 112.903 55.3426C112.903 53.0123 113.306 50.8778 114.112 48.939C114.919 46.9816 116.016 45.3038 117.404 43.9057C118.811 42.5075 120.443 41.4263 122.3 40.662C124.176 39.879 126.173 39.4875 128.293 39.4875C129.268 39.4875 130.234 39.6087 131.191 39.8511C132.147 40.0934 133.076 40.429 133.976 40.8577C134.876 41.2865 135.73 41.7898 136.536 42.3677C137.362 42.9456 138.131 43.5701 138.844 44.2413L141.826 40.69H143.683V70.5824ZM135.946 55.3426C135.946 54.2986 135.739 53.2919 135.327 52.3226C134.933 51.3345 134.389 50.4677 133.695 49.722C133.001 48.9577 132.185 48.3518 131.247 47.9044C130.328 47.4384 129.343 47.2053 128.293 47.2053C127.242 47.2053 126.248 47.3824 125.31 47.7366C124.391 48.0908 123.585 48.6128 122.891 49.3026C122.215 49.9923 121.681 50.8498 121.287 51.8751C120.893 52.8818 120.696 54.0376 120.696 55.3426C120.696 56.6475 120.893 57.8126 121.287 58.8379C121.681 59.8446 122.215 60.6928 122.891 61.3826C123.585 62.0723 124.391 62.5943 125.31 62.9485C126.248 63.3027 127.242 63.4798 128.293 63.4798C129.343 63.4798 130.328 63.2561 131.247 62.8087C132.185 62.3426 133.001 61.7368 133.695 60.9911C134.389 60.2268 134.933 59.3599 135.327 58.3905C135.739 57.4025 135.946 56.3865 135.946 55.3426Z" fill="white"/>
<path d="M179.724 55.3426C179.724 57.6914 179.321 59.8353 178.515 61.774C177.708 63.7128 176.611 65.3813 175.223 66.7794C173.835 68.1589 172.203 69.2308 170.327 69.9952C168.47 70.7595 166.473 71.1416 164.334 71.1416C162.215 71.1416 160.217 70.7502 158.341 69.9672C156.485 69.1842 154.853 68.0937 153.446 66.6955C152.058 65.2974 150.961 63.6382 150.154 61.7181C149.347 59.7793 148.944 57.6542 148.944 55.3426V28.7218H156.653V42.7033C157.066 42.1813 157.563 41.7153 158.145 41.3051C158.745 40.895 159.382 40.5595 160.058 40.2985C160.752 40.0375 161.465 39.8417 162.196 39.7113C162.928 39.5621 163.64 39.4875 164.334 39.4875C166.473 39.4875 168.47 39.8883 170.327 40.69C172.203 41.4729 173.835 42.5728 175.223 43.9896C176.611 45.4064 177.708 47.0842 178.515 49.0229C179.321 50.943 179.724 53.0496 179.724 55.3426ZM171.987 55.3426C171.987 54.1868 171.781 53.1148 171.368 52.1268C170.974 51.1201 170.43 50.2533 169.736 49.5263C169.042 48.7992 168.226 48.2306 167.289 47.8205C166.369 47.4104 165.385 47.2053 164.334 47.2053C163.284 47.2053 162.29 47.4384 161.352 47.9044C160.433 48.3518 159.626 48.9577 158.932 49.722C158.238 50.4677 157.694 51.3345 157.3 52.3226C156.907 53.2919 156.71 54.2986 156.71 55.3426C156.71 56.4984 156.907 57.5703 157.3 58.5583C157.694 59.5463 158.238 60.4039 158.932 61.1309C159.626 61.8579 160.433 62.4358 161.352 62.8646C162.29 63.2747 163.284 63.4798 164.334 63.4798C165.385 63.4798 166.369 63.2747 167.289 62.8646C168.226 62.4358 169.042 61.8579 169.736 61.1309C170.43 60.4039 170.974 59.5463 171.368 58.5583C171.781 57.5703 171.987 56.4984 171.987 55.3426Z" fill="white"/>
</svg>
